<?xml version="1.0" encoding="UTF-8"?>
<svg id="Capa_2" data-name="Capa 2" xmlns="http://www.w3.org/2000/svg" viewBox="0 0 92.14 94.73">
  <defs>
    <style>
      .cls-1 {
        fill: #2b7ee7;
      }
    </style>
  </defs>
  <g id="Capa_1-2" data-name="Capa 1">
    <g>
      <path class="cls-1" d="M64.24,55.17c.14.03.65-.05.69,0,.04.04-.04.39,0,.43.05.05.82-.04,1.01,0,.13.03-.01.31.12.33.2.04,1.81.04,2.02,0,.12-.02.02-.27.07-.31.07-.07.69.04.74-.01.04-.04-.04-.39,0-.43.05-.05.66.07.74-.02.03-.04-.03-.23.03-.28.06-.06.25,0,.28-.03.07-.07-.03-.38.01-.42.04-.04.35.06.42-.01.04-.04-.03-.22.03-.28.05-.05.22,0,.27-.05.06-.06,0-.24.03-.28.07-.07.37.02.42-.01.05-.04-.06-.67.01-.74.05-.04.29.06.31-.07.06-.28.06-2.9,0-3.19-.02-.12-.27-.02-.31-.07-.07-.07.04-.7-.01-.74-.04-.04-.35.06-.42-.01-.04-.04.03-.22-.03-.28-.05-.05-.22,0-.27-.05-.06-.06,0-.24-.03-.28-.07-.07-.38.03-.42-.01-.04-.04.06-.35-.01-.42-.04-.04-.22.03-.28-.03-.05-.05,0-.22-.05-.27-.06-.06-.24,0-.28-.03-.07-.07.02-.38-.01-.42-.04-.04-.36.05-.42,0-.05-.04.06-.29-.06-.32-.16-.03-.61.07-.68,0-.04-.05.06-.29-.06-.32-.13-.03-.55.05-.58,0-.04-.04.04-.39,0-.43-.04-.04-.35.06-.42-.01-.04-.04.03-.23-.03-.28s-.25,0-.28-.03c-.07-.07.02-.37-.01-.42-.04-.05-.66.07-.74-.02-.03-.04.03-.22-.03-.28-.05-.05-.22,0-.27-.05-.06-.06,0-.24-.03-.28-.07-.07-.38.02-.42-.01-.04-.03.04-.39,0-.43-.05-.05-.66.07-.74-.02-.03-.04.03-.23-.03-.28-.06-.06-.25,0-.28-.03-.07-.07.04-.33-.03-.41-.04-.04-.23.02-.28-.03s0-.25-.03-.28c-.07-.07-.33.04-.41-.03-.04-.04.02-.23-.03-.28-.06-.06-.25,0-.28-.03-.07-.07.02-.37-.01-.42-.04-.05-.66.07-.74-.02-.03-.04.03-.23-.03-.28-.06-.06-.25,0-.28-.03-.07-.07.03-.38-.01-.42s-.35.06-.42-.01c-.04-.04.03-.22-.03-.28-.05-.05-.22,0-.27-.05-.06-.06,0-.24-.03-.28-.07-.07-.38.02-.42-.01-.04-.04.05-.35,0-.42-.04-.05-.29.06-.32-.06-.03-.16.07-.61,0-.68-.04-.03-.23.03-.28-.03-.06-.06,0-.25-.03-.28-.07-.07-.33.04-.41-.03-.04-.04.02-.23-.03-.28-.06-.06-.25,0-.28-.03-.07-.07.03-.38-.01-.42-.04-.04-.35.06-.42-.01-.04-.04.03-.23-.03-.28-.06-.06-.25,0-.28-.03-.09-.08.06-.64-.03-.73-.04-.03-.23.03-.28-.03-.06-.06,0-.25-.03-.28-.07-.07-.37.02-.42-.01-.04-.04.04-.55,0-.69-.02-.12-.27-.02-.32-.06-.06-.07.03-.38,0-.42-.03-.04-.39.04-.43,0-.05-.04.06-.56-.01-.63-.04-.04-.29.06-.31-.06-.03-.16.07-.61,0-.68-.04-.04-.26.03-.3-.01-.06-.07.03-.38,0-.42-.03-.04-.39.04-.43,0-.04-.04.04-.55,0-.69-.02-.12-.27-.02-.31-.06-.07-.07.03-.59-.01-.63-.04-.04-.39.04-.43,0-.05-.05.07-1.09-.01-1.17-.04-.04-.26.02-.3-.01-.08-.08.05-.54-.02-.63-.04-.04-.31,0-.31,0v-1.49c-.1-.02-.4.03-.43,0-.08-.07.07-1.76,0-2.07-.03-.13-.31.01-.33-.12V3.35c-.8.27-.23-.97-.44-1.16-.04-.03-.22.03-.28-.03-.12-.13-.19-.2-.32-.32-.06-.06,0-.24-.03-.28-.07-.07-.38.03-.42-.01-.04-.04.06-.35-.01-.42-.04-.04-.23.03-.28-.03-.06-.06,0-.25-.03-.28-.08-.08-.69.03-.74-.02-.04-.04.04-.39,0-.43-.05-.06-1.2.05-1.43,0-.13-.03.01-.31-.12-.33-.29-.06-2.79-.06-3.08,0-.13.03.01.31-.12.33-.23.05-1.38-.07-1.43,0-.04.04.04.39,0,.43-.05.05-.66-.07-.74.02-.03.04.03.23-.03.28-.06.06-.25,0-.28.03-.07.07.03.38-.01.42s-.35-.06-.42.01c-.04.04.03.23-.03.28-.06.06-.25,0-.28.03-.09.08.05.65-.03.73-.05.04-.29-.06-.32.06-.09.44.28.8-.42.69v24.57c-.02.13-.3-.01-.33.12-.05.27.07,1.69,0,1.75-.04.04-.39-.03-.43,0-.05.05,0,1.27,0,1.49,0,.02-.29-.06-.33.06-.06.23.06.69.01.95-.03.13-.31-.01-.33.12-.04.18.06.96,0,1.01-.04.04-.39-.04-.43,0-.04.04.04.55,0,.69-.02.12-.27.02-.31.06-.07.07.04.69-.01.74-.04.04-.39-.04-.43,0-.04.04.04.55,0,.69-.02.12-.27.02-.32.06-.07.07.02.43,0,.58-.02.12-.27.02-.32.06-.06.07.03.38-.01.42-.01.02-.41.01-.43,0-.02-.02-.02-.59,0-.69.02-.13.43-.03.43-.06v-13.75s-.43.02-.43,0v-1.49s-.27.04-.31,0c-.08-.08.04-.69-.01-.74-.04-.04-.39.04-.43,0-.05-.05.07-.66-.02-.74-.04-.03-.22.03-.28-.03-.12-.13-.19-.2-.32-.32-.06-.06,0-.24-.03-.28-.07-.07-.38.03-.42-.01-.04-.04.06-.35-.01-.42-.04-.04-.23.03-.28-.03-.06-.06,0-.25-.03-.28-.08-.08-.69.03-.74-.02-.04-.04.04-.39,0-.43-.05-.05-.67.06-.74-.01-.04-.05.06-.29-.07-.31-.46-.09-1.24.1-1.7.01-.13-.03.01-.31-.12-.33-.18-.04-1.51-.04-1.7,0-.13.03.01.31-.12.33-.52.1-1.56-.14-2.02-.01-.12.03-.04.33-.06.33h-1.49c.16.73-.52.32-1.01.42-.12.02-.02.27-.07.31-.07.07-.69-.04-.74.01-.04.04.04.39,0,.43-.04.04-.55-.04-.69,0-.12.02-.02.27-.06.32-.08.08-.65-.06-.73.03-.03.04.03.23-.03.28-.06.06-.25,0-.28.03-.07.07.02.37-.01.42-.04.04-.55-.04-.69,0-.11.02-.02.25-.08.31-.06.06-.25,0-.28.03-.07.07.02.37-.01.42-.04.05-.66-.07-.74.02-.03.04.03.22-.03.28-.05.05-.22,0-.27.05-.06.06.03.28-.08.3-.14.03-.65-.05-.69,0-.04.04.04.39,0,.43-.04.04-.35-.06-.42.01-.04.04.03.23-.03.28-.06.06-.25,0-.28.03-.07.07.04.33-.03.41-.04.04-.23-.02-.28.03-.06.06,0,.25-.03.28-.07.07-.34-.04-.41.03-.04.04.02.26-.01.29-.07.08-.7-.04-.74.01-.04.04.06.35-.01.42-.04.04-.22-.03-.28.03-.05.05,0,.22-.05.27-.06.06-.24,0-.28.03-.07.07.03.38-.01.42s-.35-.06-.42.01c-.04.04.03.22-.03.28-.05.05-.22,0-.27.05-.06.06,0,.24-.03.28-.07.07-.38-.03-.42.01s.06.35-.01.42c-.04.04-.22-.03-.28.03-.05.05,0,.22-.05.27-.06.06-.24,0-.28.03-.08.08.03.69-.02.74-.04.04-.35-.06-.42.01-.04.04.03.23-.03.28-.06.06-.25,0-.28.03-.07.07.03.38-.01.42s-.35-.06-.42.01c-.04.04.03.23-.03.28-.06.06-.25,0-.28.03-.07.07.04.34-.03.41-.04.05-.29-.05-.32.06-.03.13.05.55,0,.58-.04.04-.39-.04-.43,0-.04.04.06.35-.01.42-.04.04-.23-.03-.28.03s0,.25-.03.28c-.07.07-.38-.03-.42.01-.04.04.05.36,0,.42-.04.05-.29-.06-.32.06-.03.15.06.51,0,.58-.04.04-.26-.03-.3.01-.06.07.03.38,0,.42-.03.04-.39-.04-.43,0-.05.05.07.66-.02.74-.04.03-.23-.03-.28.03-.06.06,0,.25-.03.28-.07.07-.37-.02-.42.01-.05.04.07.66-.02.74-.04.03-.22-.03-.28.03-.05.05,0,.22-.05.27-.06.06-.24,0-.28.03-.08.08.03.69-.02.74-.04.04-.35-.06-.42.01-.04.04.03.23-.03.28-.06.06-.25,0-.28.03-.08.08.03.69-.02.74-.04.04-.39-.04-.43,0-.04.04.04.55,0,.69-.02.12-.27.02-.31.06-.08.08.06.65-.03.73-.04.03-.23-.03-.28.03-.06.06,0,.25-.03.28-.07.07-.37-.02-.42.01-.05.04.06.67-.01.74-.05.04-.29-.06-.31.06-.03.14.05.65,0,.69-.04.04-.39-.04-.43,0-.05.05.06.67-.01.74-.05.04-.29-.06-.31.07-.05.26.07.69.01.95-.03.13-.31-.01-.33.12-.03.14.05.65,0,.69-.04.04-.39-.04-.43,0-.04.04.04.55,0,.69-.02.12-.27.02-.31.06-.07.07.03.59-.01.63-.04.04-.39-.04-.43,0-.05.05.05.92,0,1.11-.02.12-.27.02-.32.06-.08.08.05.55-.02.63-.04.04-.26-.03-.3.01-.07.07.04.69-.01.74-.04.04-.39-.04-.43,0-.05.05.04.82,0,1.01-.03.13-.31-.01-.33.12-.04.19.06,1.07,0,1.11-.04.04-.39-.04-.43,0-.05.05.04.82,0,1.01-.03.13-.31-.01-.33.12-.04.18.06.96,0,1.01-.04.04-.39-.04-.43,0-.05.05.04.82,0,1.01-.03.13-.31-.01-.33.12-.04.21.07.91,0,1-.04.04-.31,0-.31,0v1.49s-.43-.02-.43,0v1.49s-.29-.06-.33.06c-.06.21.07,1.27,0,1.33-.03.03-.33-.02-.43,0v1.49s-.29-.06-.33.06c-.11.39.12,1.31.01,1.7-.03.12-.33.04-.33.06v1.81c-.1.02-.4-.03-.43,0-.07.07.07,1.76,0,2.07-.03.13-.31-.01-.33.12-.09.47.13,3.14,0,3.25-.04.04-.39-.04-.43,0-.1.1.09,2.41,0,2.82-.03.13-.31-.01-.33.12v5s-.32.12-.32.12v13.32c.03.13.31-.01.33.12.07.35-.08.92-.01,1.27.03.13.31-.01.33.12.04.19-.06,1.07,0,1.11.04.04.39-.04.43,0,.05.05-.05.82,0,1.01.02.11.25.02.31.08.06.06,0,.25.03.28.07.07.37-.02.42.01.04.04-.04.55,0,.69.02.11.24.02.3.08.05.05,0,.22.05.27.06.06.24,0,.28.03.07.07-.03.38.01.42.04.04.35-.06.42.01.04.04-.03.23.03.28.06.06.25,0,.28.03.07.07-.03.38.01.42.04.04.36-.05.42,0,.04.04-.03.26.01.3.08.08.55-.05.63.03.04.04-.06.29.06.32.14.03.65-.05.69,0,.04.04-.04.39,0,.43.05.06,1.2-.05,1.43,0,.13.03-.01.31.12.33h4.25c.13-.03-.01-.31.12-.33.31-.06,2,.08,2.07,0,.03-.03-.02-.33,0-.43h1.49s-.04-.27,0-.31c.11-.1,1.08.06,1.32,0,.12-.03.04-.33.06-.33h1.49c-.16-.73.51-.32,1.01-.42.13-.03-.01-.31.12-.33.18-.04.96.06,1.01,0,.04-.04-.04-.39,0-.43.05-.05.92.05,1.11,0,.12-.02.02-.27.06-.32.08-.08.55.05.63-.02.04-.04-.06-.29.06-.32.19-.04,1.07.06,1.11,0,.04-.04-.04-.39,0-.43.04-.05.56.06.63-.01.04-.04-.06-.29.06-.31.14-.03.65.05.69,0,.04-.04-.04-.39,0-.43.04-.04.55.04.69,0,.12-.02.02-.27.06-.31.08-.08.65.06.73-.02.04-.04-.02-.26.01-.3.07-.07.7.04.74-.01.04-.04-.06-.35.01-.42.04-.04.23.03.28-.03.06-.06,0-.25.03-.28.08-.08.69.03.74-.02.04-.04-.04-.39,0-.43.04-.04.55.04.69,0,.11-.02.02-.24.08-.3.05-.05.22,0,.27-.05.06-.06,0-.24.03-.28.08-.08.69.03.74-.02.04-.04-.06-.35.01-.42.04-.04.23.03.28-.03.06-.06,0-.25.03-.28.07-.07.38.02.42-.01.04-.03-.04-.39,0-.43.05-.05.66.07.74-.02.03-.04-.03-.22.03-.28.13-.12.2-.19.32-.32.06-.06.24,0,.28-.03.07-.07-.03-.38.01-.42.04-.04.35.06.42-.01.04-.04-.03-.23.03-.28s.25,0,.28-.03c.07-.07-.03-.38.01-.42.04-.04.35.06.42-.01.03-.03.3-.54.35-.6.06-.06.24,0,.28-.03.07-.07-.03-.38.01-.42.04-.04.35.06.42-.01.04-.04-.03-.23.03-.28s.25,0,.28-.03c.07-.07-.03-.38.01-.42.04-.04.35.06.42-.01.03-.03.3-.54.35-.6.06-.06.24,0,.28-.03.08-.08-.03-.69.02-.74.04-.04.39.04.43,0,.04-.04-.06-.36,0-.42.04-.05.29.06.32-.06.03-.13-.05-.55,0-.58.04-.04.39.04.43,0,.04-.04-.06-.36,0-.42.04-.04.26.03.3-.01.08-.08-.06-.65.03-.73.04-.03.23.03.28-.03.06-.06,0-.25.03-.28.07-.07.37.02.42-.01.05-.04-.06-.67.01-.74.05-.04.29.06.31-.07.04-.18-.06-.96,0-1.01.04-.04.39.04.43,0,.05-.05-.06-.67.01-.74.05-.04.29.06.31-.07.05-.26-.07-.69-.01-.95.03-.13.31.01.33-.12.04-.18-.06-.96,0-1.01.04-.04.39.04.43,0,.07-.06-.07-1.21,0-1.44.03-.12.33-.04.33-.06v-5.44s.43.02.43,0v-15.25s-.43.02-.43,0v-2.56s.36.05.42-.01c.04-.04-.03-.23.03-.28.06-.06.25,0,.28-.03.07-.07-.04-.33.03-.41.04-.04.23.02.28-.03.06-.06,0-.25.03-.28.07-.08.52.02.68,0,.12-.02.02-.27.06-.32.07-.06.38.03.42,0,.04-.03-.04-.39,0-.43.04-.04.45.03.58,0,.12-.02.02-.27.06-.32.07-.06.38.03.42,0,.04-.04-.06-.35.01-.42.04-.04.23.03.28-.03.06-.06,0-.25.03-.28.08-.09.64.06.73-.03.03-.04-.03-.23.03-.28.06-.06.25,0,.28-.03.07-.07-.03-.38.01-.42.04-.04.35.06.42-.01.04-.04-.03-.23.03-.28s.25,0,.28-.03c.07-.07-.03-.38.01-.42.04-.04.35.06.42-.01.03-.03.3-.54.35-.6.06-.06.24,0,.28-.03.07-.07-.03-.38.01-.42.04-.04.35.06.42-.01.04-.04-.03-.23.03-.28.06-.06.25,0,.28-.03.07-.07-.03-.38.01-.42.04-.04.35.06.42-.01.03-.03.3-.54.35-.6.06-.06.24,0,.28-.03.08-.08-.03-.69.02-.74.04-.04.39.04.43,0,.04-.04-.06-.35.01-.42.04-.04.23.03.28-.03.06-.06,0-.25.03-.28.14-.14.58.31.42-.76.95-.17.53.32.64.43.04.04.39-.04.43,0,.04.04-.03.45,0,.58.02.12.27.02.32.06.06.07-.03.38,0,.42.03.04.39-.04.43,0,.05.05-.07.66.02.74.04.03.23-.03.28.03.06.06,0,.25.03.28.07.07.33-.04.41.03.04.04-.02.23.03.28.06.06.25,0,.28.03.08.07-.02.52,0,.68.02.12.27.02.32.06.06.07-.03.38,0,.42.04.04.35-.06.42.01.04.04-.03.23.03.28.06.06.25,0,.28.03.08.08-.03.69.02.74.04.04.35-.06.42.01.04.04-.03.23.03.28.06.06.25,0,.28.03.07.07-.04.33.03.41.04.04.23-.02.28.03.06.06,0,.25.03.28.07.07.33-.04.41.03.04.04-.02.23.03.28.06.06.25,0,.28.03.07.07-.03.38.01.42.04.04.35-.06.42.01.04.04-.03.23.03.28.06.06.25,0,.28.03.07.07-.04.33.03.41.04.04.23-.02.28.03s0,.25.03.28c.07.07.33-.04.41.03.04.04-.02.23.03.28.06.06.25,0,.28.03.07.07-.03.38.01.42.04.04.35-.06.42.01.04.04-.03.23.03.28.06.06.25,0,.28.03.07.07-.04.33.03.41.04.04.23-.02.28.03s0,.25.03.28c.07.07.33-.04.41.03.04.04-.02.23.03.28.06.06.25,0,.28.03.07.07-.02.37.01.42.04.05.66-.07.74.02.03.04-.03.23.03.28.06.06.25,0,.28.03.07.07-.03.38.01.42.04.04.35-.05.42,0,.05.04-.06.29.06.32.16.03.61-.07.68,0,.03.04-.03.23.03.28.06.06.25,0,.28.03.07.07-.04.33.03.41.04.04.23-.02.28.03.06.06,0,.25.03.28.08.08.69-.03.74.02.04.04-.04.39,0,.43.05.05.66-.07.74.02.03.04-.03.22.03.28.05.05.22,0,.27.05.06.06-.03.28.08.3.14.03.65-.05.69,0,.04.04-.04.39,0,.43.05.05.67-.06.74.01.04.05-.06.29.06.31Z"/>
      <path class="cls-1" d="M81.98,68.54c-.04-.22.06-1.28,0-1.33-.04-.04-.39.04-.43,0-.05-.05.05-.92,0-1.11-.02-.12-.27-.02-.32-.06-.08-.08.05-.55-.03-.63-.04-.04-.26.03-.3-.01-.06-.07.03-.38,0-.42-.03-.04-.39.04-.43,0-.05-.05.07-.66-.02-.74-.04-.03-.23.03-.28-.03-.06-.06,0-.25-.03-.28-.07-.07-.33.04-.41-.03-.04-.04.02-.23-.03-.28s-.25,0-.28-.03c-.07-.07.04-.33-.03-.41-.04-.04-.23.02-.28-.03-.06-.06,0-.25-.03-.28-.07-.07-.38.03-.42-.01s.06-.35-.01-.42c-.04-.04-.23.03-.28-.03-.06-.06,0-.25-.03-.28-.08-.09-.65.05-.73-.03-.04-.05.06-.29-.06-.31-.14-.03-.65.05-.69,0-.04-.04.04-.39,0-.43-.05-.06-.97.07-1.06-.01-.04-.04,0-.31,0-.31h-1.49s.03-.4,0-.43c-.09-.09-2.22.07-2.56,0-.02.1.03.4,0,.43-.05.06-1.11-.05-1.33,0-.12.02-.02.27-.07.31-.07.07-.69-.04-.74.01-.04.04.04.39,0,.43-.04.04-.55-.04-.69,0-.12.02-.02.27-.06.31-.08.08-.65-.06-.73.03-.03.04.03.23-.03.28-.06.06-.25,0-.28.03-.07.07.04.33-.03.41-.04.04-.23-.02-.28.03-.06.06,0,.25-.03.28-.07.07-.38-.03-.42.01-.04.04.06.35-.01.42-.04.04-.23-.03-.28.03-.06.06,0,.25-.03.28-.07.07-.33-.04-.41.03-.04.04.02.23-.03.28-.06.06-.25,0-.28.03-.07.07.04.34-.03.41-.04.04-.26-.02-.29.01-.08.07.04.69-.01.74-.04.04-.39-.04-.43,0-.05.04.06.56-.01.63-.04.04-.29-.06-.31.06-.03.14.05.65,0,.69-.04.04-.39-.04-.43,0-.14.13.3,1.19-.33,1.13v3.93c.63-.06.18.99.33,1.13.04.04.39-.04.43,0,.04.04-.04.55,0,.69.02.12.27.02.31.06.07.07-.04.69.01.74.04.04.39-.04.43,0,.05.04-.06.56.01.63.04.04.26-.03.3.01.06.07-.04.34.03.41.04.04.23-.02.28.03.06.06,0,.25.03.28.07.07.38-.03.42.01s-.06.35.01.42c.04.04.23-.03.28.03.06.06,0,.25.03.28.07.07.33-.04.41.03.04.04-.02.23.03.28.06.06.25,0,.28.03.07.07-.02.37.01.42.04.05.66-.07.74.02.03.04-.03.23.03.28.06.06.25,0,.28.03.07.07-.02.37.01.42.04.05.83-.04,1.01,0,.13.03-.01.31.12.33.46.09,1.15-.28,1.17.32h3.83c.13-.03-.01-.31.12-.33.38-.07,1,.09,1.38.01.12-.02.02-.27.07-.31.07-.07.69.04.74-.01.04-.04-.04-.39,0-.43.04-.05.56.06.63-.01.04-.04-.03-.26.01-.3.07-.06.38.03.42,0,.04-.03-.04-.39,0-.43.05-.05.66.07.74-.02.03-.04-.03-.22.03-.28.13-.12.2-.19.32-.32.06-.06.24,0,.28-.03.07-.07-.03-.38.01-.42.04-.04.35.06.42-.01.04-.04-.03-.23.03-.28.06-.06.25,0,.28-.03.08-.08-.03-.69.02-.74.04-.04.35.06.42-.01.04-.04-.03-.23.03-.28.06-.06.25,0,.28-.03.09-.08-.05-.65.03-.73.04-.04.26.02.3-.01.07-.07-.04-.69.01-.74.04-.04.39.04.43,0,.06-.06-.06-1.48,0-1.75.03-.13.31.01.33-.12.05-.24.05-2.2,0-2.44-.03-.13-.31.01-.33-.12Z"/>
      <path class="cls-1" d="M92.13,47.11c.02-.13.02-.82,0-.95-.03-.13-.31.01-.33-.12-.04-.22.06-1.28,0-1.33-.04-.04-.39.04-.43,0-.05-.05.05-.92,0-1.11-.02-.11-.25-.02-.31-.08-.06-.06,0-.25-.03-.28-.07-.07-.37.02-.42-.01-.05-.04.07-.66-.02-.74-.04-.03-.22.03-.28-.03-.05-.05,0-.22-.05-.27-.06-.06-.24,0-.28-.03-.07-.07.03-.38-.01-.42s-.35.06-.42-.01c-.04-.04.03-.22-.03-.28-.05-.05-.22,0-.27-.05-.06-.06,0-.24-.03-.28-.08-.08-.69.03-.74-.02-.04-.04.04-.39,0-.43-.04-.04-.55.04-.69,0-.12-.02-.02-.27-.06-.31-.07-.07-.69.04-.74-.01-.04-.04.03-.39,0-.43-.15-.16-3.72.12-4.26,0,.18.75-.61.31-1.11.42-.11.02-.02.25-.08.31-.06.06-.25,0-.28.03-.07.07.02.37-.01.42-.04.04-.55-.04-.69,0-.11.02-.02.24-.08.3-.05.05-.22,0-.27.05-.06.06,0,.24-.03.28-.07.07-.38-.03-.42.01-.04.04.06.35-.01.42-.04.04-.22-.03-.28.03-.05.05,0,.22-.05.27-.06.06-.24,0-.28.03-.07.07.02.38-.01.42-.03.04-.39-.04-.43,0-.05.04.06.56-.01.63-.04.04-.29-.06-.31.06-.03.14.05.65,0,.69-.04.04-.39-.04-.43,0-.05.05.07.98-.01,1.06-.05.04-.29-.06-.31.07-.05.23-.05,2.21,0,2.44.03.13.31-.01.33.12.05.23-.07,1.38,0,1.43.04.04.39-.04.43,0,.04.04-.04.55,0,.69.02.12.27.02.31.06.07.07-.03.59.01.63.04.04.39-.04.43,0,.04.04-.06.35.01.42.04.04.22-.03.28.03.05.05,0,.22.05.27.06.06.24,0,.28.03.07.07-.03.38.01.42.04.04.35-.06.42.01.04.04-.03.22.03.28.05.05.22,0,.27.05.06.06,0,.24.03.28.08.08.69-.03.74.02.04.04-.04.39,0,.43.05.05.67-.06.74.01.04.05-.06.29.06.31.44.09.8-.28.69.42h4.26c-.2-.76.58-.27.74-.44.04-.05-.06-.29.06-.31.14-.03.65.05.69,0,.04-.04-.04-.39,0-.43.05-.05.66.07.74-.02.03-.04-.03-.22.03-.28.05-.05.22,0,.27-.05.06-.06,0-.24.03-.28.07-.07.38.03.42-.01s-.06-.35.01-.42c.04-.04.22.03.28-.03.05-.05,0-.22.05-.27.06-.06.24,0,.28-.03.08-.08-.03-.69.02-.74.04-.04.39.04.43,0,.05-.05-.06-.67.01-.74.05-.04.29.06.31-.06.03-.14-.05-.65,0-.69.04-.04.39.04.43,0,.06-.06-.06-1.48,0-1.75.03-.13.31.01.33-.12Z"/>
      <path class="cls-1" d="M65.99,33.74c.08.08-.06.65.03.73.04.04.26-.03.3.01.06.07-.03.38,0,.42.04.04.35-.06.42.01.04.04-.03.23.03.28s.25,0,.28.03c.07.07-.03.38.01.42.04.04.35-.06.42.01.04.04-.03.22.03.28.05.05.22,0,.27.05.06.06,0,.24.03.28.16.17.94-.31.74.44h3.62c-.11-.7.25-.33.69-.42.11-.02.02-.24.08-.3.05-.05.22,0,.27-.05.06-.06,0-.24.03-.28.08-.08.69.03.74-.02.04-.04-.06-.35.01-.42.04-.04.23.03.28-.03s0-.25.03-.28c.07-.07.37.02.42-.01.05-.04-.06-.67.01-.74.05-.04.29.06.31-.06.09-.44-.28-.8.42-.69v-2.88c-.7.11-.33-.25-.42-.69-.02-.12-.27-.02-.31-.06-.07-.07.04-.7-.01-.74-.04-.04-.35.06-.42-.01-.04-.04.03-.23-.03-.28-.06-.06-.25,0-.28-.03-.07-.07.04-.33-.03-.41-.04-.04-.23.02-.28-.03-.06-.06,0-.25-.03-.28-.08-.09-.65.05-.73-.03-.04-.05.06-.29-.07-.31-.19-.04-1.07.06-1.11,0-.04-.04.03-.39,0-.43-.1-.11-2.51.08-2.88,0,.11.7-.25.33-.69.42-.12.02-.02.27-.06.32-.08.08-.55-.05-.63.03-.04.04.03.26-.01.3-.07.06-.38-.03-.42,0-.04.04.06.35-.01.42-.04.04-.23-.03-.28.03-.06.06,0,.25-.03.28-.07.07-.38-.03-.42.01-.04.04.05.35,0,.42-.04.05-.29-.06-.32.06-.04.2.07.92,0,1-.05.05-.29-.06-.31.07-.06.28-.06,2.8,0,3.08.02.12.27.02.31.07Z"/>
    </g>
  </g>
</svg>