<?xml version="1.0" encoding="UTF-8"?>
<svg id="Capa_2" data-name="Capa 2" xmlns="http://www.w3.org/2000/svg" viewBox="0 0 107.39 127.08">
  <defs>
    <style>
      .cls-1 {
        fill: #2d7ce6;
      }
    </style>
  </defs>
  <g id="Capa_1-2" data-name="Capa 1">
    <g>
      <path class="cls-1" d="M82.65,105.6c-.19.13-.54.74-.78.91-1.5,1.13-2.83,2.34-4.12,3.39-1.96,1.59-4.65,3.17-6.69,4.06-1.38.61-2.96.88-4.47,1.27-.18.05-.07.37-.45.42-1.19.16-2.7-.13-3.96.21-7.64.08-15.23-4.15-18.57-10.97-.41-.84-.45-1.52-.64-2.4-.04-.16-.38-.05-.43-.44-.15-1.16.42-2.57-.76-3.43l-31.42-.36c-.02-1.86.05-3.72.02-5.58-.25-13.81-.24-27.81-.23-41.74.01-10.09-.38-20.67,0-30.73.04-1.04.08-2.81.2-3.74.05-.38.38-.26.43-.45.07-.27-.09-.58.06-.84,1.05-1.88,2.85-3.12,4.56-4.02.97-.51,2.19-.81,3.39-1.01,17.76.16,35.58-.35,53.3.26,1.52.63,3.52,1.25,4.75,2.52,1.66,1.71,2.35,3.55,3.12,5.61v13.88c.03.16,1.98,2.3,2.12,2.37,1.02.47,3.07.8,4.15.47.08-.03,1.17-.72,1.35-.81.26-.13.56-.08.82-.28.31-.24,1.23-1.91,1.28-2.35-.47-5.97,1.19-14.08-1.16-19.35-2.3-5.16-7.18-9.68-12.48-11.45-1.57-.53-3.56-.48-4.67-.99l-54.85-.06C9.54,1.26,2.88,6.31,1.04,13.34c-.04.17-.37.14-.4.29-.23.95-.08,2.21-.64,3.28v91.99c.59,2.6.8,4.76,1.76,6.96,1.38,3.16,3.56,5.57,6.26,7.56.23.17.67.86.76.9.31.17.83-.05.97.08.06.06-.05.39.07.54.13.15,3.24,1.42,3.59,1.5.87.2,1.29-.31,2.06.65h52.34c.8-1.07,1.47-.42,2.44-.65.46-.11,3.2-1.7,3.85-2.05,6.11-2.82,10.14-10.1,9.79-16.74-.04-.76-.15-2.81-1.24-2.05ZM43.41,116.12c-.34.54-1.49.49-1.93.61-.59.16-1.08.51-1.7.58-1.95.23-5.28-.18-7.22-.64-.12-.03-1.78-1.47-1.81-1.59-.16-.67.06-1.33.49-1.84.71-.86.64-.51,1.43-.72.18-.05.14-.37.29-.41,1.06-.25,7.07-.32,7.9.06.05.02.05.31.2.34.35.08,1.16-.1,1.29.04.06.06-.05.4.07.54.05.06.65.14.9.55.49.78.59,1.68.09,2.48Z"/>
      <path class="cls-1" d="M103.7,43.92c-.53-.68-2.63-3.02-3.55-3.23-.26-.06-.77.08-.88-.03-.07-.07.05-.51-.02-.58-.11-.1-.62.04-.88-.02-.15-.04-.15-.33-.2-.35-5.17-1.42-8.89-.95-12.28,3.27-1.8,2.24-4.69,8.48-5.47,11.35-.1.36-.47,1.51-.48,1.6-.08.62-.1,4.04.02,4.54.04.16.37.13.41.28.3,1.33.49,2.38,1.33,3.52.23.32,1.33,1.04,1.37,1.12.26.45-.36.37-.41.55-.22.82-.37,1.72-.68,2.51-.03.08-.94.66-.98.83-.07.25.1.73-.03.87-.06.06-.39-.05-.54.07-.15.12-.49,1.23-.59,1.38-2.68,3.95-5.34,7.67-8.47,11.04-.56.6-1.22,1.99-2.31,1.87-.32-.04-1.69-1.85-2.92-2.09-.62-.12-5.2-.13-5.76,0-.15.04-.16.33-.3.39-3.89,1.61-4.28,3.85-6.96,6.6-.09.09-.51.16-.83.49-.16.18-.11.49-.2.56-.14.12-.48,0-.54.07-.16.16.1.84-.06,1-.06.06-.4-.05-.54.07-.1.09-1.36,1.97-1.43,2.1-.2.39-1.08,2.22-1.11,2.35-.26,1.14-.26,3.98,0,5.11.04.16.38.13.41.28.48,2.22.37,1.56,1.61,3.24.13.17,0,.55.12.71.78.97,4.38,3.64,5.49,3.97.58.17,1.02.3,1.47.44,8.46,2.73,16.66-2.44,22.48-7.73,4.71-4.27,9.45-9.79,13.42-15.39.48-.67,1.05-1.44,1.52-2.15.11-.17.57-1.37.68-1.46.14-.12.48,0,.54-.07.12-.13-.03-.61.04-.87.04-.16.84-.64.97-.84.06-.08.35-1.19.53-1.34.14-.12.48,0,.54-.07.13-.13-.04-.62.02-.87.02-.09.84-1.03,1.02-1.36.87-1.58,1.59-3.14,2.33-4.65.08-.16.36-.15.4-.31.06-.26-.08-.77.03-.88.07-.07.51.05.58-.02.11-.11-.04-.62.02-.88.1-.41,1.15-2.01,1.43-2.6,1.12-2.38,1.62-4.14,2.32-6.53,1.85-6.24,1.47-12.65-2.64-17.89Z"/>
      <path class="cls-1" d="M67.77,59.57c.65-.03,3.19-.68,3.6-1.09.1-.1.04-.36.13-.48.1-.14.35-.17.43-.3.07-.11.52-.9.53-.96.69-3.11.47-5.96,0-9.1-.08-.53.08-1.12-.01-1.65-.16-.9-1.1-2.08-1.8-2.6-1.55-.08-3.03-.49-4.6-.65-.16-.19.09-1.84-.03-2.33-.31-1.29-1.3-2.83-2.05-4.05-1.32-2.15-1.96-3.26-4.24-4.4-.13-.06-.11-.37-.29-.41-.26-.06-.77.08-.88-.02-.07-.07.05-.51-.02-.58-.11-.11-.62.04-.88-.02-.53-.13-2.22-1.27-2.98-1.45-1.12-.25-2.77-.08-3.91-.21-.93-.11-1.78-.54-2.78-.44-.19-.48-.38-1.23-.21-1.71.1-.27.49-.28.55-.38.16-.28-.07-.67.09-.95.04-.07.96-1.11.98-1.23.2-.9.25-3.19,0-4.06-.05-.17-.31-.16-.39-.32-.13-.26-.08-.56-.28-.82-.3-.39-1.79-1.06-2.29-1.3-.12-.06-.13-.33-.19-.36-.26-.11-3.37-.13-3.75-.05-.15.03-.69.9-.83.98-.24.13-.59,0-.74.08-.13.08-.13.61-.26.84-.12.2-.83.93-.88,1.04-.27.68-.21,2.74-.05,3.51.24,1.19,4.14,4.7.83,5.16-1.45.2-4.01-.1-5.35.23-.16.04-.13.37-.28.41-3.3.73-4.6,1.22-7.04,3.4-.64.57-3.06,3.19-3.2,3.81-.06.26.08.77-.02.88-.07.07-.51-.05-.58.02-.1.11.04.62-.02.88-.03.12-.77,1.8-.81,1.96-.08.36-.17,1.79-.25,1.89-.15.18-1.53.22-1.89.29-.28.06-.55.29-.89.35-.47.1-1.07-.12-1.5.07-.05.02-.07.27-.2.36-.19.12-.5.12-.63.25-.41.41-.55,1.22-.72,1.66-.14.34-.44.58-.53.93-.29,1.23-.15,8.81.18,10.08.04.17.32.13.39.31.08.2-.05.53.06.83.03.07.97,1.01,1.03,1.03.54.21,1.96.65,2.54.68.32.02.65-.2,1.01-.19,2.61.12,1.42,1.61,1.79,3.16.05.2,1.41,2.86,1.67,3.3.92,1.54,3.83,4.35,5.54,4.89.39.12.81-.03,1.16.05.16.04.13.37.28.41,3.55.81,13.32.34,17.41.22,1.81-.05,3.66-.26,5.22-.63.97-.23.96.07,2.09-.41,1.19-.5,2-.95,3.11-1.32.08-.03.84-.9,1.08-1.12,2.4-2.24,3.59-4.74,4.78-7.49.11-.25-.1-.78.21-1.01.33-.24,1.05.13,1.54.11ZM40.29,50.38c-.1.43.1.97,0,1.37-.1.38-1.54,1.16-1.61,1.24-.13.15.05.55-.17.59-.22.04-.52-.07-.77-.01-.18.04-.06.38-.44.43-.46.06-2.25.07-2.67-.03-.07-.01-.87-.79-1.03-.89-.2-.12-.68-.07-.75-.17-.1-.13.04-.48-.04-.63-.12-.24-1-1.47-1.02-1.56-.07-.31-.07-1.48,0-1.79.04-.17.35-.16.41-.29.22-.45.98-2.01,1.29-2.3.2-.18.59-.14.83-.27.15-.08.16-.36.31-.39.35-.08,2.64-.06,2.91.06.05.03.04.3.2.34.73.17,1.05-.1,1.77.62.63.63.57,1.28.79,1.93.07.2.36.08.42.45.18,1.2-.4,1.16-.43,1.3ZM56.76,51.65c-.04.11-1.46,1.81-1.57,1.86-.28.13-.57-.01-.84.06-.18.05-.14.37-.29.41-.36.09-2.25.08-2.67.02-.39-.05-.26-.39-.44-.43-.27-.06-.75.09-.88-.03-.06-.06.05-.4-.07-.54-.4-.49-.51.06-1.19-1.36-.06-.13-.37-.12-.41-.29-.25-1.12.02-3.06.64-4.04.31-.49.91-.57.96-.64.12-.14,0-.48.07-.54.13-.12.61.03.88-.03.16-.04.13-.37.29-.41.33-.08,2.66-.06,2.92.06.05.03.04.31.2.35.27.06.75-.09.88.03.06.06-.05.4.07.54.07.09.39.04.56.2.32.3.44.81.48.84.15.13.54-.04.59.17.15.7.1,3.09-.16,3.79Z"/>
    </g>
  </g>
</svg>