<?xml version="1.0" encoding="UTF-8"?>
<svg id="Capa_2" data-name="Capa 2" xmlns="http://www.w3.org/2000/svg" viewBox="0 0 107.04 132.43">
  <defs>
    <style>
      .cls-1 {
        fill: #2b7ee7;
      }
    </style>
  </defs>
  <g id="Capa_1-2" data-name="Capa 1">
    <g>
      <path class="cls-1" d="M100.33,45.63c-.11-.09,0-.38-.03-.44H6.74c.22,1.51-.29,3.83-.01,5.23.04.19.45-.02.49.17l-.02,5.93.49.17-.02,5.77.49.17-.02,6.24c.04.19.45-.02.49.17.29,1.46-.31,3.99-.02,5.46.04.19.45-.02.49.17l-.02,6.55c.04.19.45-.02.49.17.27,1.38-.29,3.76-.02,5.14.04.19.45-.02.49.17.15.77-.24,5.96-.01,6.17.06.05.57-.06.63,0,.22.21-.17,5.4-.01,6.17l.49.17-.02,5.61.49.17-.02,6.08c.04.19.45-.02.49.17.27,1.38-.29,3.76-.02,5.14.04.19.45-.02.49.17.15.76-.17,2.04-.02,2.8.04.19.45-.02.49.17.07.35-.09.89-.02,1.24.04.18.4.03.46.1.11.11-.08.81.04.92.06.06.38-.04.43.02.11.11-.08.8.04.91.05.05.33-.04.41.05.07.08,0,.32.07.4.08.09.36,0,.41.05.13.12-.07.8.04.91.06.06.43-.08.46.09.05.24-.1.89.01.99.05.05.33-.04.41.04.08.08-.01.36.05.42.11.1.49-.06.59.04.06.05-.03.33.05.41.68.67,1.58,1.28,2.28,1.95.09.08,0,.36.05.41.12.13.79-.08.91.05.05.05-.04.32.05.41.04.04.83.5.87.54.09.08,0,.36.05.41.11.12.86-.05.92.02.05.06-.06.57,0,.63.07.07.98-.09,1.09.02.07.07-.08.43.1.46.34.07.89-.09,1.24-.02.19.04-.02.45.17.49.35.07.89-.09,1.24-.02.19.04-.02.45.17.49.59.12,1.58-.14,2.18-.02.19.04-.02.45.17.49h50.52c.19-.04-.02-.45.17-.49.72-.14,1.93.16,2.65.02.19-.04-.02-.45.17-.49.39-.08,1.01.1,1.39.02.18-.04.03-.4.1-.46.11-.11.81.08.92-.04.07-.06-.08-.43.1-.46.24-.05,1.26.08,1.32.01.06-.06-.09-.51.02-.61.06-.05.33.04.42-.04.08-.08,0-.36.04-.42.12-.13.79.08.91-.05.05-.05-.04-.33.05-.41.08-.07.32,0,.4-.07.1-.09-.04-.41.12-.45.24-.05.88.1.99-.01.05-.05-.04-.32.05-.41,1.14-1.09,2.19-2.14,3.29-3.28.08-.09.36,0,.41-.05.13-.12-.08-.95.04-1.07.06-.06.38.04.43-.02.11-.11-.08-.81.04-.92.06-.06.38.04.43-.02.1-.1-.05-.87.02-.93.06-.05.57.06.63,0,.07-.06-.09-.82.02-.93.07-.07.43.08.46-.1.06-.28-.1-1.2,0-1.31.07-.07.43.08.46-.1.13-.63-.15-1.7-.02-2.33.04-.19.45.02.49-.17.25-1.25-.27-3.42-.02-4.67.04-.19.45.02.49-.17l-.02-6.08c.04-.19.45.02.49-.17.26-1.34-.28-3.65-.02-4.99.04-.19.45.02.49-.17l-.02-6.71.49-.17-.02-6.08.49-.17-.02-6.08c.04-.19.45.02.49-.17.27-1.38-.29-3.76-.02-5.14.04-.19.45.02.49-.17l-.02-5.61.49-.17-.02-5.61.49-.17c.14-.71-.22-5.5-.01-5.7.06-.05.57.06.63,0,.22-.21-.17-5.4-.01-6.17l.49-.17-.02-5.61c.04-.19.46.02.49-.17.21-1.12-.29-.74-.45-.88ZM37.05,109.71s-.82.5-.86.54c-.1.09.04.41-.12.44-.25.05-2.54.05-2.8,0-.18-.04-.03-.4-.1-.46-.11-.11-.86.05-.93-.02-.07-.07.09-.81-.02-.92-.05-.05-.33.04-.41-.05-.07-.08,0-.32-.07-.4-.09-.1-.41.04-.45-.12-.18-.85.19-2.39.02-3.27-.04-.19-.45.02-.49-.17l.02-5.61-.49-.17.02-5.61-.49-.17.02-6.08-.49-.17.02-6.08-.49-.17.02-6.08-.49-.17c-.15-.77.24-5.96.01-6.17-.05-.04-.48.03-.63,0,.1-.49-.14-3.62,0-3.75.05-.05.57.05.63,0,.06-.06-.06-.8-.01-1.01.03-.16.35-.02.45-.12.21-.22.25-.26.47-.47.09-.08,0-.36.05-.41.12-.13.8.07.91-.04.06-.06-.08-.43.09-.46.19-.04,1.52-.04,1.71,0,.16.03.02.35.12.45.08.07.32,0,.4.07.09.08,0,.36.05.41.11.12.85-.05.92.02.06.06-.06.88,0,.94.06.05.57-.06.63,0,.17.16-.4,1.23.48,1.18l-.02,5.61.49.17-.02,6.55.49.17-.02,5.61.49.17-.02,6.08.49.17-.02,5.61.49.17-.02,6.08.49.17v7.02c-.65.05-.39.39-.52.52ZM55.83,109.71s-.82.5-.86.54c-.1.09.04.41-.12.44-.24.05-2.39.05-2.64,0-.18-.04-.03-.4-.1-.46-.1-.11-.76.04-1,0-.16-.03-.02-.35-.12-.45-.22-.21-.26-.25-.47-.47-.08-.09-.36,0-.41-.05-.28-.26.46-2.03-.5-1.95v-42.19c.84-.08.35-.52.47-1.09.03-.16.35-.02.45-.12.21-.22.25-.26.47-.47.09-.08,0-.36.05-.41.12-.13.95.08,1.07-.04.07-.07-.08-.43.1-.46.21-.04,2.17-.05,2.25.03.06.06-.04.38.02.43.1.1.63-.04.84,0,.16.03.02.36.11.45.08.08.36,0,.42.04.21.2-.36,1.01.5,1.01v44.69c-.65.05-.39.39-.52.52ZM78.57,72.15l-.49.17.02,7.02-.49.17.02,6.08-.49.17.02,5.61-.49.17.02,5.61-.49.17.02,5.61c-.04.19-.45-.02-.49.17-.13.69.19,4.6.01,4.76-.06.05-.57-.06-.63,0-.07.06.06,1.07.01,1.32-.04.18-.4.03-.46.1-.11.11.05.86-.02.93-.07.07-.82-.09-.93.02-.07.07.08.43-.1.46-.28.06-2.84.06-3.11,0-.16-.03-.02-.35-.12-.45-.08-.07-.32,0-.4-.07-.09-.08,0-.36-.05-.41-.1-.11-.55.03-.61-.02-.07-.06.09-.82-.02-.93-.07-.07-.43.08-.46-.1-.08-.42-.08-4.25,0-4.67.04-.19.45.02.49-.17.15-.77-.24-5.96-.01-6.17.06-.05.57.06.63,0,.26-.24-.19-6.23-.01-7.11l.49-.17-.02-6.39.49-.17-.02-6.24.49-.17-.02-6.71c.04-.19.45.02.49-.17.26-1.34-.28-3.65-.02-4.99.04-.19.45.02.49-.17.06-.29-.11-1.35.01-1.46.05-.05.32.04.41-.05.2-.21.26-.27.47-.47.09-.08,0-.36.05-.41.12-.13.8.07.91-.04.07-.06-.08-.43.1-.46.19-.04,1.87-.04,1.94.03.07.07-.08.43.1.46.25.05,1.25-.08,1.32-.01.07.07-.09.81.02.92.05.05.33-.04.41.05.12.13-.14.47.52.52v7.64Z"/>
      <path class="cls-1" d="M107.04,31.35v-8.74c-.9-.04-.33-1.19-.47-1.88-.04-.18-.4-.03-.46-.1-.11-.11.08-.81-.04-.92-.06-.06-.38.04-.43-.02-.1-.1.05-.87-.02-.93-.06-.06-.51.09-.61-.02-.04-.04-.44-.79-.52-.88-.09-.09-.36,0-.41-.05-.11-.1.03-.55-.02-.61-.05-.05-.67.05-.85.01-.18-.03-.03-.4-.09-.46-.11-.11-.79.08-.92-.04-.06-.06.01-.45-.01-.45h-23.16V7.67s-.43.09-.48-.08c-.11-.4.11-1.25.02-1.71-.04-.18-.4-.03-.46-.1-.1-.1.04-.76,0-1-.04-.18-.4-.03-.46-.09-.11-.11.08-.79-.04-.91-.05-.05-.32.04-.41-.05-.48-.5-.92-.93-1.41-1.41-.09-.08,0-.36-.05-.41-.11-.1-.49.06-.59-.05-.06-.05.03-.33-.05-.41-.08-.08-.32,0-.4-.07-.09-.08,0-.36-.05-.41-.12-.13-.8.07-.91-.04-.06-.06.08-.43-.09-.46-.64-.13-1.35.4-1.41-.47h-38.48c-.05.87-.77.34-1.41.47-.18.04-.03.4-.1.46-.11.11-.8-.08-.91.04-.05.05.04.32-.05.41-.82.79-1.56,1.52-2.35,2.35-.08.09-.36,0-.41.05-.12.11.05.86-.02.92-.06.05-.57-.06-.63,0-.08.08.1,1.42-.02,1.55-.06.07-.41-.02-.45.01v10H4.39s.05.39-.01.45c-.14.12-.95-.09-1.07.04-.05.05.04.33-.04.41-.08.08-.36-.01-.42.04-.11.1.03.55-.02.61-.06.07-.81-.09-.92.02-.05.05.04.32-.05.41-.21.21-.26.26-.47.47-.08.09-.36,0-.41.05-.13.12.07.8-.04.91-.06.06-.43-.08-.46.09-.13.64.4,1.35-.47,1.41v13.27c.89-.02.27.95.5,1.16.05.05.33-.04.41.05.07.08,0,.32.07.4.08.09.36,0,.41.05.13.12-.08.79.05.91.05.05.32-.04.41.05.21.21.26.26.47.47.09.08,0,.36.05.41.12.13.8-.07.91.04.06.06-.04.38.02.43.22.22,1.2-.39,1.17.5h97.62c.1-.81.38-.36.94-.47.18-.03.03-.4.09-.46.11-.11.8.08.91-.04.05-.05-.04-.32.05-.41.04-.04.83-.5.87-.54.09-.09,0-.36.05-.41.1-.11.55.03.61-.02.07-.06-.09-.82.02-.93.07-.07.43.08.46-.09.05-.24-.1-.9,0-1,.07-.07.43.08.46-.1.16-.79-.18-2.16-.02-2.96.04-.19.45.02.49-.17ZM67.45,16.27h-28.01v-5.32h28.01v5.32Z"/>
    </g>
  </g>
</svg>