<?xml version="1.0" encoding="UTF-8"?>
<svg id="Capa_2" data-name="Capa 2" xmlns="http://www.w3.org/2000/svg" viewBox="0 0 108.19 114.59">
  <defs>
    <style>
      .cls-1 {
        fill: #3e8cf5;
      }
    </style>
  </defs>
  <g id="Capa_1-2" data-name="Capa 1">
    <path class="cls-1" d="M107.93,41.65c-.16-1.32.13-2.99.02-4.35-.03-.14-.33.01-.36-.13-.11-.55.12-1.5.02-2.05-.03-.14-.33.01-.36-.13-.07-.35.07-.89.02-1.26-.03-.21-.21-.15-.24-.24-.08-.32.07-.81,0-1.12-.03-.14-.33.01-.36-.13-.05-.25.05-.64.02-.92-.03-.21-.21-.15-.24-.24-.06-.24.05-.55,0-.78-.03-.14-.33.01-.36-.12-.04-.19.07-.77,0-.85-.05-.05-.31.06-.34-.07-.04-.19.04-.48.02-.69-.03-.21-.21-.15-.24-.24-.05-.2.06-.76-.02-.83-.04-.04-.28.03-.32-.01-.08-.08.06-.59-.03-.67-.04-.04-.28.03-.32-.01-.07-.07.03-.63-.02-.83-.02-.09-.2-.07-.23-.16-.04-.15.04-.43-.01-.49-.04-.04-.28.03-.32-.01-.08-.08.05-.48-.02-.56-.04-.04-.28.03-.32-.01-.06-.06.03-.43-.01-.6-.02-.08-.2-.07-.23-.16-.04-.15.04-.43-.01-.49-.04-.04-.28.03-.32-.01-.08-.08.05-.48-.02-.56-.04-.04-.28.03-.32-.01-.06-.06.03-.43-.01-.6-.02-.08-.2-.07-.23-.16-.04-.15.05-.42-.02-.48-.04-.04-.24.03-.3-.03-.05-.06,0-.24-.05-.29-.06-.06-.27,0-.3-.03-.07-.07.02-.34-.02-.48-.02-.09-.2-.07-.23-.16-.04-.15.05-.42-.02-.48-.04-.04-.24.03-.3-.03-.05-.06,0-.24-.05-.29-.06-.06-.27,0-.3-.03-.03-.04-.06-.7-.27-.88-.08-.07-.26,0-.3-.04-.08-.08.02-.36,0-.5-.02-.12-.24-.02-.32-.09-.21-.18-.24-.84-.28-.88-.03-.04-.24.03-.3-.04-.13-.13-.34-.36-.52-.55-.09-.1-.06-.27-.11-.31-.08-.06-.26,0-.3-.04-.09-.09.05-.47-.03-.55-.03-.03-.22.03-.3-.04-.03-.02-.24-.56-.3-.62-.06-.06-.55-.24-.61-.3-.06-.06-.24-.55-.3-.61-.09-.09-.61-.25-.63-.28-.06-.07,0-.43-.06-.64-.04-.13-.48-.27-.5-.29-.4-.47-.85-.85-1.27-1.25-.06-.06,0-.27-.04-.3-.03-.03-.63-.04-.87-.28-.06-.06-.24-.55-.3-.61-.06-.06-.55-.24-.61-.3-.06-.06-.24-.55-.3-.61-.24-.25-.84-.25-.87-.28-.04-.04-.39-.63-.59-.82-.1-.09-.27-.06-.31-.11-.06-.08,0-.26-.04-.3-.08-.08-.36.02-.5,0-.12-.02-.02-.24-.09-.32-.19-.22-.84-.24-.88-.27-.04-.03.03-.24-.03-.3-.06-.05-.24,0-.29-.05-.06-.06,0-.27-.03-.3-.04-.03-.69-.06-.88-.27-.07-.08.03-.3-.09-.32-.14-.03-.42.07-.5,0-.03-.03-.13-.45-.44-.55-.14-.05-.42.05-.48-.02-.04-.04.03-.28-.01-.32-.06-.06-.43.02-.6-.01-.08-.02-.07-.2-.16-.23-.15-.04-.43.04-.49-.01-.04-.04.03-.28-.01-.32-.08-.08-.48.05-.56-.02-.04-.04.03-.28-.01-.32-.06-.06-.43.03-.6-.01-.08-.02-.07-.2-.16-.23-.15-.04-.43.04-.49-.01-.04-.04.03-.28-.01-.32-.08-.08-.48.05-.56-.02-.04-.04.03-.28-.01-.32-.06-.06-.43.03-.6-.01-.08-.02-.07-.2-.16-.23-.15-.04-.43.04-.49-.01-.04-.04.03-.28-.01-.32-.08-.08-.48.05-.56-.02-.04-.04.03-.28-.01-.32-.07-.07-.63.03-.83-.02-.09-.02-.03-.21-.24-.24-.22-.03-.5.06-.69.02-.13-.03-.02-.29-.07-.34-.08-.08-.59.06-.67-.03-.05-.05.06-.31-.07-.34-.28-.06-.71.07-1,0-.09-.02-.03-.21-.24-.24-.31-.04-.75.07-1.03.02-.14-.03.01-.33-.13-.36-.19-.04-.77.07-.85,0-.05-.05.06-.31-.07-.34-.37-.07-.97.09-1.35,0-.09-.02-.03-.21-.24-.24-.47-.06-1.17.1-1.61.02-.14-.03.01-.33-.13-.36-.55-.11-1.5.13-2.05.02-.13-.03-.02-.29-.07-.34l-8.06-.02c-.14.03.01.33-.13.36-.65.13-1.75-.14-2.39-.02-.14.03.01.33-.13.36-.43.08-1.14-.08-1.61-.02-.21.03-.15.21-.24.24-.29.07-.72-.06-1,0-.14.03.01.33-.13.36-.31.06-.82-.08-1.13-.02-.14.03.01.33-.13.36-.29.06-.72-.06-1.03-.02-.21.03-.15.21-.24.24-.29.07-.72-.06-1,0-.13.03-.02.29-.07.34-.08.08-.59-.06-.67.03-.05.05.06.31-.07.34-.19.04-.48-.04-.69-.02-.21.03-.15.21-.24.24-.2.05-.76-.06-.83.02-.04.04.03.28-.01.32-.08.08-.48-.05-.56.02-.04.04.03.28-.01.32-.07.07-.63-.03-.83.02-.09.02-.07.2-.16.23-.15.04-.43-.04-.49.01-.04.04.03.28-.01.32-.08.08-.48-.05-.56.02-.04.04.03.28-.01.32-.06.06-.43-.03-.6.01-.08.02-.07.2-.16.23-.15.04-.43-.04-.49.01-.04.04.03.28-.01.32-.08.08-.48-.05-.56.02-.04.04.03.28-.01.32-.06.06-.43-.03-.6.01-.08.02-.07.2-.16.23-.15.04-.41-.05-.48.02-.03.03.03.22-.04.3-.18.21-.84.24-.88.28-.04.04.03.24-.03.3-.06.05-.24,0-.29.05-.06.06,0,.27-.03.3-.04.03-.7.06-.88.27-.07.08,0,.26-.04.3-.08.08-.36-.02-.5,0-.12.02-.02.24-.09.32-.18.21-.84.24-.88.28-.04.03.03.24-.04.3-.13.13-.36.34-.55.52-.1.09-.27.06-.31.11-.06.08,0,.26-.04.3-.09.09-.47-.05-.55.03-.03.03.03.22-.04.3-.02.03-.56.24-.62.3-.06.06-.24.55-.3.61-.06.06-.55.24-.61.3-.09.09-.25.61-.28.63-.07.06-.43,0-.64.06-.13.04-.27.48-.29.5-.31.27-.89.66-1.19.98-.08.08-.07.34-.31.5-.09.06-.25.03-.28.06-.1.1.06.56-.04.66-.03.03-.19,0-.28.06-.23.15-.26.46-.31.5-.18.15-.58.38-.8.61-.09.1-.06.27-.11.31-.08.06-.26,0-.3.04-.09.09.05.47-.03.55-.03.03-.22-.03-.3.04-.03.02-.24.56-.3.62-.09.09-.61.25-.63.28-.06.07,0,.43-.06.64-.04.14-.54.29-.54.32-.04.15.08.51-.01.61-.03.03-.19,0-.28.06-.47.3-.19.74-.3.86-.02.03-.63.23-.65.25-.07.08.01.33-.02.48-.02.09-.21.07-.23.16-.04.18.06.51-.02.6-.02.03-.62.23-.65.25-.08.09.02.42-.02.6-.02.08-.2.07-.23.16-.04.15.04.43-.01.49-.04.04-.28-.03-.32.01-.08.08.05.48-.02.56-.04.04-.28-.03-.32.01-.06.06.03.43-.01.6-.02.08-.2.07-.23.16-.04.15.04.43-.01.49-.04.04-.28-.03-.32.01-.07.07.02.37,0,.5-.02.13-.29.02-.34.07-.06.06.03.43-.01.6-.02.08-.2.07-.23.16-.04.15.04.43-.01.49-.04.04-.28-.03-.32.01-.09.09.06.82-.03.9-.04.04-.28-.03-.32.01-.07.07.03.63-.02.83-.02.09-.2.07-.23.16-.04.15.04.42-.01.49-.04.05-.31-.06-.34.07-.06.31.08.82.02,1.13-.03.14-.33-.01-.36.12-.04.22.06.53,0,.78-.02.09-.21.03-.24.24-.03.22.06.5.02.69-.03.14-.33-.01-.36.12-.06.31.08.82.02,1.13-.03.14-.33-.01-.36.13-.07.37.09.97,0,1.35-.02.09-.21.03-.24.24-.06.47.1,1.17.02,1.61-.03.14-.33-.01-.36.13-.12.62.14,1.66.02,2.28-.03.14-.33-.01-.36.13v8.12c.03.14.33-.01.36.13.12.62-.14,1.66-.02,2.28.03.14.33-.01.36.13.08.43-.08,1.14-.02,1.61.03.21.21.15.24.24.08.32-.07.81,0,1.12.03.14.33-.01.36.13.06.28-.07.74-.02,1.02.03.14.33-.01.36.12.04.19-.04.48-.02.69.03.21.21.15.24.24.06.24-.05.55,0,.78.03.14.33-.01.36.12.04.19-.07.77,0,.85.05.05.31-.06.34.07.04.19-.04.48-.02.69.03.21.21.15.24.24.05.2-.06.76.02.83.04.04.28-.03.32.01.08.08-.06.59.03.67.04.04.28-.03.32.01.06.06-.02.34.01.49.02.09.2.07.23.16.04.15-.04.42.01.49.04.05.32-.06.34.07.03.16-.07.55,0,.62.04.04.28-.03.32.01.12.12-.23.67.29,1.09.07.06.25.03.28.06.1.1-.05.58.03.67.04.04.28-.03.32.01.06.06-.02.34.01.49.02.09.2.07.23.16.04.15-.04.43.01.49.04.04.28-.03.32.01.07.07-.02.37,0,.5.02.12.24.02.32.09.22.19.24.84.27.88.04.04.24-.03.3.03.05.06,0,.24.05.29.06.06.27,0,.3.03.03.04.06.69.27.88.08.07.3-.03.32.09.03.14-.07.42,0,.5.08.08.09-.14.37.3.03.05.16.06.18.13.04.2.04.89,0,1.09-.03.18-.51.31-.53.35-.28.33-.65.87-.98,1.2-.06.06-.23,0-.28.06-.23.26-.25.84-.28.87-.03.03-.53.3-.66.44-.56.56-1.05,1.15-1.53,1.72-.02.02-.46.16-.5.29-.07.22,0,.57-.06.64-.02.03-.54.19-.63.28-.06.06-.24.55-.3.61-.06.06-.55.24-.61.3-.06.06-.24.55-.3.61s-.55.24-.61.3c-.06.06-.27.6-.3.62-.08.07-.26,0-.3.04-.09.09.05.45-.04.55-.02.03-.19,0-.28.06-.23.15-.26.46-.31.5-.53.45-1.21.99-1.72,1.53-.09.1-.06.27-.11.31-.08.06-.26,0-.3.04-.07.07.02.34-.02.48-.08.26-.82.77-1.06,1.01-.46.47-.95,1.07-1.38,1.56-.02.02-.46.16-.5.29-.07.22,0,.57-.06.64-.02.03-.54.19-.63.28-.06.06-.24.55-.3.61s-.55.24-.61.3-.24.55-.3.61-.55.24-.61.3c-.25.24-.25.84-.28.87-.03.04-.24-.03-.3.04-.61.63-1.23,1.46-1.89,2.12-.06.06-.23,0-.28.06-.23.26-.25.84-.28.87-.03.03-.53.3-.66.44-.4.4-.8,1-1.19,1.37-.06.06-.55.24-.61.3-.06.06-.24.55-.3.61-.09.09-.61.25-.63.28-.06.07,0,.43-.06.64-.04.13-.48.27-.5.29-.43.5-.91,1.09-1.38,1.56-.17.18-.64.43-.71.66-.05.14.05.41-.02.48-.03.04-.24-.03-.3.03-.61.63-1.23,1.46-1.89,2.12-.06.06-.23,0-.28.06-.23.26-.25.84-.28.87-.03.03-.53.3-.66.44-.38.38-.72.7-1.07,1.07-.09.1-.06.27-.11.31-.08.06-.26,0-.3.04-.09.09.05.48-.03.56-.05.05-.32-.06-.34.07-.03.16.05.37,0,.55-.02.08-.2.07-.23.16-.04.15.04.42-.01.49-.04.05-.31-.06-.34.07-.04.19.07.77,0,.85-.05.05-.31-.06-.34.07-.07.34-.07,3.43,0,3.77.03.14.33-.01.36.13.04.19-.07.77,0,.85.05.05.31-.06.34.07.04.22-.06.54,0,.78.02.09.21.07.22.16.04.18-.06.51.02.6.02.03.62.23.65.25.06.07,0,.43.06.64.04.13.48.27.5.29.15.18.38.58.61.8.1.09.27.06.31.11.06.08,0,.26.04.3.09.09.48-.05.56.03.04.04-.03.28.01.32.06.06.43-.03.6.01.08.02.07.2.16.23.15.04.43-.04.49.01.04.04-.03.28.01.32.08.08.48-.05.56.02.04.04-.03.28.01.32.07.07.63-.03.83.02.09.02.07.2.16.22.32.08,2.67.06,3.08.01.21-.03.15-.21.24-.24.2-.05.76.06.83-.02.05-.05-.06-.31.07-.34.19-.04.77.07.85,0,.04-.04-.03-.28.01-.32.06-.06.43.03.6-.01.08-.02.07-.2.16-.23.15-.04.42.05.48-.02.04-.03-.03-.24.04-.3.65-.64,1.43-1.31,2.12-1.89.05-.04.08-.35.31-.5.09-.06.25-.03.28-.06.1-.1-.06-.56.04-.66.03-.03.19,0,.28-.06.23-.15.26-.46.31-.5.18-.15.58-.38.8-.61.09-.1.06-.27.11-.31.08-.06.26,0,.3-.04.09-.09-.05-.47.03-.55.03-.03.22.03.3-.04.03-.02.24-.56.3-.62.06-.06.55-.24.61-.3.06-.06.27-.6.3-.62.08-.07.26,0,.3-.04.09-.09-.05-.45.04-.55.02-.03.19,0,.28-.06.23-.15.26-.46.31-.5.06-.05.22,0,.28-.06.06-.06,0-.22.06-.28.02-.02.46-.16.5-.29.07-.22,0-.58.05-.65.02-.03.19,0,.28-.06.22-.15.26-.46.31-.5.18-.15.58-.38.8-.61.09-.1.06-.27.11-.31.08-.06.26,0,.3-.04.09-.09-.05-.47.03-.55.03-.03.22.03.3-.04.03-.02.24-.56.3-.62.06-.06.55-.24.61-.3s.24-.55.3-.61c.09-.09.61-.25.63-.28.07-.08-.01-.41.02-.59.04-.18.51-.31.54-.35.06-.06,0-.22.06-.28.06-.06.23,0,.28-.06.25-.31.23-.85.26-.88.04-.04.65.04.69,0,.03-.03-.04-.35,0-.49.08-.26.83-.77,1.06-1.01.09-.1.06-.27.11-.31.08-.06.26,0,.3-.04.09-.09-.05-.47.03-.55.03-.03.22.03.3-.04.03-.02.24-.56.3-.62.06-.06.55-.24.61-.3.06-.06.27-.6.3-.62.08-.07.26,0,.3-.04.09-.09-.05-.47.03-.55.03-.03.22.03.3-.04.05-.04.02-.21.11-.31.25-.26.95-.7,1.06-1.01.05-.14-.05-.38.02-.48.02-.03.54-.19.63-.28.06-.06.24-.55.3-.61s.55-.24.61-.3c.06-.06.27-.6.3-.62.08-.07.26,0,.3-.04.09-.09-.05-.47.03-.55.03-.03.22.03.3-.04.05-.04.02-.21.11-.31.22-.23.62-.46.8-.61.05-.04.08-.35.31-.5.09-.06.25-.03.28-.06.06-.07-.01-.43.05-.65.04-.13.48-.27.5-.29.28-.33.66-.88.98-1.2.06-.06.27,0,.3-.04.07-.07-.02-.34.02-.48.08-.25.82-.77,1.06-1.01.1-.1.41-.62.45-.66.06-.06.27,0,.3-.04.03-.03.04-.63.28-.87.06-.06.55-.24.61-.3.06-.06.24-.55.3-.61.06-.06.55-.24.61-.3.25-.24.25-.84.28-.87.03-.04.24.03.3-.04.38-.39.86-.88,1.26-1.26.06-.06,0-.26.04-.3.04-.04,1.09-.05,1.13,0,.04.04-.03.28.01.32.08.08.56-.06.67.03.03.03,0,.2.06.28.35.43.39.2.81.27.13.02.02.29.07.34.08.08.48-.05.56.02.04.04-.03.28.01.32.06.06.34-.02.49.01.09.02.07.21.16.23.17.04.54-.05.6.01.04.04-.03.28.01.32.08.08.48-.05.56.02.04.04-.03.28.01.32.06.06.34-.02.49.01.09.02.07.2.16.23.2.05.76-.06.83.02.04.04-.03.28.01.32.08.08.48-.05.56.02.04.04-.03.28.01.32.07.07.63-.03.83.02.09.02.07.21.16.22.17.04.54-.05.6.01.05.04-.06.31.07.34.28.06.74-.07,1.02-.02.13.03.02.29.07.34.07.07.63-.03.83.02.09.02.07.2.16.22.32.08.81-.07,1.12,0,.14.03-.01.33.13.36.31.06.82-.08,1.13-.02.14.03-.01.33.13.36.37.07.97-.09,1.35,0,.09.02.03.21.24.24.47.06,1.17-.1,1.61-.02.14.03-.01.33.13.36.8.16,2.17-.17,2.97-.02.14.03-.01.33.13.36h5.6c.14-.03-.01-.33.13-.36.8-.16,2.17.17,2.97.02.14-.03-.01-.33.13-.36.43-.08,1.14.08,1.61.02.21-.03.15-.21.24-.24.38-.09.97.08,1.35,0,.14-.03-.01-.33.13-.36.37-.07.99.09,1.36.02.14-.03-.01-.33.12-.36.22-.04.53.06.78,0,.09-.02.03-.21.24-.24.31-.04.75.07,1.03.02.13-.03.02-.29.07-.34.08-.08.66.03.85,0,.14-.03-.01-.33.12-.36.19-.04.48.04.69.02.21-.03.15-.21.24-.24.2-.05.76.06.83-.02.04-.04-.03-.28.01-.32.08-.08.48.05.56-.02.04-.04-.03-.28.01-.32.06-.06.34.02.49-.01.09-.02.07-.21.16-.23.17-.04.54.05.6-.01.05-.04-.06-.31.07-.34.22-.04.57.06.79.02.13-.03.02-.3.07-.34.06-.06.34.02.49-.01.09-.02.07-.2.16-.23.15-.04.42.04.49-.01.05-.04-.06-.32.07-.34.16-.03.52.07.61-.01.03-.03,0-.19.06-.28.3-.47.77-.2.87-.29.04-.04-.03-.28.01-.32.08-.08.47.06.56-.03.03-.03.13-.45.44-.55.14-.05.42.05.48-.02.04-.04-.03-.28.01-.32.08-.08.47.06.56-.03.03-.03-.03-.22.04-.3.18-.21.84-.24.88-.28.03-.03-.03-.22.04-.3.18-.21.84-.24.88-.28.04-.03-.03-.24.04-.3.05-.05.23,0,.29-.06.06-.05,0-.23.06-.28.27-.23.84-.25.87-.28.04-.04.39-.63.59-.82.1-.09.27-.06.31-.11.06-.08,0-.26.04-.3.09-.09.47.05.55-.03.03-.03-.03-.22.04-.3.04-.05.21-.02.31-.11.66-.62,1.32-1.32,1.98-1.98.77-.77,1.54-1.72,2.29-2.49.06-.06.27,0,.3-.04.07-.07-.02-.34.02-.48.12-.38,1.02-.7,1.14-1.09.05-.14-.05-.41.02-.48.03-.04.24.03.3-.03.05-.05,0-.23.06-.29.05-.06.23,0,.28-.06.23-.27.25-.84.28-.87.04-.04.24.03.3-.03.05-.06,0-.24.05-.29.06-.06.27,0,.3-.03.03-.04.06-.69.27-.88.08-.07.3.03.32-.09.03-.14-.07-.42,0-.5.03-.03.45-.13.55-.44.05-.14-.05-.42.02-.48.04-.04.28.03.32-.01.08-.08-.06-.47.03-.56.03-.03.45-.13.55-.44.05-.14-.05-.42.02-.48.04-.04.28.03.32-.01.08-.08-.05-.48.02-.56.04-.04.28.03.32-.01.06-.06-.03-.43.01-.6.02-.08.2-.07.23-.16.04-.15-.04-.42.01-.49.04-.05.31.06.34-.07.04-.19-.07-.77,0-.85.04-.04.28.03.32-.01.06-.06-.02-.34.01-.49.02-.09.21-.07.23-.16.04-.17-.05-.54.01-.6.04-.05.31.06.34-.07.04-.19-.07-.77,0-.85.05-.05.31.06.34-.07.04-.19-.04-.48-.02-.69.03-.21.21-.15.24-.24.06-.24-.05-.55,0-.78.03-.14.33.01.36-.12.04-.19-.07-.77,0-.85.05-.05.31.06.34-.07.04-.22-.06-.53,0-.78.02-.09.21-.03.24-.24.04-.28-.07-.66-.02-.92.03-.14.33.01.36-.13.07-.38-.07-.97-.02-1.38.03-.21.21-.15.24-.24.09-.38-.08-.97,0-1.35.03-.14.33.01.36-.13.1-.52-.12-1.41-.02-1.94.03-.14.33.01.36-.13.13-1.5-.2-3.36-.02-4.81.03-.24.28-.08.25-.45-.02-.23-.22-.11-.25-.33ZM95.47,43.81c-.03.14-.33-.01-.36.13-.16.8.17,2.17.02,2.97-.03.14-.33-.01-.36.13-.07.35.07.89.02,1.26-.03.21-.21.15-.24.24-.08.32.07.81,0,1.12-.03.14-.33-.01-.36.13-.06.28.07.74.02,1.02-.03.14-.33-.01-.36.12-.04.19.04.48.02.69-.03.21-.21.15-.24.24-.06.24.05.56,0,.78-.03.13-.29.02-.34.07-.08.08.03.66,0,.85-.03.13-.29.02-.34.07-.06.06.03.43-.01.6-.02.08-.2.07-.23.16-.04.15.04.43-.01.49-.04.04-.28-.03-.32.01-.06.06.02.34-.01.49-.02.09-.21.07-.23.16-.04.17.05.54-.01.6-.04.04-.28-.03-.32.01-.08.08.05.48-.02.56-.04.04-.28-.03-.32.01-.06.06.02.34-.01.49-.02.09-.21.07-.23.16-.04.18.06.51-.02.6-.02.03-.62.23-.65.25-.06.07,0,.43-.06.64-.04.13-.49.27-.5.29-.06.07,0,.23-.06.29-.06.06-.27,0-.3.04-.03.03-.05.61-.28.87-.05.06-.22,0-.28.06-.06.06,0,.22-.06.28-.02.02-.46.16-.5.29-.07.22,0,.57-.06.64-.02.03-.54.19-.63.28-.06.06-.24.55-.3.61-.19.19-.58.47-.88.76-.48.46-1.06.95-1.56,1.38-.02.02-.16.46-.29.5-.22.07-.57,0-.64.06-.03.02-.19.54-.28.63-.24.25-.84.25-.87.28-.04.03.03.24-.04.3-.05.05-.23,0-.29.06-.06.05,0,.23-.06.28-.27.24-.84.24-.88.27-.04.04.03.28-.01.32-.08.08-.47-.06-.56.03-.03.03.03.22-.04.3-.19.22-.85.24-.88.27-.04.04.03.28-.01.32-.07.07-.46-.02-.62,0-.13.02-.02.3-.07.34-.06.06-.34-.02-.49.01-.09.02-.07.2-.16.23-.15.04-.43-.04-.49.01-.04.04.03.28-.01.32-.08.08-.48-.05-.56.02-.04.04.03.28-.01.32-.06.06-.43-.02-.6.01-.09.02-.07.2-.16.22-.24.06-.55-.05-.78,0-.14.03.01.33-.12.36-.19.04-.77-.07-.85,0-.05.05.06.31-.07.34-.22.04-.53-.06-.78,0-.09.02-.03.21-.24.24-.22.03-.5-.06-.69-.02-.14.03.01.33-.12.36-.28.06-.74-.07-1.02-.02-.14.03.01.33-.13.36-.37.07-.97-.07-1.38-.02-.22.03-.11.22-.33.25-.47.06-1.17-.1-1.61-.02-.14.03.01.33-.13.36h-6.52c-.14-.03.01-.33-.13-.36-.53-.1-1.38.09-1.95.02-.21-.03-.15-.21-.24-.24-.38-.09-.97.08-1.35,0-.14-.03.01-.33-.13-.36-.31-.06-.82.08-1.13.02-.14-.03.01-.33-.12-.36-.19-.04-.48.04-.69.02-.21-.03-.15-.21-.24-.24-.24-.06-.56.05-.78,0-.13-.03-.02-.29-.07-.34-.08-.08-.66.03-.85,0-.13-.03-.02-.3-.07-.34-.06-.06-.34.02-.49-.01-.09-.02-.07-.2-.16-.23-.2-.05-.76.06-.83-.02-.04-.04.03-.28-.01-.32-.08-.08-.47.06-.56-.03-.03-.03.03-.22-.04-.3-.02-.02-.37-.25-.4-.25-.21-.05-.75.06-.82-.02-.04-.04.03-.24-.04-.3-.06-.05-.24,0-.29-.05-.06-.06,0-.27-.03-.3-.07-.07-.34.02-.48-.02-.09-.02-.07-.2-.16-.23-.15-.04-.42.05-.48-.02-.04-.04.03-.24-.03-.3-.06-.05-.24,0-.29-.05-.06-.06,0-.27-.03-.3-.04-.03-.69-.06-.88-.27-.07-.08.03-.3-.09-.32-.14-.03-.42.07-.5,0-.03-.03.03-.22-.04-.3-.04-.05-.21-.02-.31-.11-.2-.19-.55-.78-.59-.82-.03-.03-.61-.05-.87-.28-.06-.05,0-.22-.06-.28-.9-.91-1.87-1.85-2.74-2.75-.06-.06-.27,0-.3-.04-.07-.07.02-.34-.02-.48-.12-.38-1.02-.7-1.14-1.09-.05-.14.05-.41-.02-.48-.03-.04-.24.03-.3-.04-.05-.05,0-.23-.06-.29-.05-.06-.23,0-.28-.06-.24-.27-.24-.84-.27-.88-.04-.04-.28.03-.32-.01-.08-.08.06-.47-.03-.56-.03-.03-.22.03-.3-.04-.22-.19-.24-.85-.27-.88-.04-.04-.28.03-.32-.01-.07-.07.02-.46,0-.62-.02-.13-.3-.02-.34-.07-.06-.06.02-.34-.01-.49-.02-.09-.2-.07-.23-.16-.04-.15.04-.43-.01-.49-.04-.04-.28.03-.32-.01-.08-.08.06-.59-.03-.67-.04-.04-.28.03-.32-.01-.06-.06.02-.34-.01-.49-.02-.09-.2-.07-.23-.16-.05-.2.06-.76-.02-.83-.05-.05-.31.06-.34-.07-.04-.19.07-.77,0-.85-.05-.05-.31.06-.34-.07-.04-.22.06-.53,0-.78-.02-.09-.21-.03-.24-.24-.03-.22.06-.5.02-.69-.03-.14-.33.01-.36-.12-.06-.31.08-.82.02-1.13-.03-.13-.29-.02-.34-.07-.08-.08.04-.83-.02-1.06-.02-.09-.2-.07-.22-.16-.13-.53.11-1.49,0-2.03-.03-.14-.33.01-.36-.13v-6.29c.03-.14.33.01.36-.13.11-.59-.1-1.55-.02-2.18.03-.21.21-.15.24-.24.09-.38-.08-.97,0-1.35.03-.14.33.01.36-.13.06-.31-.08-.82-.02-1.13.03-.14.33.01.36-.12.04-.19-.04-.48-.02-.69.03-.21.21-.15.24-.24.06-.24-.05-.56,0-.78.03-.13.29-.02.34-.07.08-.08-.03-.66,0-.85.03-.13.3-.02.34-.07.06-.06-.02-.34.01-.49.02-.09.2-.07.23-.16.05-.2-.06-.76.02-.83.04-.04.28.03.32-.01.08-.08-.05-.48.02-.56.04-.04.28.03.32-.01.06-.06-.03-.43.01-.6.02-.08.2-.07.23-.16.04-.15-.04-.43.01-.49.04-.04.28.03.32-.01.08-.08-.06-.47.03-.56.03-.03.22.03.3-.04.22-.19.24-.85.27-.88.04-.04.28.03.32-.01.08-.08-.03-.46,0-.61,0-.03.5-.18.54-.33.07-.22,0-.57.06-.64.02-.03.54-.19.63-.28.25-.24.25-.84.28-.87.03-.04.24.03.3-.04.15-.15.05-.11.34-.35.04-.04.08-.35.31-.5.09-.06.25-.03.28-.06.1-.1-.06-.56.04-.66.03-.03.19,0,.28-.06.23-.15.26-.46.31-.5.58-.49.77-.69,1.26-1.26.04-.05.35-.08.5-.31.06-.09.03-.25.06-.28.07-.06.43.01.65-.05.13-.04.27-.48.29-.5.06-.05.22,0,.28-.06.06-.06,0-.23.06-.28.26-.23.84-.25.87-.28.04-.03-.03-.24.04-.3.05-.05.22,0,.29-.06.02-.02.16-.46.29-.5.22-.07.58,0,.64-.06.03-.02.23-.63.25-.65.08-.07.33.01.48-.02.09-.02.07-.21.16-.23.18-.04.51.06.6-.02.03-.02.23-.62.25-.65.09-.08.42.02.6-.02.08-.02.07-.2.16-.23.15-.04.43.04.49-.01.04-.04-.03-.28.01-.32.08-.08.48.05.56-.02.05-.05-.06-.31.07-.34.19-.04.48.04.69.02.21-.03.15-.21.24-.24.2-.05.76.06.83-.02.04-.04-.03-.28.01-.32.08-.08.59.06.67-.03.05-.05-.06-.31.07-.34.19-.04.48.04.69.02.21-.03.15-.21.24-.24.2-.05.76.06.83-.02.05-.05-.06-.31.07-.34.28-.06.74.07,1.02.02.13-.03.02-.29.07-.34.08-.08.93.04,1.17-.02.09-.02.07-.2.16-.22.44-.11,1.31.11,1.69,0,.05-.01.09-.63.41-.35.03.02.01.89.29,0h7.55c.03.67.95.23,1.47.35.09.02.07.2.16.22.37.09.98-.08,1.35,0,.14.03-.01.33.13.36.31.06.82-.08,1.13-.02.13.03.02.3.07.34.06.06.34-.02.49.01.09.02.07.2.16.23.24.06,1.09-.07,1.17.02.04.04-.03.28.01.32.08.08.48-.05.56.02.04.04-.03.28.01.32.07.07.63-.03.83.02.09.02.07.21.16.22.17.04.54-.05.6.01.04.04-.03.28.01.32.08.08.48-.05.56.02.04.04-.03.28.01.32.06.06.34-.02.49.01.09.02.07.2.16.23.15.04.42-.04.49.01.05.04-.06.32.07.34.16.03.52-.07.61.01.03.03,0,.19.06.28.3.47.74.19.86.3.03.02.23.62.25.65.07.06.43,0,.64.06.13.04.27.49.29.5.07.06.23,0,.29.06.06.06,0,.27.04.3.03.03.61.05.87.28.06.05,0,.23.06.28.06.06.23,0,.29.06.06.06,0,.27.03.3.07.07.34-.02.48.02.24.08.49.54.66.71.55.54,1.14,1.14,1.68,1.68.24.24.98.75,1.06,1.01.05.14-.05.41.02.48.03.04.24-.03.3.04.13.13.34.36.52.55.09.1.06.27.11.31.08.06.26,0,.3.04.09.09-.05.47.03.55.03.03.22-.03.3.04.03.02.26.61.29.63.08.07.26,0,.3.04.09.09-.05.47.03.55.03.03.22-.03.3.04.22.19.24.85.27.88.04.04.28-.03.32.01.07.07-.02.37,0,.5.02.12.24.02.32.09.22.19.24.85.27.88.04.04.28-.03.32.01.08.08-.06.59.03.67.04.04.28-.03.32.01.06.06-.02.34.01.49.02.09.2.07.23.16.04.15-.04.43.01.49.04.04.28-.03.32.01.06.06-.02.43.01.6.02.09.2.07.22.16.05.2-.06.76.02.83.04.04.28-.03.32.01.08.08-.05.48.02.56.05.05.31-.06.34.07.04.19-.04.48-.02.69.03.21.21.15.24.24.06.24-.05.55,0,.78.03.14.33-.01.36.12.04.22-.08.99,0,1.08.05.05.31-.06.34.07.06.31-.08.8,0,1.12.02.09.21.03.24.24.05.37-.08.92-.02,1.26.03.14.33-.01.36.13.14.71-.15,1.92-.02,2.62.03.14.33-.01.36.13.05.26.05,2.36,0,2.62Z"/>
  </g>
</svg>