<?xml version="1.0" encoding="UTF-8"?>
<svg id="Capa_2" data-name="Capa 2" xmlns="http://www.w3.org/2000/svg" viewBox="0 0 105.94 107.42">
  <defs>
    <style>
      .cls-1 {
        fill: #257ee9;
      }
    </style>
  </defs>
  <g id="Capa_1-2" data-name="Capa 1">
    <g>
      <path class="cls-1" d="M105,96.98c.33-1.24.66-2.5.94-3.87l-.02-72.43c-.09-.54-.76-1.93-.84-2.27-.07-.28.08-.97-.02-1.07-.06-.06-.42.04-.48-.02-.09-.09.04-.64-.02-.9-.22-.96-2.79-3.54-3.52-4.12-2.44-1.96-3.41-2.35-6.46-3.02-.14-.03-.04-.31-.36-.35-1.27-.17-5.78-.17-7.04,0-.27.04-.21.22-.39.34-.1.07-.37,0-.37.01v10.27s-.25-.04-.35.11c-.2.29-.08.69-.18.96-.22.63-1.68,2.65-2.35,3.21-.23.19-1.92,1.34-2.04,1.36-.43.1-1.02-.06-1.5.01-1.96.3-3.29.5-5.28,0-.11-.03-1.4-1.03-1.7-1.26-.12-.09-.4-.04-.52-.11-.25-.15-1.69-2.49-1.92-2.91-.07-.13-.34-.14-.38-.21-.15-.25.06-1.19-.37-1.6l-.18-10.18h-33.56v10.36c0,.11-.48.2-.52.38-.17.75-.12,1.18-.52,1.98-.79,1.57-2.1,2.5-3.64,3.07-.26.1-.23.45-.4.49-.29.07-1.79.31-2.18.35-1.2.13-3.27-.07-4.43-.35-.17-.04-.16-.34-.3-.42-2.2-1.23-2.94-1.41-4-3.81-.03-.06-.25-.06-.27-.18-.06-.25.04-.53,0-.79-.02-.1-.51-.27-.51-.55v-10.19s-.19.03-.28-.06c-.09-.09-.05-.27-.06-.28-.33-.19-6.53,0-7.53,0-.02,0,.07.3-.11.35-2.11.52-2.91.63-4.64,1.71-2.75,1.71-4.43,3.67-5.57,6.55-.39,1-.27,1-.47,1.9-.03.13-.3.1-.34.23-.43,1.79.02,6.12,0,8.18-.18,20.72-.44,41.32-.17,62,.06,4.66.44,8.31,3.31,11.82,1.78,2.18,5.92,4.95,8.59,5.38.74.12,1.32-.26,1.86.36h77.59c.56-.65,1.24-.21,2.01-.39,2.25-.52,5.53-2.25,7.13-3.68,1.11-.99,1.5-1.77,2.3-2.89.13-.18.72-.58.75-.63.13-.27-.03-.71.06-.81.06-.06.42.04.48-.02.09-.09-.03-.51.02-.73.02-.08.76-1.2.78-1.3ZM97.88,92.5c-.54.88-.26.66-.52,1.59-.04.14-.29.1-.33.25-.31,1.16-.6,1.54-1.44,2.37-.17.17-.78.86-.83.88-.28.11-.72-.02-.81.06-.06.06.04.42-.02.48-.09.09-.65-.04-.9.02-.1.02-1.3.66-1.56.86H15.08c-.83-.62-2.1-.64-3.03-.87-.13-.03-1.73-1.57-1.94-1.79-.07-.07-.02-.31-.11-.39-.09-.08-.35-.02-.41-.1-.68-.84-.7-2.43-1.26-3.28v-54.82c.04-.28.58-.43.55-.91l88.26-.04c.13.29.76.31.76.36v55.31Z"/>
      <path class="cls-1" d="M22.73,18.43c.07.52,1.06,2.5,1.4,2.79.1.09.35,0,.43.09.1.1,0,.4.05.45.1.1.5-.03.72.03.14.03.11.31.24.34.86.2,3.03.23,3.87,0,.12-.04.11-.23.27-.31.13-.06.37,0,.53-.12.06-.04.96-.92.99-.98.1-.16,0-.43.09-.59.06-.1.32-.11.38-.21.21-.35-.11-.78.43-.98V3.75c-.62-.53-.4-1.23-.97-1.99-.54-.71-1.22-1.01-1.99-1.38-.1-.05-.11-.27-.16-.3-.2-.09-2.8-.11-3.09-.04-.14.03-.13.29-.24.34-1.76.86-2.15,1.27-2.96,3.17.44,4.61-.61,10.41,0,14.88Z"/>
      <path class="cls-1" d="M76.08,21.85c.06.03.07.25.18.27.69.16,2.66.11,3.4.02.32-.04.22-.32.36-.35.22-.05.62.07.72-.03.05-.05-.04-.33.06-.44.06-.07.32-.03.46-.17.29-.27.31-.58.4-.68.08-.08.34-.02.41-.1.47-.58.28-.98.4-1.54.01-.06.41-.23.49-.91.51-4.35-.33-9.57.01-14.02-.57-1.74-1.32-2.73-2.95-3.52-.1-.05-.11-.27-.16-.3-.2-.09-3.13-.11-3.44-.04-.14.03-.13.29-.24.34-.27.13-.99.38-1.2.56-.08.07-.01.33-.09.42-.08.08-.32.01-.42.09-.24.2-.49,1.29-.9,1.44l-.02,15.9c.52.67.51,1.29,1.06,2.02.41.54.89.79,1.46,1.03Z"/>
      <path class="cls-1" d="M53.89,71.48c-.26-.48-.81-1.65-1.1-2.03-.12-.16-1.58-1.68-1.69-1.73-.27-.11-.7.02-.8-.07-.05-.05.04-.33-.06-.44-.05-.06-1.14-.6-1.33-.56.01-.9.45-.54.81-.73.14-.07,1.87-1.89,2.16-2.19.14-.14.08-.4.16-.46.11-.09.4,0,.45-.06.1-.1-.02-.5.03-.72.02-.07.83-1.03.85-1.1.07-.3-.09-1.14.02-1.24.07-.07.47.09.51-.1.08-.42-.11-1.06,0-1.5.03-.14.31-.05.35-.36.09-.65.09-2.8,0-3.45-.04-.32-.32-.22-.35-.36-.31-1.4-.38-2.06-1.03-3.36-.05-.11-.31-.09-.34-.24-.05-.22.07-.62-.03-.72-.05-.05-.32.04-.44-.06-.08-.06-.77-1.4-1.01-1.66-.83-.92-3.68-3.08-4.82-3.6-1.3-.58-2.83-.78-4.02-1.33-.87-.4-8.43.04-9.48.43-1.51.56-3.92,1.73-5.32,2.64-1.57,1.03-4.17,4.68-4.67,6.55-.06.24.05.56,0,.82-.03.14-.31.04-.35.36-.08.57-.09,3.6.02,4.09.03.13.26.13.32.25.2.42.26.81.71,1.14.18.13.48.06.62.16.15.11.55.72.61.75.1.05,1.96.41,2.07.38.13-.03.11-.3.24-.33.43-.1,1.08.11,1.47,0,.17-.05.16-.35.3-.42.37-.2.73-.11,1.09-.62.13-.18.05-.45.15-.63.06-.1.37-.12.44-.32.18-.55.31-1.71.55-2.34.09-.23,1.02-2.07,1.24-2.3.18-.2,2.15-1.72,2.3-1.76.76-.19.75-.36,1.05-.44.33-.09,3.07-.47,3.37-.43.32.04.23.32.36.35,1.46.33,2.43.13,3.76,1.09.9.65,2.01,2.47,2.25,3.48.19.79-.38,3.17-.87,3.77-.03.03-.27.19-.53.49-.76.88-.92.94-1.87,1.3-.26.1-.23.45-.4.49-.97.23-2.14.25-3.18.52-.14.04-.13.3-.25.33-.64.15-1.68-.14-2.33.01-.13.03-.13.28-.25.33-.3.13-1.11.33-1.36.58-.37.38-.37,1.25-.41,1.31-.06.06-.42-.04-.48.02-.09.09.03.51-.02.73-.03.14-.31.05-.35.36-.04.33-.05,1.56.02,1.86.03.12.26.13.32.26.19.4.23.7.54,1.1.09.11.83.92.89.94.13.05,2.52.37,2.8.37,1.42.04,3.11-.15,4.57.19.13.03.1.3.24.34.22.05.64-.07.73.02.06.06-.04.42.02.48.12.12.7-.09.83.04.05.05-.04.33.06.45.07.08.32.03.4.11,1.86,1.71,1.6,1.75,2.31,4.09.04.14.29.12.33.25.21.77-.31.74-.33.85-.09.39.07.9-.01,1.33-.1.56-1.49,2.97-1.93,3.28-.27.19-1.93,1.34-2.04,1.39-.26.11-.56-.01-.82.14-.13.08-.11.38-.29.43-.92.23-3.48.48-4.43.35-.32-.04-.22-.32-.36-.35-.34-.08-1.47.1-1.58-.02-.06-.06.04-.42-.02-.48-.09-.08-.51.03-.73-.02-.13-.03-.13-.26-.25-.33-1.04-.51-1.25-.47-2.17-1.32-1.12-1.03-1.79-2.12-2.16-3.54-.03-.12-.72-1.49-.92-1.76-.31-.42-1.2-.9-1.26-.97-.09-.11,0-.39-.06-.44-.12-.12-.93.04-1.24-.03-.11-.03-.2-.57-1.2-.33-.14.03-.05.31-.36.35-.33.04-1.5-.11-1.62.01-.05.05.04.33-.06.44-.03.03-.44.13-.69.39-.14.14-.09.4-.17.46-.12.1-.4,0-.44.06-.1.1.02.5-.03.72-.02.1-.28.11-.4.48-.58,1.81.25,3.26.88,4.73,1.92,4.47,5.67,7.32,10.01,8.79.83.28,1.77.71,2.78.84.71.09,1.39.32,1.7.36.71.09,3.08.09,3.79,0,.32-.04.23-.32.36-.35,1.14-.26,3.73-.37,4.68-.95.12-.08.1-.39.29-.43.21-.05.63.08.73-.01.06-.06-.04-.42.02-.48.09-.08.51.03.73-.02.05-.01.7-.42.85-.51.37-.22,3.57-2.91,3.68-3.13.44-.87,1.24-1.69,1.76-2.64.63-1.17.74-1.91,1.03-3.19.03-.13.3-.11.33-.24.08-.35.39-3.89.34-4.24-.31-2.15-.57-3.43-1.52-5.19Z"/>
      <path class="cls-1" d="M79.06,46.31c-.17-.58.04-1.07-.59-1.52-.2-.14-.46-.13-.68-.24-.41-.21-.78-.29-.94-.38-.08-.05-.09-.37-.31-.45-.35-.12-2.23-.06-2.6.09-.19.08-.17.36-.33.39-.77.18-.98.26-1.63.87-.14.13-.09.4-.17.46-.12.1-.4,0-.44.06-.1.1.02.5-.03.72-.02.07-.83,1.03-.85,1.1-.05.22.07.62-.03.72-.05.05-.33-.04-.45.06-.08.07-.03.32-.1.4-.58.68-1.26,1.46-1.77,1.95-1.45,1.37-3.56,2.34-5.41,2.95-.25.08-.21.44-.41.49-.2.05-.43-.05-.69.04-.05.02-.52.72-.6.76-.2.1-.52,0-.61.06-.08.06-.05.45-.14.62-.09.16-.68.73-.72.86-.25.8-.22,2,0,2.82.04.14.26.11.32.26.06.16-.04.44.05.69.11.29,2,1.81,2.48,1.88,1.69.26,3.01-.08,4.55-.47.14-.04.11-.3.24-.33.22-.05.64.07.73-.02.06-.06-.04-.42.02-.48.09-.09.51.03.73-.02.07-.02,1.02-.83,1.1-.85.33-.07.74.03,1.08,0-.29,8.75-.19,17.53-.16,26.29,0,1.32-.19,1.68.31,3.1.09.25.33.23.36.36.05.22-.07.6.03.72.04.04.29,0,.42.08.34.23.54.92,1.06,1.12.4.15.77.1,1.1.2.15.04.07.3.37.34.36.05,1.38.05,1.74,0,.31-.04.21-.31.37-.35.19-.05.43.04.6,0,.25-.07,1.86-1.98,1.94-2.38.71-3.54.21-9.17.24-12.95.07-8.1.22-16.27.19-24.3,0-1.57.19-3.88,0-5.33-.04-.31-.3-.22-.34-.37Z"/>
    </g>
  </g>
</svg>