<?xml version="1.0" encoding="UTF-8"?>
<svg id="Capa_2" data-name="Capa 2" xmlns="http://www.w3.org/2000/svg" viewBox="0 0 126.59 131.24">
  <defs>
    <style>
      .cls-1 {
        fill: #277de4;
      }
    </style>
  </defs>
  <g id="Capa_1-2" data-name="Capa 1">
    <g>
      <path class="cls-1" d="M126.12,20.15c-.06-.05-.56.05-.62,0-.06-.06.05-.79.01-.99-.03-.17-.39-.03-.45-.09-.12-.12.09-.93-.04-1.05-.05-.05-.33.04-.41-.04-.08-.08.01-.36-.04-.41-.1-.1-.48.06-.58-.04-.06-.05.04-.33-.05-.41-.08-.08-.35,0-.41-.04-.1-.1.03-.54-.02-.6-.06-.07-.96.09-1.07-.02-.05-.06.04-.37-.02-.43-.11-.11-.79.08-.9-.03-.06-.06.08-.42-.09-.45-.71-.14-1.68.45-1.45-.6h-15.5V5.72s-.38.05-.44-.01c-.13-.14.09-1.39-.04-1.51-.06-.06-.37.04-.43-.02-.1-.1.05-.85-.02-.91-.06-.05-.56.05-.62,0-.06-.06.05-.79.01-.99-.03-.17-.39-.02-.46-.09-.09-.1.06-.49-.04-.59-.05-.06-.33.04-.41-.04-.09-.09.04-.41-.11-.44-.23-.05-.88.1-.98,0-.06-.07.08-.42-.09-.45-.71-.14-1.68.45-1.45-.6h-3.53c.23,1.06-.74.46-1.45.6-.17.03-.02.39-.09.46-.1.09-.49-.06-.59.04-.06.05.04.33-.05.41-.08.08-.35,0-.41.05-.1.1.06.48-.04.58-.05.06-.33-.04-.41.05-.08.08,0,.35-.04.41-.1.1-.54-.04-.6.02-.06.06.08.51-.01.61-.06.06-.37-.04-.43.02-.12.11.08.77-.04.9-.06.06-.44-.01-.44.01v2.61s-.61-.03-.61,0v7.67c0,.05.87-.24.61.46h-54.32V5.26c-1,.16-.48-.35-.6-.99-.03-.17-.39-.03-.45-.09-.1-.1.03-.62,0-.83-.03-.17-.39-.03-.46-.09-.09-.1.04-.55-.01-.61-.05-.05-.56.06-.62,0-.06-.06.06-1.02,0-1.08-.07-.07-.81.09-.91-.02-.06-.06.04-.37-.02-.42-.1-.09-.5.06-.6-.03-.07-.06.08-.42-.09-.46-.27-.05-1.38.08-1.45.01-.05-.05.05-.56,0-.62-.14-.15-3.47.11-3.99,0,.16,1.01-.36.47-.99.6-.16.03-.02.35-.12.44-.08.07-.32,0-.39.07-.09.08,0,.35-.05.4-.11.12-.99-.05-1.06.02-.07.07.09.96-.02,1.06-.06.06-.37-.04-.43.02-.09.09.04.55-.01.61-.05.05-.56-.05-.62,0-.07.06.09.81-.02.91-.06.05-.37-.04-.43.02-.24.23.45,1.35-.63,1.06v9.67H7.21c-.03.14.04.57,0,.62-.08.08-1.59-.08-1.91-.01-.17.03-.03.39-.09.46-.1.09-.5-.06-.6.03-.06.06.04.37-.02.42-.1.11-.85-.05-.91.02-.05.06.06.57,0,.62-.06.05-.5-.09-.6.02-.04.04-.43.78-.51.86-.08.09-.35,0-.4.05-.11.1.03.54-.02.6-.05.05-.56-.05-.62,0-.07.06.09.81-.02.91-.06.06-.42-.08-.45.09-.05.23.09.88,0,.98-.07.06-.42-.08-.45.09-.06.32.09,1.83.01,1.91-.04.04-.47-.03-.62,0v100.5c1.06-.23.46.74.6,1.45.04.18.45-.02.48.17.07.38-.1,1-.02,1.37.03.16.35.02.44.11.08.08-.01.35.04.41.1.1.54-.04.6.02.06.06-.08.5.02.6.1.1.77-.11.44.93.76-.18.35.51.46.62.06.06.51-.08.61.01.07.06-.08.42.09.46.21.04.73-.09.83,0,.06.06-.04.37.02.43.09.09.55-.04.61.01.05.05-.05.56,0,.62.06.07.81-.09.91.02.06.06-.08.42.09.45.63.13,1.49-.4,1.53.46h111.53c-.07-.92,1.36-.24,1.61-.49.06-.06-.04-.37.02-.43.09-.09.55.04.61-.01.05-.05-.05-.56,0-.62.05-.05.65.05.84.01.17-.03.02-.39.09-.46.1-.09.49.06.59-.04.06-.05-.04-.33.05-.41.08-.08.35,0,.41-.05.1-.1-.06-.48.04-.58.05-.06.33.04.41-.05.08-.08,0-.35.05-.41.1-.1.48.06.58-.04.06-.05-.04-.33.05-.41.08-.08.35,0,.41-.05.1-.1-.05-.49.04-.59.06-.06.37.03.42-.02.11-.1-.05-.85.02-.91.06-.05.56.05.62,0,.2-.19-.44-1.71.47-1.62V21.15c-.84.03-.32-.86-.47-1.01ZM111.24,115.43H15.96V45.77h95.28v69.66Z"/>
      <path class="cls-1" d="M36.35,82.6c.1.1-.05,1,.02,1.07.06.05.5-.08.6.02.04.04.43.78.51.86.08.09.35,0,.4.05.1.1-.04.54.02.6s.5-.08.6.02c.04.04.43.78.51.86.08.09.35,0,.4.05.1.1-.04.54.02.6s.5-.08.6.02c.04.04.43.78.51.86.08.09.35,0,.4.05.1.1-.04.54.02.6s.5-.08.6.02c.04.04.43.78.51.86.08.09.35,0,.4.05.1.1-.04.54.02.6s.5-.08.6.02c.04.04.43.78.51.87.08.09.35,0,.4.05.12.11-.05,1,.02,1.06.06.05.5-.08.6.02.05.05-.04.33.04.41.08.08.35,0,.41.05.1.1-.06.48.04.58.05.06.33-.04.41.05.08.08,0,.35.04.41.1.1.54-.04.6.02.06.06-.08.5.02.6.04.04.78.43.86.51.09.08,0,.35.05.4.1.1.54-.04.6.02.06.06-.08.5.02.6.04.04.78.43.86.51.09.08,0,.35.05.4.1.1.54-.04.6.02.06.06-.08.5.02.6.04.04.78.43.86.51.09.08,0,.35.05.4.1.1.54-.04.6.02s-.08.5.02.6c.04.04.78.43.86.51.09.08,0,.35.05.4.1.1.54-.04.6.02.06.06-.08.5.02.6.05.05.33-.04.41.04.08.08,0,.35.04.41.12.13.93-.08,1.05.05.05.05-.04.33.04.41.08.08.35,0,.41.04.1.1-.03.54.02.6.06.07,1.2-.06,1.45-.01.18.04-.02.45.17.48.26.05,2.18.05,2.44,0,.18-.04-.02-.45.17-.48.25-.05,1.39.08,1.45.01.05-.06-.08-.5.02-.6.06-.05.33.04.41-.04.08-.08,0-.35.05-.41.1-.1.48.06.58-.04.06-.05-.04-.33.05-.41.08-.08.35,0,.41-.04.1-.1-.03-.54.02-.6.06-.07.95.09,1.06-.02.05-.05-.04-.32.05-.4.19-.18.28-.28.46-.46.08-.09.35,0,.4-.05.1-.1-.04-.54.02-.6.06-.06.5.08.6-.02.05-.05-.04-.33.04-.41.09-.09.37,0,.43-.04.04-.03-.17-.85.04-1.04.07-.06.32.02.39-.06.08-.08,0-.35.05-.41.1-.1.48.06.58-.04.06-.05-.04-.33.05-.41.08-.08.35,0,.41-.04.1-.1-.03-.54.02-.6.06-.07.95.09,1.06-.02.05-.05-.04-.32.05-.4.19-.18.28-.28.46-.46.08-.09.35,0,.4-.05.1-.1-.04-.54.02-.6.06-.06.5.08.6-.02.05-.05-.04-.33.04-.41.08-.08.35,0,.41-.05.1-.1-.06-.48.04-.58.05-.06.33.04.41-.05.08-.08,0-.35.05-.41.1-.1.48.06.58-.04.06-.05-.04-.33.05-.41s.35,0,.41-.05c.1-.1-.06-.48.04-.58.05-.06.33.04.41-.05s0-.35.05-.41c.1-.1.48.06.58-.04.06-.05-.04-.33.05-.41s.35,0,.41-.05c.1-.1-.06-.48.04-.58.05-.06.33.04.41-.05s0-.35.05-.41c.1-.1.48.06.58-.04.06-.05-.04-.33.05-.41s.35,0,.41-.05c.1-.1-.06-.48.04-.58.05-.06.33.04.41-.05s0-.35.05-.41c.1-.1.48.06.58-.04.06-.05-.04-.33.05-.41s.35,0,.41-.05c.1-.1-.06-.48.04-.58.05-.06.33.04.41-.05.08-.08,0-.35.05-.41.1-.1.48.06.58-.04.06-.05-.04-.33.05-.41s.35,0,.41-.05c.1-.1-.06-.48.04-.58.05-.06.33.04.41-.05s0-.35.05-.41c.1-.1.48.06.58-.04.06-.05-.04-.33.05-.41s.35,0,.41-.05c.1-.1-.06-.48.04-.58.05-.06.33.04.41-.05s0-.35.05-.41c.1-.1.48.06.58-.04.06-.05-.04-.33.05-.41.08-.08.35,0,.41-.05.1-.1-.06-.48.04-.58.05-.06.33.04.41-.05.08-.08,0-.35.05-.41.1-.1.48.06.58-.04.06-.05-.04-.33.05-.41.08-.08.35,0,.41-.05.1-.1-.06-.48.04-.58.05-.06.33.04.41-.05s0-.35.05-.41c.1-.1.48.06.58-.04.06-.05-.04-.33.05-.41s.35,0,.41-.05c.1-.1-.06-.48.04-.58.05-.06.33.04.41-.05s0-.35.05-.41c.1-.1.48.06.58-.04.06-.05-.04-.33.05-.41.08-.08.35,0,.41-.04.1-.1-.04-.54.02-.6.06-.06.5.08.6-.02.04-.04.43-.78.51-.86.08-.09.35,0,.4-.05.1-.1-.04-.54.02-.6.06-.06.5.08.6-.02.04-.04.43-.78.51-.86.08-.09.35,0,.4-.05.1-.1-.04-.54.02-.6.06-.06.5.08.6-.02.04-.04.43-.78.51-.86.08-.09.35,0,.4-.05.1-.1-.04-.54.02-.6.06-.06.5.08.6-.02.04-.04.43-.78.51-.86s.35,0,.4-.05c.11-.1-.03-.54.02-.6.05-.05.56.05.62,0,.05-.05-.05-.65-.01-.84.03-.17.39-.02.46-.09.09-.1-.06-.5.03-.6.06-.06.37.04.42-.02.11-.1-.05-.85.02-.91.05-.05.56.05.62,0,.11-.1-.08-2.65,0-3.07-1,.16-.48-.35-.6-.99-.03-.17-.39-.03-.45-.09-.12-.12.09-.93-.04-1.05-.05-.05-.33.04-.41-.04-.08-.08.01-.35-.04-.41-.1-.1-.54.04-.6-.02-.05-.05.05-.56,0-.62-.05-.05-.65.05-.84.01-.17-.03-.02-.39-.09-.46-.1-.09-.5.06-.6-.03-.07-.06.08-.42-.09-.46-.43-.09-4.47-.09-4.9,0-.18.03-.03.39-.09.45-.12.12-.93-.09-1.05.04-.05.05.04.33-.04.41-.08.08-.36-.01-.41.04-.1.1.04.54-.02.6-.06.06-.5-.08-.6.02-.05.05.04.33-.04.41-.08.08-.35,0-.41.05-.1.1.06.48-.04.58-.05.06-.33-.04-.41.05-.08.08,0,.35-.05.41-.1.1-.48-.06-.58.04-.06.05.04.33-.05.41-.08.08-.35,0-.41.05-.1.1.06.48-.04.58-.05.06-.33-.04-.41.05s0,.35-.05.41c-.1.1-.48-.06-.58.04-.06.05.04.33-.05.41-.08.08-.35,0-.41.05-.1.1.06.48-.04.58-.05.06-.33-.04-.41.05-.08.08,0,.35-.05.41-.1.1-.48-.06-.58.04-.06.05.04.33-.05.41s-.35,0-.41.05c-.1.1.06.48-.04.58-.05.06-.33-.04-.41.05s0,.35-.05.41c-.1.1-.48-.06-.58.04-.06.05.04.33-.05.41s-.35,0-.41.05c-.1.1.06.48-.04.58-.05.06-.33-.04-.41.05s0,.35-.05.41c-.1.1-.48-.06-.58.04-.06.05.04.33-.05.41-.08.08-.35,0-.41.05-.1.1.06.48-.04.58-.05.06-.33-.04-.41.05s0,.35-.05.41c-.1.1-.48-.06-.58.04-.06.05.04.33-.05.41s-.35,0-.41.05c-.1.1.06.48-.04.58-.05.06-.33-.04-.41.05s0,.35-.05.41c-.1.1-.48-.06-.58.04-.06.05.04.33-.05.41s-.35,0-.41.05c-.1.1.06.48-.04.58-.05.06-.33-.04-.41.05s0,.35-.05.41c-.1.1-.48-.06-.58.04-.06.05.04.33-.05.41-.08.08-.35,0-.41.05-.1.1.06.48-.04.58-.05.06-.33-.04-.41.05s0,.35-.05.41c-.1.1-.48-.06-.58.04-.06.05.04.33-.05.41s-.35,0-.41.05c-.1.1.06.48-.04.58-.05.06-.33-.04-.41.05s0,.35-.05.41c-.1.1-.48-.06-.58.04-.06.05.04.33-.05.41s-.35,0-.41.05c-.1.1.06.48-.04.58-.05.06-.33-.04-.41.05-.08.08,0,.35-.05.41-.1.1-.48-.06-.58.04-.06.05.04.33-.05.41-.08.08-.35,0-.41.05-.1.1.06.48-.04.58-.05.06-.33-.04-.41.05s0,.35-.05.41c-.1.1-.48-.06-.58.04-.06.05.04.33-.05.41-.08.08-.35,0-.41.05-.1.1.06.48-.04.58-.05.06-.33-.04-.41.05-.08.08,0,.35-.05.41-.1.1-.48-.06-.58.04-.06.05.04.33-.05.41s-.35,0-.41.05c-.1.1.06.48-.04.58-.05.06-.33-.04-.41.05-.08.08,0,.35-.05.41-.1.1-.48-.06-.58.04-.06.05.04.33-.05.41s-.35,0-.41.05c-.1.1.06.48-.04.58-.05.06-.33-.04-.41.05s0,.35-.05.41c-.1.1-.48-.06-.58.04-.06.05.04.33-.05.41-.08.08-.35,0-.41.05-.1.1.06.48-.04.58-.05.06-.33-.03-.41.04-.09.09.05.41-.11.44-1.19.25-.88-.3-1.02-.44-.08-.08-.36.01-.41-.04-.1-.1.04-.54-.02-.6-.06-.06-.5.08-.6-.02-.04-.04-.43-.78-.51-.86-.08-.09-.35,0-.4-.05-.1-.1.04-.54-.02-.6-.06-.06-.5.08-.6-.02-.05-.05.04-.32-.05-.4-.08-.07-.32,0-.39-.07-.09-.08,0-.35-.05-.4-.1-.1-.54.04-.6-.02-.06-.06.08-.5-.02-.6-.04-.04-.78-.43-.86-.51-.09-.08,0-.35-.05-.4-.1-.1-.54.04-.6-.02-.06-.06.08-.5-.02-.6-.04-.04-.78-.43-.86-.51-.09-.08,0-.35-.05-.4-.1-.1-.54.04-.6-.02-.06-.06.08-.5-.02-.6-.04-.04-.78-.43-.86-.51-.09-.08,0-.35-.05-.4-.1-.1-.54.04-.6-.02-.06-.06.08-.5-.02-.6-.04-.04-.78-.43-.86-.51-.09-.08,0-.35-.05-.4-.1-.1-.54.04-.6-.02-.06-.06.08-.5-.02-.6-.04-.04-.78-.43-.87-.51-.09-.08,0-.35-.05-.4-.11-.12-1,.05-1.06-.02-.05-.06.08-.5-.02-.6-.06-.05-.33.04-.41-.04-.09-.09.05-.41-.11-.44-.52-.11-1.44.13-1.98.02-.18-.04.02-.45-.17-.48-.18-.04-1.19-.04-1.37,0-.18.04.02.45-.17.48-.38.07-.99-.1-1.37-.02-.18.03-.03.39-.09.45-.1.1-.85-.05-.91.02-.05.06.06.57,0,.62-.06.05-.5-.09-.6.02-.04.04-.43.78-.51.86-.08.09-.35,0-.4.05-.11.1.03.54-.02.6-.05.05-.56-.05-.62,0-.07.06.09.81-.02.91-.06.06-.42-.08-.45.09-.07.37-.07,3.61,0,3.97.03.18.39.03.45.09Z"/>
    </g>
  </g>
</svg>