<?xml version="1.0" encoding="UTF-8"?>
<svg id="Capa_2" data-name="Capa 2" xmlns="http://www.w3.org/2000/svg" viewBox="0 0 109.55 98.36">
  <defs>
    <style>
      .cls-1 {
        fill: #2378e5;
      }
    </style>
  </defs>
  <g id="Capa_1-2" data-name="Capa 1">
    <path class="cls-1" d="M109.18,25.44c-.06-.34-.83-1.65-.86-1.78-.05-.22.07-.65-.02-.74-.06-.06-.43.05-.49-.02-.05-.05-.06-1.02-.42-1.34-.68-.62-1.23-1.53-1.93-2.24-.66-.66-1.37-1.16-2.1-1.75-.45-.37-.67-.4-1.1-.63-.67-.37-1.03-.84-1.92-1.16-1.68-.6-3.29-.84-5.17-1.07l-35.68.02c-.48-.11-.21-2.25-.28-2.72-.04-.32-.33-.23-.36-.37-.09-.38.05-.87-.04-1.32-.21-1.04-1.51-2.29-1.7-2.87-.07-.22.07-.62-.03-.73-.05-.05-.34.04-.45-.06-.08-.07-.03-.31-.11-.41-.5-.65-.96-1.27-1.38-1.76-.06-.07-.53-.13-.75-.47-.09-.13-.04-.38-.08-.42-.15-.14-.71.08-.84-.05-.05-.05.04-.34-.06-.45-.07-.09-1.66-1.03-1.94-1.19-1.02-.6-2.1-.79-3.29-1.13-.16-.04-.07-.31-.38-.35-2.26-.29-5.24.31-7.51.03-.33-.04-.17-.33-.5-.38-.88-.11-3.68-.11-4.55,0-.33.04-.17.33-.5.38-.5.06-1.96.06-2.46,0-.33-.04-.17-.33-.5-.38-.3-.04-1.28-.04-1.55.02-.16.04-.04.48-.55.35-.08-.02,0-.32-.34-.37-.36-.04-1.76-.05-2.07.02-.14.03-.05.32-.37.36-1.07.14-3.49.07-4.32-.31-.25-.11-3.6-.13-4.06-.07-.33.04-.17.33-.5.38-1.86.24-5.14-.4-6.77-.01-.13.03-.11.31-.24.34-1.25.27-1.25.35-2.28.86-1.55.77-3.05,1.75-4.34,2.85-.81.69-3.26,4.6-3.52,5.48-.13.42-.09,1.03-.2,1.48-.03.14-.3.13-.33.25-.17.73.08,1.88-.36,2.74v69.14c.74,4.49,2.79,9.4,7.01,11.76,2.51,2.02,4.8,2.66,8.05,2.78,4,.15,8.06-.21,12.02-.2,21.73.09,43.94.77,65.66.2,1.29-.03,3.36-.02,4.53-.17.32-.04.22-.32.37-.36.41-.1.88.03,1.38-.15,2.03-.74,5.31-2.95,6.68-4.64.2-.25.68-1.05.74-1.1.11-.1.4,0,.45-.06.13-.13-.08-.71.05-.84.12-.12.14.23.57-.46.58-.94,1.38-2.58,1.66-3.83.14-.62-.24-1.04.37-1.55V27.16c-.63-.53-.25-1.03-.37-1.72ZM75.07,61.66c-.02.3-.15,1.89-.2,1.97-.06.09-.53.11-.72.21-.15.08-.08.31-.39.35-2.68.33-6.1-.23-8.9-.02-.33.02-1.68.45-1.96.57-.04.02-.56.62-.58.73v9.89c-.48.61-.84,1.3-1.51,1.86h-10.03c-.19-.49-.59-.36-.85-.54-.58-.39-.62-1.11-.67-1.81-.18-2.63.33-5.86.02-8.37-.08-.64-.57-1.18-.72-1.79-.99.19-.98-.47-1.81-.55-2.78-.29-6.16.33-8.89.01-.27-.03-1.45-1.19-1.48-1.48-.35-2.91.28-6.56.02-9.55.45-.12.43-.9.54-.97.23-.15.83.23.97-.37,3.41-.39,6.96-.08,10.42-.16l.55-.41c-.06-.66.35-1.21.41-1.78.15-1.44-.25-10.29.17-10.71.24-.02.5.03.73-.05,2.46-.77,7.39-.36,10.12-.11,2.06.19,1.11.8,1.68,1.77.11.18.34.11.34.12v10.8s.19-.03.29.06.05.29.06.29h10.36c.44.06.53.39.75.51.11.06.41-.04.52.04.12.08.11.52.22.71.37.71.47,1.54.52,2.48.1,1.9.1,4.38,0,6.28Z"/>
  </g>
</svg>