<?xml version="1.0" encoding="UTF-8"?>
<svg id="Capa_2" data-name="Capa 2" xmlns="http://www.w3.org/2000/svg" viewBox="0 0 106.05 107.29">
  <defs>
    <style>
      .cls-1 {
        fill: #277be4;
      }
    </style>
  </defs>
  <g id="Capa_1-2" data-name="Capa 1">
    <path class="cls-1" d="M105.69,92.17c-1.08-4.62-9.86-15.86-12.68-20.9-8.79-15.71-14.39-29.72-17.3-47.35-.16-.98-.28-6.04-.05-6.26.35-.34,4.78,1.22,8.4-3.78,3.98-5.52,3.07-10.49-3.14-13.63l-53.62-.25c-8.52,1.96-8.37,13.36-.85,16.88,5.68,2.66,7.59-.95,6.29,8.69-2.71,20.06-11.5,37.56-22.44,53.96-1.48,2.22-9.76,12.32-10.08,13.43-.98,3.39,1.54,10.57,4.61,11.98,2.09.96,5.84,1.54,8.19,1.72,26.87,2,56.14-1.59,83.27,0,7.24-.58,11-7.63,9.4-14.5ZM68.52,60.47h-31.51c-1.15-1.12,5.36-11.44,6.26-13.47,4.38-9.88,4.38-12.43,5.72-22.82,1-7.81,2.94-5.49,9.87-5.68.08,2.89-.21,5.82.1,8.71.68,6.29,3.21,14.36,6.02,20.01,1.56,3.14,6.72,9.17,7.34,11.99.54,2.46-3.04-.54-3.79,1.27Z"/>
  </g>
</svg>