<?xml version="1.0" encoding="UTF-8"?>
<svg id="Capa_2" data-name="Capa 2" xmlns="http://www.w3.org/2000/svg" viewBox="0 0 150 150">
  <defs>
    <style>
      .cls-1 {
        fill: #2378e5;
      }
    </style>
  </defs>
  <g id="Capa_1-2" data-name="Capa 1">
    <g>
      <path class="cls-1" d="M150,10.42c-.47-5.64-4.89-10.03-10.56-10.42L10.18.05C4.85.52.52,4.79,0,10.14v129.73c.45,5.33,4.79,9.72,10.13,10.14h129.87c5.41-.56,9.62-5.02,10-10.42V10.42ZM106.33,134.12h-20.27c-.03-.16.04-.67,0-.71s-.55.03-.71,0v-1.98c-.16-.03-.67.04-.71,0-.2-.2.46-1.61-.57-1.28v-2.55c-.16-.03-.67.04-.71,0-.24-.23.56-1.82-.71-1.42v-2.55c-1.04.36-.35-1.21-.57-1.42-.05-.05-.66.05-.71,0-.07-.06.07-1.78,0-1.84-.04-.04-.55.03-.71,0v-1.98s-.57.03-.57,0v-1.98s-.71.04-.71,0v-1.98s-.71.04-.71,0v-1.98s-.57.03-.57,0v-1.98s-.71.04-.71,0v-1.98s-.57.03-.57,0v-1.98h-42.81v-.71c-1.04-.33-.64.71-.71.71h-1.98c.01.66.16.8-.57.71v2.55s-.71-.04-.71,0v1.98s-.71-.04-.71,0v1.98c-1.03-.34-.36,1.08-.57,1.28-.04.04-.55-.03-.71,0v1.98s-.71-.04-.71,0v1.98s-.57-.03-.57,0v1.98s-.71-.04-.71,0v1.98s-.57-.03-.57,0v1.98c-.16.03-.67-.04-.71,0-.23.22.54,1.65-.71,1.28v2.69c-1.03-.34-.36,1.08-.57,1.28-.04.04-.55-.03-.71,0v1.98s-.71-.04-.71,0v1.98H7.66v-.71s.71,0,.71,0v-2.55s.71.04.71,0v-1.98s.57.03.57,0v-1.98s.71.04.71,0v-1.98s.57.03.57,0v-1.98c.16-.03.67.04.71,0,.23-.22-.54-1.65.71-1.28v-1.98s.57.03.57,0v-1.98s.71.04.71,0v-1.98c.16-.03.67.04.71,0,.2-.2-.46-1.61.57-1.28v-1.98s.71.04.71,0v-2.69c.16-.03.67.04.71,0,.2-.2-.46-1.61.57-1.28v-1.98s.71.04.71,0v-1.98s.71.04.71,0v-1.98s.57.03.57,0v-1.98s.71.04.71,0v-1.98s.57.03.57,0v-1.98c.16-.03.67.04.71,0,.23-.22-.54-1.65.71-1.28v-1.98s.57.03.57,0v-1.98s.71.04.71,0v-1.98s.71.04.71,0v-1.98c.13-.02.53.04.57,0,.07-.06-.07-1.78,0-1.84.05-.05.66.05.71,0,.24-.23-.56-1.82.71-1.42v-2.55c1.04.36.35-1.21.57-1.42.05-.05.66.05.71,0,.07-.06-.07-1.78,0-1.84.04-.04.44.03.57,0v-1.98c.16-.03.67.04.71,0,.24-.23-.56-1.82.71-1.42v-1.98s.57.03.57,0v-1.98c.16-.03.67.04.71,0,.07-.06-.07-1.78,0-1.84.04-.04.55.03.71,0v-1.98s.57.03.57,0v-1.98s.71.04.71,0v-1.98s.71.04.71,0v-1.98c1.03.34.36-1.08.57-1.28.04-.04.55.03.71,0v-1.98s.71.04.71,0v-1.98s.57.03.57,0v-1.98s.71.04.71,0v-1.98s.57.03.57,0v-1.98s.71.04.71,0v-1.98s.71.04.71,0v-1.98c1.03.34.36-1.08.57-1.28.04-.04.55.03.71,0v-1.98s.71.04.71,0v-1.98s.57.03.57,0v-1.98s.71.04.71,0v-1.98s.71.04.71,0v-1.98c1.03.34.36-1.08.57-1.28.04-.04.55.03.71,0v-2.69s.71.04.71,0v-1.98c.13-.02.53.04.57,0,.07-.06-.07-1.78,0-1.84.05-.05.66.05.71,0,.21-.21-.48-1.78.57-1.42v-1.98s.71.04.71,0v-1.98c.16-.03.67.04.71,0,.07-.07-.07-1.78,0-1.84.05-.05.52.05.57,0,.24-.22-.56-1.83.71-1.42v-1.98c.66.01.8.16.71-.57h16.44c.06.06-.06,1.22,0,1.28.05.05.52-.05.57,0,.23.21-.54,1.66.71,1.28v1.98c.16.03.67-.04.71,0,.2.2-.46,1.61.57,1.28v1.98s.71-.04.71,0v1.98s.57-.03.57,0v1.98s.71-.04.71,0v1.98s.71-.04.71,0v1.98s.57-.03.57,0v1.98s.71-.04.71,0v1.98s.71-.04.71,0v1.98c1.03-.34.36,1.08.57,1.28.04.04.55-.03.71,0v1.98s.71-.04.71,0v1.98s.57-.03.57,0v1.98s.71-.04.71,0v1.98c.16.03.67-.04.71,0,.2.2-.46,1.61.57,1.28v1.98s.71-.04.71,0v1.98s.57-.03.57,0v1.98s.71-.04.71,0v1.98s.71-.04.71,0v1.98s.57-.03.57,0v1.98c.16.03.67-.04.71,0,.23.22-.54,1.65.71,1.28v1.98s.57-.03.57,0v2.55c.16.03.67-.04.71,0,.24.23-.56,1.82.71,1.42v2.55c1.03-.34.36,1.08.57,1.28.04.04.55-.03.71,0v1.98s.71-.04.71,0v2.69c1.03-.34.36,1.08.57,1.28.04.04.55-.03.71,0v1.98s.57-.03.57,0v1.98s.71-.04.71,0v1.98s.71-.04.71,0v1.98s.57-.03.57,0v1.98s.71-.04.71,0v1.98s.71-.04.71,0v1.98s.57-.03.57,0v1.98s.71-.04.71,0v1.98c.16.03.67-.04.71,0,.2.2-.46,1.61.57,1.28v1.98s.71-.04.71,0v1.98s.57-.03.57,0v1.98s.71-.04.71,0v1.98c.16.03.67-.04.71,0,.07.06-.07,1.78,0,1.84.04.04.44-.03.57,0v1.98s.71-.04.71,0v1.98s.71-.04.71,0v1.98s.57-.03.57,0v1.98c.16.03.67-.04.71,0,.23.22-.54,1.65.71,1.28v1.98s.57-.03.57,0v1.98s.71-.04.71,0v1.98s.71-.04.71,0v1.98s.57-.03.57,0v1.98c.16.03.67-.04.71,0,.2.2-.46,1.61.57,1.28v1.98s.71-.04.71,0v1.98s.71-.04.71,0v1.98s.57-.03.57,0v1.98ZM133.97,63.09c-1.03-.34-.36,1.08-.57,1.28-.05.05-.66-.05-.71,0-.06.06.06,1.22,0,1.28-.18.18-.97-.43-.71.71h-1.98s.1.68-.08.71c-.16.02-1.15.04-1.2,0-.04-.04.03-.55,0-.71h-1.98c.21-1.09-.44-.57-.57-.71-.05-.05.05-.52,0-.57-.05-.05-.66.05-.71,0-.16-.16.43-.95-.71-.71v-3.26s-.57.03-.57,0v-5.25c.72.09.58-.05.57-.71-.22.04-1.23-.05-1.28,0-.05.05.05.66,0,.71-.05.05-.66-.05-.71,0-.05.05.05.52,0,.57-.05.05-.52-.05-.57,0-.05.05.05.66,0,.71-.05.05-.66-.05-.71,0-.05.05.05.66,0,.71-.05.05-.66-.05-.71,0-.06.06.06,1.22,0,1.28-.05.05-.52-.05-.57,0-.05.05.05.66,0,.71-.05.05-.66-.05-.71,0-.05.05.05.52,0,.57-.05.05-.52-.05-.57,0-.05.05.05.66,0,.71-.05.05-.66-.05-.71,0-.05.05.05.66,0,.71-.05.05-.66-.05-.71,0-.05.05.05.52,0,.57-.05.05-.52-.05-.57,0-.05.05.05.66,0,.71-.05.05-.66-.05-.71,0-.05.05.05.52,0,.57-.05.05-.66-.05-.71,0s.05.66,0,.71c-.05.05-.52-.05-.57,0-.05.05.05.66,0,.71-.05.05-.66-.05-.71,0-.05.05.05.52,0,.57-.05.05-.66-.05-.71,0-.05.05.05.66,0,.71-.05.05-.52-.05-.57,0-.05.05.05.66,0,.71-.05.05-.66-.05-.71,0-.05.05.05.52,0,.57-.05.05-.66-.05-.71,0-.05.05.05.66,0,.71-.05.05-.52-.05-.57,0-.05.05.05.66,0,.71s-.66-.05-.71,0c-.05.05.05.52,0,.57s-.52-.05-.57,0c-.05.05.05.66,0,.71-.06.06-1.36-.06-1.42,0-.05.05.05.52,0,.57-.05.05-.52-.05-.57,0-.05.05.05.66,0,.71-.05.05-.66-.05-.71,0-.05.05.05.66,0,.71-.2.2-1.61-.46-1.28.57h-1.98c.34-1.03-1.08-.36-1.28-.57-.05-.05.05-.66,0-.71-.05-.05-.66.05-.71,0-.05-.05.05-.66,0-.71-.06-.06-1.22.06-1.28,0-.23-.23.54-1.65-.71-1.28v-1.98c-.16-.03-.67.04-.71,0-.04-.04-.03-1.03,0-1.2.03-.18.71-.04.71-.08v-1.98c1.14.25.55-.56.71-.71.05-.05.52.05.57,0,.05-.05-.05-.52,0-.57.05-.05.66.05.71,0,.06-.06-.06-1.22,0-1.28s1.22.06,1.28,0c.05-.05-.05-.66,0-.71.05-.05.66.05.71,0,.05-.05-.05-.66,0-.71.05-.05.52.05.57,0,.05-.05-.05-.52,0-.57.05-.05.66.05.71,0,.05-.05-.05-.66,0-.71.05-.05.66.05.71,0,.05-.05-.05-.66,0-.71.05-.05.52.05.57,0,.05-.05-.05-.52,0-.57.05-.05.66.05.71,0,.05-.05-.05-.66,0-.71.05-.05.66.05.71,0,.05-.05-.05-.66,0-.71.05-.05.52.05.57,0,.05-.05-.05-.52,0-.57.05-.05.66.05.71,0,.05-.05-.05-.66,0-.71s.66.05.71,0c.05-.05-.05-.66,0-.71.05-.05.52.05.57,0,.05-.05-.05-.52,0-.57.05-.05.66.05.71,0s-.05-.66,0-.71c.05-.05.52.05.57,0,.05-.05-.05-.52,0-.57.05-.05.66.05.71,0,.05-.05-.05-.66,0-.71.05-.05.66.05.71,0,.05-.05-.05-.66,0-.71.05-.05.52.05.57,0,.05-.05-.05-.52,0-.57.05-.05.66.05.71,0,.05-.05-.05-.66,0-.71s.66.05.71,0c.05-.05-.05-.66,0-.71.05-.05.52.05.57,0,.05-.05-.05-.52,0-.57.05-.05.66.05.71,0,.05-.05-.04-1.18,0-1.42h-8.51s.03-.57,0-.57h-1.98c.24-1.14-.55-.55-.71-.71-.05-.05.05-.66,0-.71-.05-.05-.66.05-.71,0-.07-.06.07-1.78,0-1.84-.04-.04-.44.03-.57,0v-1.98c1.04.36.35-1.21.57-1.42.05-.05.66.05.71,0,.06-.06-.06-1.22,0-1.28.05-.05.66.05.71,0,.05-.05-.05-.66,0-.71.2-.2,1.61.46,1.28-.57h22.97s-.05.52,0,.57c.06.06,1.36-.06,1.42,0,.05.05-.05.66,0,.71.05.05.52-.05.57,0,.05.05-.05.66,0,.71.05.05.66-.05.71,0,.13.14-.38.78.71.57v7.94s.57-.03.57,0v15.17Z"/>
      <path class="cls-1" d="M71.46,91.3s-.57.03-.57,0v-1.98s-.71.04-.71,0v-1.98c-.16-.03-.67.04-.71,0-.07-.06.07-1.78,0-1.84-.04-.04-.44.03-.57,0v-1.98s-.71.04-.71,0v-1.98s-.57.03-.57,0v-1.98s-.71.04-.71,0v-1.98s-.71.04-.71,0v-1.98c-1.03.34-.36-1.08-.57-1.28-.04-.04-.55.03-.71,0v-1.98s-.71.04-.71,0v-1.98s-.57.03-.57,0v-1.98s-.71.04-.71,0v-1.98c-.16-.03-.67.04-.71,0-.2-.2.46-1.61-.57-1.28v-2.69s-.71.04-.71,0v-1.98s-.57.03-.57,0v-1.98c-1.25.38-.48-1.06-.71-1.28-.04-.04-.55.03-.71,0v-2.69c-.13-.02-.53.04-.57,0-.07-.06.07-1.78,0-1.84-.04-.04-.55.03-.71,0v-1.98s-.71.04-.71,0v-1.98s-.57.03-.57,0v-1.98c-1.26.41-.47-1.19-.71-1.42-.04-.04-.55.03-.71,0v-2.55s-.57.03-.57,0v-1.98h-1.42v3.26s-.57-.03-.57,0v1.98s-.71-.04-.71,0v1.98s-.57-.03-.57,0v1.98s-.71-.04-.71,0v1.98s-.71-.04-.71,0v1.98s-.57-.03-.57,0v1.98c-1.25-.38-.48,1.06-.71,1.28-.04.04-.55-.03-.71,0v2.69c-1.03-.34-.36,1.08-.57,1.28-.04.04-.55-.03-.71,0v1.98s-.71-.04-.71,0v1.98s-.57-.03-.57,0v1.98s-.71-.04-.71,0v1.98c-.13.02-.53-.04-.57,0-.07.06.07,1.78,0,1.84-.04.04-.55-.03-.71,0v1.98s-.71-.04-.71,0v1.98s-.57-.03-.57,0v1.98s-.71-.04-.71,0v1.98c-.16.03-.67-.04-.71,0-.2.2.46,1.61-.57,1.28v1.98s-.71-.04-.71,0v1.98s-.71-.04-.71,0v1.98s-.57-.03-.57,0v1.98s-.71-.04-.71,0v1.98s-.71-.04-.71,0v1.98s-.57-.03-.57,0v1.98h36.15v-.71s-.71,0-.71,0v-1.98Z"/>
    </g>
  </g>
</svg>