<?xml version="1.0" encoding="UTF-8"?>
<svg id="Capa_2" data-name="Capa 2" xmlns="http://www.w3.org/2000/svg" viewBox="0 0 150 150">
  <defs>
    <style>
      .cls-1 {
        fill: #2378e5;
      }
    </style>
  </defs>
  <g id="Capa_1-2" data-name="Capa 1">
    <path class="cls-1" d="M150,10.42c-.47-5.64-4.89-10.03-10.56-10.42L10.18.05C4.85.52.52,4.79,0,10.14v129.73c.45,5.33,4.79,9.72,10.14,10.14h129.87c5.41-.56,9.62-5.02,10-10.42V10.42ZM136.1,81.95c-.13.02-.53-.04-.57,0-.23.22.17,5.65.01,6.44-.03.17-.41-.02-.44.16-.09.47.13,3.07.01,3.18-.04.04-.44-.03-.57,0v2.84c-.13.02-.53-.04-.57,0-.06.06.07,1.5,0,1.56-.04.04-.44-.03-.57,0v2.27c-.13.02-.53-.04-.57,0-.06.06.07,1.64,0,1.7-.05.05-.52-.05-.57,0-.06.06.06,1.5,0,1.56-.05.05-.52-.05-.57,0-.06.05.06,1.08,0,1.14-.05.05-.52-.05-.57,0-.06.06.07,1.64,0,1.7-.05.05-.52-.05-.57,0-.06.06.05.85.01,1.06-.03.16-.36.03-.42.09-.1.1.05.92-.02.98-.05.05-.52-.05-.57,0-.06.05.06,1.08,0,1.14-.05.05-.52-.05-.57,0-.06.05.06,1.08,0,1.14-.05.05-.52-.05-.57,0-.05.05.05.52,0,.57-.05.05-.52-.05-.57,0-.06.05.06,1.08,0,1.14-.05.05-.52-.05-.57,0-.05.05.06.94,0,.99-.05.05-.52-.05-.57,0-.05.05.05.52,0,.57-.05.05-.52-.05-.57,0-.06.05.06,1.08,0,1.14-.05.05-.52-.05-.57,0-.05.05.05.52,0,.57-.05.05-.52-.05-.57,0-.07.06.09,1.03-.02,1.12-.05.05-.34-.03-.39.02-.09.09.04.51-.01.56-.05.05-.47-.07-.56.01-.05.05.04.34-.02.39-.09.09-.51-.04-.56.01-.05.05.05.52,0,.57-.05.05-.52-.05-.57,0-.06.05.06,1.08,0,1.14-.05.05-.52-.05-.57,0-.05.05.05.52,0,.57-.05.05-.52-.05-.57,0-.05.05.05.52,0,.57-.05.05-.52-.05-.57,0-.05.05.05.52,0,.57-.05.05-.52-.05-.57,0-.05.05.05.52,0,.57-.05.05-.52-.05-.57,0-.05.05.08.46-.02.56-.05.05-.3-.03-.38.04-.08.08,0,.33-.04.38-.09.1-.5-.03-.56.02-.05.05.05.52,0,.57-.05.05-.52-.05-.57,0-.05.05.05.52,0,.57-.05.05-.52-.05-.57,0-.05.05.05.52,0,.57-.05.05-.52-.05-.57,0-.05.05.05.52,0,.57s-.52-.05-.57,0c-.05.05.05.52,0,.57-.05.05-.52-.05-.57,0s.05.52,0,.57c-.05.05-.52-.05-.57,0-.05.05.05.52,0,.57-.05.05-.94-.06-.99,0-.05.05.05.52,0,.57-.05.05-.47-.07-.56.01-.06.06.07.39-.08.42-.21.04-1-.07-1.06-.01-.05.05.05.52,0,.57-.05.05-.52-.05-.57,0-.05.05.05.52,0,.57-.05.06-1.08-.06-1.14,0-.05.05.05.52,0,.57-.05.05-.52-.05-.57,0-.05.05.05.52,0,.57-.05.05-.52-.05-.57,0-.05.05.05.52,0,.57-.05.05-.94-.06-.99,0-.05.05.05.52,0,.57-.05.06-1.08-.06-1.14,0-.05.05.05.52,0,.57-.05.05-.52-.05-.57,0-.05.05.05.52,0,.57-.05.06-.85-.05-1.06-.01-.17.03.02.41-.16.44-.21.04-1-.07-1.06-.01-.05.05.05.52,0,.57-.06.06-1.5-.06-1.56,0-.05.05.05.52,0,.57-.05.05-.52-.05-.57,0-.05.05.05.52,0,.57-.06.06-1.64-.07-1.7,0-.05.05.05.52,0,.57-.06.06-1.5-.06-1.56,0-.05.05.05.52,0,.57-.05.06-1.08-.06-1.14,0-.05.05.05.52,0,.57-.06.06-1.64-.07-1.7,0-.04.04.03.44,0,.57h-2.13s.03.57,0,.57h-2.27s.09.39-.08.43c-.27.07-1.55-.09-1.63-.01-.04.04.03.44,0,.57h-2.69s.03.57,0,.57h-4.96s.03.57,0,.57h-8.79s.03-.57,0-.57h-4.96s.03-.57,0-.57h-3.4s.03-.57,0-.57h-2.69s.09-.39-.08-.43c-.33-.09-2.1.11-2.19.01-.04-.04.03-.44,0-.57h-2.13c-.02-.13.04-.53,0-.57-.06-.06-1.64.07-1.7,0-.05-.05.05-.52,0-.57-.06-.06-1.64.07-1.7,0-.05-.05.05-.52,0-.57-.06-.06-1.5.06-1.56,0-.05-.05.05-.52,0-.57-.05-.06-1.08.06-1.14,0-.05-.05.05-.52,0-.57-.05-.06-1.08.06-1.14,0-.05-.05.05-.52,0-.57-.05-.06-1.08.06-1.14,0-.05-.05.05-.52,0-.57-.06-.07-1.23.06-1.48.01-.17-.03.02-.41-.16-.44-.21-.04-1,.07-1.06.01-.05-.05.05-.52,0-.57-.05-.05-.52.05-.57,0-.05-.05.05-.52,0-.57-.05-.06-1.08.06-1.14,0-.05-.05.05-.52,0-.57-.05-.06-1.08.06-1.14,0-.05-.05.05-.52,0-.57-.05-.05-.94.06-.99,0-.05-.05.05-.52,0-.57-.05-.06-1.08.06-1.14,0-.05-.05.05-.52,0-.57-.05-.05-.52.05-.57,0-.05-.05.05-.52,0-.57-.05-.06-1.08.06-1.14,0-.05-.05.05-.52,0-.57-.05-.05-.47.07-.56-.01-.05-.05.04-.34-.02-.39-.09-.09-.51.04-.56-.01-.05-.05.05-.52,0-.57-.05-.05-.94.06-.99,0-.05-.05.05-.52,0-.57-.05-.05-.52.05-.57,0-.05-.05.05-.52,0-.57-.05-.05-.52.05-.57,0-.05-.05.05-.52,0-.57-.05-.06-1.08.06-1.14,0-.05-.05.05-.52,0-.57-.05-.05-.52.05-.57,0-.05-.05.05-.52,0-.57-.05-.05-.52.05-.57,0-.05-.05.05-.52,0-.57-.05-.05-.52.05-.57,0-.05-.05.08-.46-.02-.56-.05-.05-.3.03-.38-.04-.08-.08,0-.33-.04-.38-.1-.11-1.06.05-1.12-.02-.05-.05.05-.52,0-.57-.05-.05-.52.05-.57,0-.05-.05.05-.52,0-.57-.05-.05-.52.05-.57,0-.05-.05.05-.52,0-.57s-.52.05-.57,0c-.05-.05.05-.52,0-.57-.05-.05-.52.05-.57,0-.05-.05.05-.52,0-.57-.05-.05-.52.05-.57,0-.05-.05.05-.52,0-.57-.05-.05-.52.05-.57,0-.05-.05.05-.52,0-.57-.05-.05-.52.05-.57,0-.05-.05.08-.46-.02-.56-.05-.05-.3.03-.38-.04-.08-.08,0-.33-.04-.38-.09-.1-.5.03-.56-.02-.06-.05.06-1.08,0-1.14s-1.08.06-1.14,0c-.06-.06.06-1.08,0-1.14-.05-.05-.52.05-.57,0-.05-.05.05-.52,0-.57-.05-.05-.52.05-.57,0-.05-.05.05-.52,0-.57-.05-.05-.52.05-.57,0-.06-.05.06-1.09,0-1.14-.06-.05-.47.07-.56-.02-.05-.05.04-.34-.02-.39-.09-.09-.51.04-.56-.01-.05-.05.07-.47-.01-.56-.06-.06-.39.07-.42-.08-.04-.21.07-1,.01-1.06-.05-.05-.52.05-.57,0-.05-.05.05-.52,0-.57-.05-.05-.52.05-.57,0-.06-.05.06-1.08,0-1.14-.05-.05-.52.05-.57,0-.05-.05.05-.52,0-.57-.05-.05-.52.05-.57,0-.05-.05.06-.94,0-.99-.05-.05-.52.05-.57,0-.06-.05.06-1.08,0-1.14-.05-.05-.52.05-.57,0-.06-.05.06-1.08,0-1.14-.05-.05-.52.05-.57,0-.06-.05.06-1.08,0-1.14-.05-.05-.52.05-.57,0-.06-.05.05-.85.01-1.06-.03-.17-.41.02-.44-.16-.05-.25.08-1.42.01-1.48-.05-.05-.52.05-.57,0-.06-.05.06-1.08,0-1.14-.05-.05-.52.05-.57,0-.06-.05.06-1.08,0-1.14-.05-.05-.52.05-.57,0-.06-.06.07-1.64,0-1.7-.04-.04-.44.03-.57,0v-2.13s-.57.03-.57,0v-2.27c-.13-.02-.53.04-.57,0-.06-.06.07-1.5,0-1.56-.04-.04-.44.03-.57,0v-2.84c-.13-.02-.53.04-.57,0-.12-.11.1-2.71.01-3.18-.03-.17-.41.02-.44-.16-.14-.68.21-5.26.01-5.45-.04-.04-.43.03-.57,0-.21-1.06.78-.07.57-1.13-.04-.04-.57.03-.57,0v-6.52c.13-.02.53.04.57,0,.22-.21-.16-5.28-.01-6.02.03-.17.41.02.44-.16.08-.42-.11-2.66-.01-2.76.04-.04.44.03.57,0v-2.69s.57.03.57,0v-2.27s.57.03.57,0v-2.13c1.01.31.38-.96.57-1.13.05-.05.52.05.57,0,.06-.06-.07-1.64,0-1.7.05-.05.52.05.57,0,.06-.06-.06-1.5,0-1.56.05-.05.52.05.57,0,.06-.05-.06-1.08,0-1.14.05-.05.52.05.57,0,.06-.05-.05-.85-.01-1.06.03-.17.41.02.44-.16.04-.21-.07-1-.01-1.06.05-.05.52.05.57,0,.06-.06-.06-1.5,0-1.56.05-.05.52.05.57,0,.05-.05-.05-.52,0-.57.05-.05.52.05.57,0,.06-.05-.06-1.08,0-1.14.05-.05.52.05.57,0,.06-.05-.06-1.08,0-1.14.05-.05.52.05.57,0,.06-.05-.06-1.08,0-1.14.05-.05.52.05.57,0,.05-.05-.05-.52,0-.57.05-.05.52.05.57,0,.05-.05-.06-.94,0-.99.05-.05.52.05.57,0,.05-.05-.07-.47.01-.56.05-.05.34.03.39-.02.1-.1-.05-1.06.02-1.12.05-.05.52.05.57,0,.05-.05-.05-.52,0-.57.05-.05.52.05.57,0,.05-.05-.05-.52,0-.57.05-.05.52.05.57,0,.06-.05-.06-1.09,0-1.14.06-.05.47.07.56-.02.05-.05-.04-.34.02-.39.09-.09.51.04.56-.01.05-.05-.05-.52,0-.57.05-.05.52.05.57,0,.06-.05-.06-1.08,0-1.14.05-.05.52.05.57,0,.05-.05-.05-.52,0-.57.05-.05.52.05.57,0,.05-.05-.07-.47.01-.56.05-.05.34.04.39-.02.09-.09-.04-.51.01-.56.05-.05.52.05.57,0,.05-.05-.05-.52,0-.57.05-.05.52.05.57,0,.05-.05-.05-.52,0-.57.05-.05.47.07.56-.01.05-.05-.04-.34.02-.39.09-.09.51.04.56-.01.05-.05-.05-.52,0-.57.05-.05.52.05.57,0s-.05-.52,0-.57c.05-.05.52.05.57,0,.05-.05-.05-.52,0-.57.05-.05.52.05.57,0,.05-.05-.05-.52,0-.57.05-.05.52.05.57,0s-.05-.52,0-.57c.05-.05.52.05.57,0,.05-.05-.07-.47.01-.56.05-.05.34.04.39-.02.09-.09-.04-.51.01-.56.05-.05.52.05.57,0,.05-.05-.05-.52,0-.57.06-.07,1.03.09,1.12-.02.05-.05-.03-.34.02-.39.09-.09.51.04.56-.01.05-.05-.05-.52,0-.57.05-.05.52.05.57,0s-.05-.52,0-.57c.05-.05.52.05.57,0,.05-.05-.05-.52,0-.57.05-.06,1.09.06,1.14,0,.05-.06-.07-.47.01-.56.05-.05.34.04.39-.02.09-.09-.04-.5.01-.56.05-.06,1.08.06,1.14,0,.05-.05-.05-.52,0-.57.05-.05.52.05.57,0,.05-.05-.05-.52,0-.57.05-.06,1.08.06,1.14,0,.05-.05-.05-.52,0-.57.05-.05.47.07.56-.01.06-.06-.07-.39.08-.42.21-.04,1,.07,1.06.01.05-.05-.05-.52,0-.57.05-.05.94.06.99,0,.05-.05-.05-.52,0-.57.05-.06,1.08.06,1.14,0,.05-.05-.05-.52,0-.57.05-.06,1.08.06,1.14,0,.05-.05-.05-.52,0-.57.05-.06,1.08.06,1.14,0,.05-.05-.05-.52,0-.57.05-.05.94.06.99,0,.05-.05-.05-.52,0-.57.05-.06,1.08.06,1.14,0,.05-.05-.05-.52,0-.57.06-.06,1.64.07,1.7,0,.05-.05-.05-.52,0-.57.05-.06.85.05,1.06.01.17-.03-.02-.41.16-.44.25-.05,1.42.08,1.48.01.05-.05-.05-.52,0-.57.06-.06,1.64.07,1.7,0,.04-.04-.03-.44,0-.57h2.27s-.03-.57,0-.57h2.69s-.03-.57,0-.57h3.26s-.03-.57,0-.57h3.4s-.03-.57,0-.57h14.89s-.03.57,0,.57h3.26s-.03.57,0,.57h2.84s-.03.57,0,.57h2.13s-.03.57,0,.57h2.27c.02.13-.04.53,0,.57.06.06,1.5-.06,1.56,0,.05.05-.05.52,0,.57.07.07,1.35-.07,1.62-.01.17.03-.02.41.16.44.28.05,1.56-.08,1.62-.01.05.05-.05.52,0,.57.06.06,1.5-.06,1.56,0,.05.05-.05.52,0,.57.05.05.52-.05.57,0,.05.05-.05.52,0,.57.06.06,1.64-.07,1.7,0,.05.05-.05.52,0,.57.05.05.52-.05.57,0,.05.05-.05.52,0,.57.05.06,1.08-.06,1.14,0,.05.05-.05.52,0,.57.05.05.94-.06.99,0,.05.05-.05.52,0,.57.05.06,1.08-.06,1.14,0,.05.05-.05.52,0,.57.05.05.47-.07.56.01.05.05-.03.34.02.39.1.1,1.06-.05,1.12.02.05.05-.05.52,0,.57.05.05.52-.05.57,0,.05.05-.05.52,0,.57.05.05.94-.06.99,0,.05.05-.05.52,0,.57.05.05.52-.05.57,0,.05.05-.05.52,0,.57.05.06,1.08-.06,1.14,0,.05.05-.05.52,0,.57.05.05.52-.05.57,0,.05.05-.05.52,0,.57.05.05.52-.05.57,0,.05.05-.05.52,0,.57.05.05.52-.05.57,0,.05.05-.05.52,0,.57.06.07,1.02-.09,1.12.02.05.05-.04.3.04.38.08.07.33,0,.38.04.1.09-.03.5.02.56.05.05.52-.05.57,0,.05.05-.05.52,0,.57.05.05.52-.05.57,0,.05.05-.05.52,0,.57.05.05.52-.05.57,0,.05.05-.05.52,0,.57.05.05.52-.05.57,0s-.05.52,0,.57c.05.05.52-.05.57,0,.13.13-.35.75.57.57v.57c-.91-.19-.44.45-.57.57-.05.05-.47-.07-.56.01-.05.05.04.34-.02.39-.09.09-.51-.04-.56.01-.05.05.05.52,0,.57-.05.05-.52-.05-.57,0-.05.05.05.52,0,.57-.05.06-1.09-.06-1.14,0-.05.06.07.47-.02.56-.05.05-.34-.04-.39.02-.09.09.04.51-.01.56-.05.05-.52-.05-.57,0-.05.05.05.52,0,.57-.05.05-.52-.05-.57,0-.05.05.05.52,0,.57-.05.05-.52-.05-.57,0-.05.05.05.52,0,.57s-.52-.05-.57,0c-.05.05.05.52,0,.57-.05.05-.47-.07-.56.01-.05.05.04.34-.02.39-.09.09-.51-.04-.56.01-.05.05.05.52,0,.57-.05.05-.52-.05-.57,0-.05.05.05.52,0,.57-.05.05-.52-.05-.57,0-.05.05.07.47-.01.56-.05.05-.34-.04-.39.02-.09.09.04.51-.01.56-.05.05-.52-.05-.57,0-.05.05.05.52,0,.57-.05.05-.52-.05-.57,0-.05.05.05.52,0,.57-.05.05-.52-.05-.57,0-.05.05.05.52,0,.57-.05.05-.52-.05-.57,0-.05.05.05.52,0,.57-.05.05-.47-.07-.56.01-.05.05.04.34-.02.39-.09.09-.51-.04-.56.01-.05.05.05.52,0,.57-.05.05-.52-.05-.57,0-.05.05.05.52,0,.57-.05.05-.52-.05-.57,0-.06.06.05.85.01,1.06-.03.16-.36.02-.42.08-.09.09.04.51-.01.56-.05.05-.52-.05-.57,0-.05.05.05.52,0,.57-.06.06-1.64-.07-1.7,0-.05.05.05.52,0,.57-.04.04-1.1.04-1.14,0-.05-.05.05-.52,0-.57-.05-.06-1.08.06-1.14,0-.05-.06.07-.47-.02-.56-.05-.05-.34.04-.39-.02-.09-.09.04-.5-.02-.56-.05-.06-1.08.06-1.14,0-.05-.05.05-.52,0-.57-.05-.05-.52.05-.57,0-.05-.05.05-.52,0-.57-.05-.05-.52.05-.57,0-.05-.05.05-.52,0-.57-.05-.05-.52.05-.57,0-.05-.05.05-.52,0-.57-.06-.07-1.03.09-1.12-.02-.05-.05.03-.34-.02-.39-.09-.09-.51.04-.56-.01-.05-.05.05-.52,0-.57-.05-.05-.94.06-.99,0-.05-.05.05-.52,0-.57-.05-.06-1.08.06-1.14,0-.05-.05.05-.52,0-.57-.05-.05-.52.05-.57,0-.05-.05.05-.52,0-.57-.05-.06-1.08.06-1.14,0-.05-.05.05-.52,0-.57-.05-.06-1.08.06-1.14,0-.05-.05.05-.52,0-.57-.05-.05-.94.06-.99,0-.05-.05.05-.52,0-.57-.06-.06-1.64.07-1.7,0-.04-.04.03-.44,0-.57h-2.27s.02-.43,0-.43h-2.13s.03-.57,0-.57h-3.4s.03-.57,0-.57h-8.22s.03.57,0,.57h-2.69s.03.57,0,.57h-2.27s.09.39-.08.43c-.27.07-1.55-.09-1.63-.01-.05.05.05.52,0,.57-.06.06-1.5-.06-1.56,0-.05.05.05.52,0,.57-.06.06-1.64-.07-1.7,0-.05.05.05.52,0,.57-.05.06-1.08-.06-1.14,0-.05.05.05.52,0,.57-.05.05-.94-.06-.99,0-.05.05.05.52,0,.57-.05.06-1.08-.06-1.14,0-.05.05.05.52,0,.57-.05.05-.52-.05-.57,0-.05.05.05.52,0,.57-.05.06-1.08-.06-1.14,0-.05.05.05.52,0,.57-.06.06-.85-.05-1.06-.01-.16.03-.02.36-.08.42-.09.09-.51-.04-.56.01-.05.05.05.52,0,.57-.05.05-.94-.06-.99,0-.05.05.05.52,0,.57-.05.05-.52-.05-.57,0-.05.05.05.52,0,.57-.05.05-.52-.05-.57,0-.05.05.05.52,0,.57-.05.05-.52-.05-.57,0-.05.05.05.52,0,.57-.05.06-1.08-.06-1.14,0-.05.05.05.52,0,.57-.05.05-.52-.05-.57,0-.05.05.05.52,0,.57-.05.05-.52-.05-.57,0-.05.05.08.46-.02.56-.05.05-.3-.03-.38.04-.08.08,0,.33-.04.38-.09.1-.5-.03-.56.02-.05.05.05.52,0,.57-.05.05-.52-.05-.57,0-.05.05.05.52,0,.57-.05.05-.52-.05-.57,0-.05.05.05.52,0,.57-.05.05-.52-.05-.57,0-.05.05.05.52,0,.57-.05.05-.52-.05-.57,0-.06.05.06,1.08,0,1.14-.05.05-.52-.05-.57,0-.05.05.05.52,0,.57-.05.05-.52-.05-.57,0-.05.05.05.52,0,.57-.05.05-.52-.05-.57,0-.06.06.08.88-.02.98-.05.05-.34-.03-.39.02-.09.09.04.51-.01.56-.05.05-.52-.05-.57,0-.06.05.06,1.08,0,1.14-.05.05-.52-.05-.57,0-.05.05.05.52,0,.57-.05.05-.52-.05-.57,0-.06.05.06,1.08,0,1.14-.05.05-.52-.05-.57,0-.06.05.06,1.08,0,1.14-.05.05-.52-.05-.57,0-.05.05.06.94,0,.99-.05.05-.52-.05-.57,0-.06.05.06,1.08,0,1.14-.05.05-.52-.05-.57,0-.06.05.06,1.08,0,1.14-.05.05-.52-.05-.57,0-.06.05.05.85.01,1.06-.03.17-.41-.02-.44.16-.05.25.08,1.42.01,1.48-.05.05-.52-.05-.57,0-.06.06.07,1.64,0,1.7-.05.05-.52-.05-.57,0-.06.06.07,1.64,0,1.7-.04.04-.44-.03-.57,0v2.69s-.57-.03-.57,0v4.96s-.57-.03-.57,0v3.26s.57-.03.57,0v4.96s.57-.03.57,0v2.84s.57-.03.57,0v2.13c.13.02.53-.04.57,0,.06.06-.07,1.64,0,1.7.05.05.52-.05.57,0,.06.05-.05.85-.01,1.06.03.17.41-.02.44.16.05.28-.08,1.56-.01,1.62.05.05.52-.05.57,0,.05.05-.06.94,0,.99.05.05.52-.05.57,0,.06.05-.06,1.08,0,1.14.05.05.52-.05.57,0,.06.05-.06,1.08,0,1.14.05.05.52-.05.57,0,.06.05-.06,1.08,0,1.14.05.05.52-.05.57,0,.05.05-.06.94,0,.99.05.05.52-.05.57,0,.06.05-.06,1.08,0,1.14.05.05.52-.05.57,0,.05.05-.05.52,0,.57.05.05.52-.05.57,0,.05.05-.07.47.01.56.06.06.39-.07.42.08.04.21-.07,1-.01,1.06.05.05.52-.05.57,0,.05.05-.05.52,0,.57.05.05.52-.05.57,0,.05.05-.05.52,0,.57.05.05.47-.07.56.01.05.05-.04.34.02.39.09.09.5-.04.56.02.06.05-.06,1.08,0,1.14.05.05.52-.05.57,0,.05.05-.05.52,0,.57.05.05.52-.05.57,0,.05.05-.05.52,0,.57.05.05.52-.05.57,0,.05.05-.05.52,0,.57s.52-.05.57,0c.05.05-.05.52,0,.57.05.05.94-.06.99,0,.05.05-.05.52,0,.57.05.05.52-.05.57,0,.05.05-.05.52,0,.57s.52-.05.57,0c.05.05-.05.52,0,.57.05.05.47-.07.56.01.05.05-.04.34.02.39.09.09.51-.04.56.01.05.05-.05.52,0,.57.05.05.52-.05.57,0,.05.05-.05.52,0,.57.05.06,1.09-.06,1.14,0,.05.06-.07.47.01.56.05.05.34-.04.39.02.09.09-.04.5.02.56.05.06,1.08-.06,1.14,0,.05.05-.05.52,0,.57.05.05.52-.05.57,0,.05.05-.05.52,0,.57.05.06,1.08-.06,1.14,0,.05.05-.05.52,0,.57.05.06,1.08-.06,1.14,0,.05.05-.05.52,0,.57.06.06.89-.08.98.02.06.06-.08.39.09.42.21.04,1-.07,1.06-.01.05.05-.05.52,0,.57.05.06,1.08-.06,1.14,0,.05.05-.05.52,0,.57.06.06,1.64-.07,1.7,0,.05.05-.05.52,0,.57.06.06,1.5-.07,1.56,0,.04.04-.03.44,0,.57h2.27s-.03.57,0,.57h2.69s-.03.57,0,.57h13.89s-.03-.57,0-.57h2.69s-.03-.57,0-.57h2.27c.02-.13-.04-.53,0-.57.06-.06,1.5.06,1.56,0,.05-.05-.05-.52,0-.57.05-.06,1.08.06,1.14,0,.05-.05-.05-.52,0-.57.05-.06,1.08.06,1.14,0,.05-.05-.05-.52,0-.57.06-.06.85.05,1.06.01.16-.03.03-.36.09-.42.1-.1.92.05.98-.02.05-.05-.05-.52,0-.57.05-.06,1.08.06,1.14,0,.05-.05-.05-.52,0-.57.05-.06,1.08.06,1.14,0,.05-.05-.05-.52,0-.57.05-.05.52.05.57,0,.05-.05-.05-.52,0-.57.05-.05.52.05.57,0,.05-.05-.05-.52,0-.57.05-.06,1.09.06,1.14,0,.05-.06-.07-.47.02-.56.05-.05.34.04.39-.02.09-.09-.04-.51.01-.56.05-.05.52.05.57,0,.05-.05-.05-.52,0-.57.05-.05.47.07.56-.01.05-.05-.04-.34.02-.39.09-.09.51.04.56-.01.05-.05-.05-.52,0-.57.05-.06,1.08.06,1.14,0s-.06-1.08,0-1.14c.05-.05.52.05.57,0,.05-.05-.05-.52,0-.57.05-.05.52.05.57,0s-.05-.52,0-.57c.05-.05.52.05.57,0,.05-.05-.07-.47.01-.56.05-.05.34.04.39-.02.09-.09-.04-.51.01-.56.05-.05.52.05.57,0,.06-.05-.06-1.09,0-1.14.06-.05.47.07.56-.02.05-.05-.04-.34.02-.39.09-.09.51.04.56-.01.05-.05-.05-.52,0-.57.05-.05.52.05.57,0,.06-.05-.06-1.08,0-1.14.05-.05.52.05.57,0,.06-.05-.06-1.08,0-1.14.05-.05.52.05.57,0,.06-.05-.06-1.08,0-1.14.05-.05.52.05.57,0,.05-.05-.06-.94,0-.99.05-.05.52.05.57,0,.06-.05-.05-.85-.01-1.06.03-.17.41.02.44-.16.05-.28-.08-1.56-.01-1.62.05-.05.52.05.57,0,.06-.05-.06-1.08,0-1.14.05-.05.52.05.57,0,.06-.06-.07-1.5,0-1.56.04-.04.44.03.57,0v-2.84h-34.73c.18-.92-.43-.44-.57-.57-.18-.17.43-1.28-.57-.99v-20.41c.91.19.44-.44.57-.57.05-.05.52.05.57,0,.05-.05-.05-.52,0-.57.13-.13.75.35.57-.57h56.28c-.19.92.44.44.57.57.05.05-.05.52,0,.57.05.05.52-.05.57,0,.05.05-.07.47.01.56.05.05.34-.03.39.02.26.26-.48,1.91.59,1.55v15.59Z"/>
  </g>
</svg>