<?xml version="1.0" encoding="UTF-8"?>
<svg id="Capa_2" data-name="Capa 2" xmlns="http://www.w3.org/2000/svg" viewBox="0 0 101.3 116.62">
  <defs>
    <style>
      .cls-1 {
        fill: #2378e5;
      }
    </style>
  </defs>
  <g id="Capa_1-2" data-name="Capa 1">
    <path class="cls-1" d="M101.3,104.3V11.95c-.03-.15-.39.01-.42-.13-.1-.46.13-3.01.01-3.12-.05-.04-.49.04-.53,0-.06-.05.06-1.42,0-1.47-.05-.04-.49.04-.53,0-.05-.04.05-.81,0-.86-.05-.04-.49.04-.53,0-.05-.05.07-.41-.01-.48-.05-.05-.32.03-.37-.02-.09-.08.04-.8-.02-.85-.05-.04-.49.04-.53,0-.05-.04.05-.45,0-.49-.05-.04-.49.04-.53,0-.05-.05.07-.4-.02-.48-.05-.04-.28.03-.35-.04-.07-.07,0-.28-.04-.33-.09-.08-.47.03-.52-.02-.05-.04.05-.45,0-.49-.05-.04-.49.04-.53,0-.05-.04.05-.45,0-.49-.05-.04-.44.06-.53-.01-.06-.05.07-.34-.08-.36-.17-.03-.81.06-.86,0-.05-.04.05-.45,0-.49-.05-.04-.49.04-.53,0-.05-.04.05-.45,0-.49-.05-.05-.88.05-.93,0-.05-.04.05-.45,0-.49-.07-.07-1.16.07-1.39,0-.15-.04-.05-.38-.07-.38h-1.99s.03-.46,0-.49H10.91c-.02.11.04.46,0,.49-.06.06-1.27-.06-1.52,0-.16.03.01.36-.15.38-.24.04-1.33-.07-1.39,0-.05.04.05.45,0,.49-.05.05-.88-.05-.93,0-.05.04.05.45,0,.49-.05.05-1.02-.05-1.06,0-.05.05.07.4-.02.48-.05.04-.28-.03-.35.04-.07.07,0,.28-.04.33-.09.08-.47-.03-.52.02-.05.04.05.45,0,.49-.05.05-1.02-.05-1.06,0-.05.05.07.41-.01.48-.06.05-.37-.06-.39.07-.03.16.06.75.01.79-.05.04-.49-.04-.53,0-.05.04.05.45,0,.49-.05.04-.49-.04-.53,0-.05.04.07.41-.01.48-.06.05-.37-.06-.4.07-.03.16.06.75.01.79-.05.04-.49-.04-.53,0-.05.04.05.81,0,.86-.05.04-.49-.04-.53,0-.05.05.06.94,0,.98-.05.04-.49-.04-.53,0-.07.06.07,1.49.01,1.77-.03.15-.39-.01-.42.13v96.39c.8-.08.22,1.37.41,1.54.05.04.49-.04.53,0,.06.05-.06,1.3,0,1.35.05.04.49-.04.53,0,.05.04-.05.81,0,.86.05.04.49-.04.53,0,.05.05-.07.41.01.48.06.05.37-.06.4.07.03.16-.06.75-.01.79.05.04.49-.04.53,0,.05.04-.05.45,0,.49.05.04.49-.04.53,0,.05.05-.07.4.02.48.05.04.28-.03.35.04.07.07,0,.28.04.33.09.08.47-.03.52.02.05.04-.05.45,0,.49.05.04.49-.04.53,0,.05.04-.05.45,0,.49.05.04.49-.04.53,0,.05.04-.05.45,0,.49.06.06.83-.07.92.01.06.05-.07.33.08.36.2.04.94-.06.99,0,.05.05-.05.45,0,.49.05.05.88-.05.93,0,.05.04-.05.45,0,.49.05.05,1.41-.06,1.46,0,.05.04-.05.45,0,.49.07.07,1.62-.06,1.92,0,.16.03-.01.36.15.38h76.95c.16-.03-.01-.36.15-.38.31-.06,1.85.08,1.92,0,.05-.04-.05-.45,0-.49.05-.05,1.41.06,1.46,0,.05-.04-.05-.45,0-.49.05-.05,1.01.05,1.06,0,.05-.04-.05-.45,0-.49.06-.06.83.07.92-.01.06-.05-.07-.33.08-.36.2-.04.94.06.99,0,.05-.05-.07-.41.01-.48.05-.05.32.03.37-.02.08-.08-.03-.44.01-.48.04-.04.49.04.53,0s-.05-.45,0-.49c.05-.04.44.06.52-.01.05-.05-.03-.29.02-.34.08-.08.48.03.52-.01.05-.04-.07-.41.01-.48.05-.05.32.03.37-.02.08-.08-.03-.44.01-.48.05-.04.44.06.52-.01.05-.05-.03-.29.02-.34.08-.08.47.03.52-.01.05-.05-.05-.73-.01-.91.03-.14.34-.02.39-.07.09-.08-.05-.8.01-.85.05-.04.49.04.53,0,.05-.05-.06-.94,0-.98.05-.04.49.04.53,0,.06-.05-.06-1.3,0-1.35.05-.04.49.04.53,0,.1-.09-.09-2.23-.01-2.63.03-.15.39.01.42-.13ZM14.36,33.75c.74.04.26-.8.41-.93.05-.04.49.04.53,0,.05-.05-.06-.94,0-.98.05-.04.44.06.53-.01.06-.05-.07-.34.08-.36.63-.12,1.61.37,1.39-.48h11.3c-.17-.79.41-.38.53-.49.02-.02.02-.47,0-.49-.05-.04-.49.04-.53,0-.01-.01-.01-.35,0-.37.12-.11.76.37.54-.79-.04-.18-.78.18-.54-.56.04-.03.53.02.53,0v-4.9c-.12-.02-.49.04-.53,0-.04-.04-.03-.9,0-1.03.03-.16.53-.03.53-.07v-2.2c.95.27.35-.83.53-.98.05-.04.49.04.53,0,.05-.04-.05-.45,0-.49.06-.06.82.07.92-.01.05-.05-.01-.35,0-.35h3.46s-.03-.49,0-.49c.29,0,1.93-.07,1.99,0,.03.03-.03.49,0,.49h2.53s-.06.27.03.34c.08.06.31,0,.36.03.09.08-.03.44.02.48.04.04.49-.04.53,0,.05.04-.05.45,0,.49.05.04.49-.04.53,0,.07.06-.07,1.07-.01,1.28.04.14.41.05.41.07v10.04h11.96c-.25.87.72.31.92.5.06.05-.07.33.08.36.2.04.93-.06.99,0,.06.05-.05.73,0,.91.03.15.39-.01.42.13.12.58-.4,1.48.52,1.28v4.53s-.53-.02-.53,0v1.84s-.34-.05-.39,0c-.08.09.04.44-.01.48-.05.04-.44-.06-.52.01-.05.05.03.29-.02.34-.08.08-.47-.03-.52.01-.05.04.05.45,0,.49-.16.15-1.2-.37-.93.49h-11.96v10.9s-.37-.07-.41.07c-.05.17.07.86,0,.91-.05.04-.44-.06-.52.01-.05.05.03.29-.02.34-.08.08-.47-.03-.52.01-.05.04.05.45,0,.49-.16.15-1.2-.37-.93.49h-7.44c.27-.86-.77-.34-.93-.49-.05-.04.05-.45,0-.49-.05-.04-.49.04-.53,0-.17-.14.4-1.11-.53-.86v-2.33s-.53.02-.53,0v-1.84s.53.02.53,0v-7.23h-11.3c-.02-.11.04-.46,0-.49-.06-.06-1.54.06-1.6,0-.05-.05.07-.4-.02-.48-.05-.04-.28.03-.35-.04-.07-.07,0-.28-.04-.33-.09-.08-.47.03-.52-.02-.05-.04.05-.45,0-.49-.05-.04-.49.04-.53,0-.18-.16.39-1.49-.41-1.42v-5.38ZM68.2,92.48c-.93-.2-.4.7-.52,1.28-.03.14-.34.02-.4.07-.08.08.03.44-.01.48-.04.04-.49-.04-.53,0-.05.04.05.45,0,.49-.05.05-.79-.05-.99,0-.15.03-.03.31-.08.36-.2.19-1.17-.36-.92.5H17.82s.05-.45,0-.49c-.07-.06-1.27.06-1.52,0-.14-.03-.02-.28-.1-.35-.07-.06-.31,0-.36-.03-.09-.08.03-.43-.02-.48-.04-.04-.49.04-.53,0-.05-.04.05-.45,0-.49-.05-.04-.49.04-.53,0-.06-.05.08-.77-.01-.85-.06-.05-.36.07-.39-.07-.07-.32-.07-3.22,0-3.54.03-.14.34-.02.39-.07.09-.08-.05-.8.01-.85.05-.04.49.04.53,0,.05-.04-.05-.45,0-.49.05-.04.49.04.53,0,.05-.05-.07-.41.01-.48.05-.05.32.03.37-.02.08-.08-.03-.43.01-.48.17-.17,1.76.36,1.67-.38h46.77c-.04.69.87.24,1,.37.05.04-.05.45,0,.49.05.05,1.01-.05,1.06,0,.05.05-.05.45,0,.49.05.04.49-.04.53,0,.05.04-.07.41.01.48.06.05.37-.06.4.07.13.58-.4,1.48.52,1.28v2.69ZM87.47,73.87s-.44-.06-.52.02c-.05.04.03.26-.04.33-.07.07-.31,0-.35.04-.1.09.05.91-.02.97-.06.05-.79-.05-.99,0-.15.03-.03.31-.08.36-.2.19-1.17-.36-.92.5H17.82c-.02-.11.04-.46,0-.49-.07-.07-1.48.08-1.58-.02-.04-.04.03-.26-.04-.32-.07-.06-.31,0-.36-.03-.09-.08.03-.43-.02-.48-.04-.04-.49.04-.53,0-.17-.14.4-1.11-.53-.86v-4.16c.93.25.36-.71.53-.86.05-.04.49.04.53,0,.05-.04-.05-.45,0-.49.05-.05.88.05.93,0,.05-.04-.05-.45,0-.49.17-.16,1.36.38,1.06-.49h66.72s-.05.45,0,.49c.05.05.88-.05.93,0,.05.04-.05.45,0,.49.05.05,1.02-.05,1.06,0,.05.05-.07.41.01.48.06.05.37-.06.39.07.11.51-.35.92.52.79v4.16Z"/>
  </g>
</svg>