<?xml version="1.0" encoding="UTF-8"?>
<svg id="Capa_2" data-name="Capa 2" xmlns="http://www.w3.org/2000/svg" viewBox="0 0 116.14 120.21">
  <defs>
    <style>
      .cls-1 {
        fill: #2478e3;
      }
    </style>
  </defs>
  <g id="Capa_1-2" data-name="Capa 1">
    <g>
      <path class="cls-1" d="M68.72,119.25c-.29-.26-2.27-1.58-2.41-1.62-.25-.06-.7.08-.82-.03-.06-.06.05-.38-.06-.51-.07-.09-.36-.02-.53-.18-1.42-1.36-2.8-2.86-3.9-4.49-.1-.15-.6-1.4-.7-1.43l-44.98.03c-.52-.63-.91-.26-1.5-.45-1.49-.47-1.95-1.32-2.75-2.4-.15-.2-.88-.71-.9-.8-.16-.79.22-1.01-.61-1.7V14.73c.96-.15.46-.29.61-.94.22-.95,2.58-3.07,3.51-3.54.46-.22.88.08,1.19-.56,22.2-.22,44.51-.22,66.71,0,1.62.86,2.35.8,3.75,2.26.14.15.42.1.52.2.38.4,1.57,3.03,1.61,3.54.76,8.22-.55,17.57-.01,25.91.85.88.17.69.03.87-.29.38.3.39.32.42.44.72-.31,1-.33,1.07-.29,1.2.36,1.39.4,1.7.25,2-.21,4.55-.03,6.62.39,0,.65.47.74.5.24.08.71-.08.82.03.07.06-.05.48.02.54.13.12.65-.1.92.07,1.51.91,3.35,2.19,4.59,3.38.5.48.98,1.22,1.68,1.05V13.16c0-.43-.57-.76-.58-.82-.17-.85-.31-1.76-.61-2.63-.21-.61-.88-.71-.93-.75-.07-.07-.29-1.3-.62-1.79-.13-.19-.51-.4-.7-.61-.59-.69-1.05-1.63-1.89-2.38-.17-.15-1.2-.65-1.24-.71-.08-.09-.39-.79-.78-.91-.24-.08-.71.08-.82-.03-.07-.06.05-.48-.02-.54-.11-.1-.58.03-.83-.02-.17-.04-.15-.33-.27-.39-1.49-.75-3.11-.72-4.48-1.55l-69.49-.02c-3.96,1.3-7.56,3.18-10.21,6.78C-.44,11.81.08,16.54.05,22.69c-.15,27.85.11,55.71-.03,83.56,1.03,3.38,2.22,6.52,4.64,9.03,1.25,1.3,3.57,3.15,5.15,3.77.89.35,1.64.52,2.56.72.16.03.05.35.41.4.78.1,1.9-.04,2.75-.02,4.81.11,9.77,0,14.59,0,13.08.01,26.17.09,39.25-.09.04-.17-.5-.68-.65-.81Z"/>
      <path class="cls-1" d="M116.09,89.73c-.03-.14-.3-.13-.37-.29-.15-.38-.67-1.73-1.04-1.95-.17-.1-.47.01-.67-.1-1.47-.8-1.28-.6-2.84-.92-.16-.03-.15-.37-.37-.45-.74-.28-.68-.03-1.47-.52-.2-.13-.52-.11-.65-.32-.21-.33-.08-.81-.19-1.09-.56-1.44-.6-1.98-.97-3.5-.04-.16-.33-.14-.37-.28-.26-1.07.62-1.95,1.37-2.64.8-.74,1.36-1.12,2.12-1.94.16-.17.9-.73.93-.78.17-.41.1-2.38-.08-2.83-.04-.1-.8-.88-.83-.97-.08-.24.08-.69-.04-.81-.06-.06-.38.05-.51-.06-.09-.08-.03-.35-.12-.46-.94-1.14-1.4-2.18-2.41-3.06-.27-.24-.88-1.72-1.56-1.89-1.12-.27-.47-.12-1.02-.48-1.03-.67-1.6.46-1.69.49-.66.16-.55-.18-1.32.3-.87.55-.18.41-1.34.67-.22.05-1.01.78-2.14,1.01-.24.05-.47.3-.66.31-.23.02-.46-.29-.75-.35-1.46-.3-2.15-.62-3.35-1.37-.47-.29-1.16-.92-1.42-1.06-.28-.16-.72-.07-.76-.12-.19-.17.15-4.2-.09-5.08-.04-.15-1.41-1.83-1.52-1.87-.28-.11-.55,0-.78-.06-.16-.04-.15-.31-.2-.32-1.1-.29-3.78-.31-4.88-.06-.15.03-.12.35-.27.38-.95.23-2-.31-3.02.26-.13.07-1.48,1.35-1.51,1.45-.06.2.04.48-.01.69-.04.17-.34.13-.38.28-.12.49.12,1.22,0,1.68-.05.2-.47.19-.56.45-.31.87.25.87-.48,2.07-.11.18-.06.63-.16.71-.06.04-1.09.22-1.29.46-.11.14,0,.45-.07.5-.12.11-.57-.02-.82.03-.17.04-.15.33-.27.39-.71.36-1.9.85-2.7.96-.87.13-1.8.04-2.54-.46-.23-.15-.5-.65-.75-.82-.62-.42-1.37-.71-1.98-1.12-.15-.1-.18-.41-.39-.49-.21-.08-2.24-.1-2.5-.05-.2.04-.04.41-.15.55-.08.09-.36.04-.45.12-.18.17-.66.82-.72.85-.23.12-.59-.01-.7.07-.05.04-.22.61-.54,1.03-.86,1.13-1.86,2.28-2.92,3.51-.41.47-.27.27-.6.56-.05.04-.58.99-.59,1.05-.44,2.34,1.11,3.32,2.5,4.8.23.24.3.23.64.64.14.16.88.93.9,1,.1.45.08,2.76.02,3.28-.04.34-.34.27-.39.43-.22.75-.69,2.55-1.23,3.11-.07.07-1.55,1.19-1.65,1.22-.54.14-1.47-.13-2.06,0-.1.02-1.58.95-1.64,1.02-.1.11,0,.4-.1.49-.11.1-.43,0-.5.07-.11.12.03.47-.04.6-.1.19-.34.16-.37.29-.08.31-.08,3.11,0,3.43.04.15.35.12.38.27.28,1.25.73,2.51.97,3.51.06.25-.08.72.02.83.06.07.46-.05.54.03.09.1-.02.56.07.81.08.21.51,1.09.62,1.25.04.06.92.93,1.03,1.03,1.08,1.03,1.71,1.22,3.28,1,.46-.06.69-.35,1.15-.41.38-.05,2.11-.05,2.39.07.38.16,2.5,2.85,2.9,3.34.09.11.03.38.12.46.14.12.51-.04.55.15.33,1.56-.75,1.43-.93,1.89-.12.31.02.82-.07.92-.06.07-.48-.05-.54.02-.11.11.04.74-.02,1.03-.03.14-.34.11-.38.27-.07.27-.15,1.34-.15,1.66.01.4.32,1.36.59,1.65.1.1.36.06.44.13,2.08,2.12,4.77,3.3,7.54,4.02.16.04.13.34.27.38.45.11,2.54.06,2.9-.18.05-.04.77-.83.85-.95.4-.57,1.19-1.9,1.55-2.53.12-.22.11-.69.25-.78.13-.09.49.01.74-.14.15-.09.14-.43.34-.48.67-.18,5.63-.09,6.59,0,1.15.1.8.11,1.26.84.43.69.89,1.47,1.34,2.25.16.29.36,1.13.61,1.45.03.04.81.54.86.55.45.06,2.7.07,3.09-.02.13-.03.14-.28.2-.31,1.52-.67,3.32-1.46,4.78-2.33.24-.14,1.47-.85,1.53-.91.13-.13.11-.54.24-.79.06-.12.35-.11.39-.27.09-.4-.08-.89,0-1.29.03-.16.51,0,.4-.82-.05-.37-.36-.26-.4-.42-.38-1.54-.92-2.01-1.43-3.21-.5-1.2.16-1.01.34-1.33.1-.18.4-1.18.55-1.31.13-.11.45,0,.5-.07.15-.15-.09-.79.06-.94.06-.06.38.05.51-.06.08-.07.03-.36.19-.53.86-.93,1.57-1.58,2.65-2.15.25-.13.06-.67,1.12-.3.84.29.88.31,1.8.5.15.03.15.32.29.37.87.31,2.06.35,2.89-.06.34-.17.82-1.37,1.12-1.78.82-1.14,1.23-1.51,1.86-2.77.57-1.15.36-1.1.6-2.25.03-.16.36-.15.45-.37.23-.58.03-1.1.14-1.58.03-.15.35-.12.38-.27.06-.27.06-1.4,0-1.68ZM93.89,89.84c-.03.14-.32.11-.37.28-.09.27,0,.59-.17.97-.4.87-2.93,3.96-3.6,4.29-.23.12-.61-.02-.71.07-.08.08.04.47-.03.54-.11.11-.73-.04-1.02.03-.14.03-.12.33-.28.37-1.21.32-3.38.86-4.58.59-.14-.03-.13-.32-.4-.42-1.85-.67-2.9-1.07-4.67-2.1-.13-.07-.2-.58-.53-.84-.21-.16-.52-.12-.55-.16-.13-.15.07-.62-.08-.91-.05-.09-.82-.59-.86-.69-1.38-3.23-1.38-6.72.38-9.83.95.08.33-.78.56-1.01.06-.06.38.05.51-.06.09-.08.04-.36.13-.46,1.06-1.16,2.19-1.62,3.58-2.16.24-.09.13-.42.52-.47.6-.07,5.42-.06,5.71.07.65.28.47.29,1.47.54.19.05,2.63,2.03,2.91,2.35.17.19.54,1.06.59,1.1.14.11.45,0,.5.07.11.12-.02.57.03.82.02.08.95,1.17.97,1.25.1.45.1,5.34,0,5.77Z"/>
      <path class="cls-1" d="M54.68,65.37c.08-.12.66-1.13.66-1.19v-10.81c0-.06.9-.38,1.06-.4,2.62-.34,6.03.2,8.78.02.42-.03,1.44-.14,1.79-.27.18-.06.92-1.52,1.42-1.64-.06-2.64.58-5.3.39-7.94-.14-1.84-.34-3.11-1.3-4.46-.1-.14-.03-.43-.08-.48-.13-.12-.72.03-1.02-.03-.13-.03-.13-.49-1.01-.58-3.16-.33-6.83.27-10.03,0v-10.9s-.28.07-.39-.14c-.2-.38-.46-.97-.61-1.38-.15-.15-1.04.05-1.4-.04-.15-.03-.12-.35-.27-.38-.85-.2-8.05-.16-9.13-.02-.36.05-.26.36-.41.4-.36.08-1.26-.11-1.4.04-.05.05.01.34-.09.48-.49.69-.46,1.25-.57,1.4-.07.09-.33.03-.34.04-.34.51.26,9.15,0,10.52h-11.39c-.37,0-2.21,1.49-2.25,1.84.14,2.1-.39,4.15-.38,6.25,0,1.33.14,4.37.4,5.6.03.16.33.15.39.27.14.26.11.65.25.79.06.06.29.04.44.12.09.05.1.27.23.3,2.95.77,7.84-.09,11.06.19.71.06,1.17.07,1.27.87.37,3.17-.3,7.05,0,10.3.7.19.21,1.06.42,1.28.05.06,1.22.52,1.39.6.12.06.11.35.27.39.77.17,9.44.17,10.28,0,.23-.05,1.42-.81,1.58-1.04Z"/>
      <path class="cls-1" d="M50.37,82.96c.34-.86.85-1.71.47-2.79-.09-.27-.51-.24-.56-.45-.06-.24.1-.69-.02-.82-.04-.05-.37.05-.57-.14-.16-.15-.29-.74-.41-.81-.25-.14-.69.03-1-.04-.16-.04-.05-.35-.41-.4-1.72-.23-7.44-.21-9.18,0-.36.04-.27.32-.32.35-.34.18-.76-.28-1.21-.35-1.54-.22-13.57-.27-14.77.01-.15.04-.12.35-.27.38-.95.21-1.2-.37-2.01.74-.55.76-.38.97-.6,1.65-.05.17-.34.14-.37.28-.06.26-.06,1.03,0,1.29.03.14.32.12.37.28.13.44.03.82.28,1.34.16.34,1.81,1.83,2.36,1.62l26.47.02c-.08-.8,1.4-.94,1.63-1.21.1-.12,0-.65.12-.95Z"/>
      <path class="cls-1" d="M19.13,96.15c-.06.27-.06,1.41,0,1.68.03.14.3.1.37.28.08.19-.04.5.12.83.03.07.87,1.06.92,1.12.04.04.82.37,1.01.65,2.35.24,5.35-.33,7.61-.02,1.82.26,1.37.14,3.1,0,1.41-.11,4.67-.13,6.06,0,.41.04.72.4.92.37,1.94-.31,4.23-.52,6.28-.36.5.04,1.11.38,1.31.35.07,0,1.2-.41,1.3-.46.28-.14,1.64-1.81,1.72-2.17.13-.57.12-2.44-.04-3-.04-.15-1.41-1.82-1.53-1.87l-26.93-.07c-.14.18-.76.42-.8.46-.1.1-.06.35-.14.44-.21.23-.78.6-.86.8-.08.21.02.53-.05.7-.07.18-.34.14-.37.28Z"/>
    </g>
  </g>
</svg>