<?xml version="1.0" encoding="UTF-8"?>
<svg id="Capa_2" data-name="Capa 2" xmlns="http://www.w3.org/2000/svg" viewBox="0 0 111.8 98.3">
  <defs>
    <style>
      .cls-1 {
        fill: #257ee9;
      }
    </style>
  </defs>
  <g id="Capa_1-2" data-name="Capa 1">
    <g>
      <path class="cls-1" d="M52.76,79.81c-.58-1.49-.68-2.76-1.04-4.21-1.41-5.77-.17-9.42,1.03-14.48.04-.15.35-.12.38-.27.06-.27.06-1.21,0-1.49-.03-.14-.3-.14-.37-.29-.43-.93-.62-1.06-1.34-1.81-6.93-7.25-13.75-13.67-20.24-20.14-1.01-1.01-2.25-2.22-3.23-3.16-.11-.11,0-.45-.06-.51-.15-.16-1.03,0-1.31.1-.19.07-.99,1.07-1.23,1.29-1.52,1.36-2.81,2.79-4.23,4.23-5.16,5.25-10.14,9.97-14.84,15.15-2.1,2.31-4.26,6.4-5.15,9.41-.24.82-.28,2.17-.56,2.95-.11.3-.4.21-.44.55-.16,1.27-.22,9.15.02,10.14.03.14.33.12.37.28.85,3.53,1.39,5.6,3.35,8.74,2.47,3.96,7.88,8.75,12.17,9.89.24.06,1.73.95,1.84.97,1.12.23,2.28.33,3.45.59.16.04.05.36.41.4,2.69.35,7.83,0,10.37-.42.52-.08.75-.48,1.19-.57.38-.08.83.07,1.16,0,.22-.04.04-.5.12-.58.12-.12.9.05,1.22-.03.24-.06,2.03-1.13,2.44-1.35,5-2.75,9.27-6.96,13.02-11.08.32-.35,1.86-1.97,1.9-2.32.04-.35.05-1.43-.02-1.73-.03-.14-.3-.1-.37-.28Z"/>
      <path class="cls-1" d="M63.39,45.23c.13-.12.51-.15.76-.47.16-.21.13-.52.16-.55.15-.13.62.07.91-.08.18-.09.95-1.2,1.23-1.4.13-.09,1.19-.42,1.3-.56.11-.13,0-.45.07-.51.13-.12.57.04.82-.04.07-.02.77-.71.87-.77,2.05-1.15,5.52-2.66,7.62-3.13,5.1-1.15,12.03-.81,16.73.99.73.28,1.71.66,2.54.98.18.07.14.33.28.37,1.07.3.74-.28,1.04-.84,2.66-5.03,2.41-12.62.9-18.34-.1-.37-.47-.35-.5-.5-.08-.41.08-.89,0-1.29-.02-.09-.95-1.36-.97-1.45-.06-.25.07-.72-.03-.83-.06-.07-.46.05-.54-.03-.1-.11.03-.47-.04-.61-1.55-3.04-3.94-5.9-6.45-8.24-1.43-1.32-5.49-4.46-7.37-5.17-.25-.09-.71.02-.81-.07-.08-.07.04-.48-.03-.54-.11-.1-.58.04-.83-.02-.15-.04-.12-.35-.27-.39-.35-.08-.78.08-1.1,0-.2-.05-.19-.48-.45-.56-.83-.27-2.3-.27-3.13-.58-.27-.1-.27-.34-.32-.36-1.53-.65-11.94.13-13.44,1.02-1.36.8-3.01,1.31-4.54,2.06-.15.07-.14.34-.29.37-.25.06-.7-.08-.82.03-.06.06.05.37-.07.51-.12.14-1.16.46-1.3.56-2.25,1.51-4.33,3.79-6.26,5.69-3.3,3.25-6.41,6.41-9.58,9.58-2.54,2.54-5.01,5.14-7.6,7.62-.38,1.14.87,1.97,1.61,2.73,5.77,5.95,12.04,12.09,17.85,17.86.58.58,4.2,4.41,4.5,4.5.92.28,1.75-1.35,2.32-2.04,1.44-1.74,3.36-3.75,5.24-5.51Z"/>
      <path class="cls-1" d="M110.8,61.5c-.09-.26-.52-.25-.56-.45-.42-1.79-.61-2.09-1.36-3.52-2.65-5.04-6.13-8.57-11.19-11.02-.15-.07-.14-.34-.29-.37-.25-.06-.72.07-.83-.02-.07-.06.05-.48-.02-.55-.11-.1-.58.04-.83-.02-.15-.04-.12-.35-.27-.38-.41-.1-.95.08-1.32,0-.22-.04-.04-.49-.12-.58-.12-.12-1.07.05-1.42-.03-.25-.06-1.67-.82-2.23-.93-1.2-.23-1.63.17-2.84-.37-1.6-.72-9.15.46-10.95.93-.16.04-.14.34-.28.37-.29.07-.92-.08-1.03.02-.07.07.05.48-.02.55-.11.11-.9-.04-1.22.03-.06.01-.68.43-.98.58-4.3,2.19-9.25,6.94-11.75,11.16-.46.78-1.93,3.87-2.06,4.42-.08.35.1,1.29-.03,1.42-.08.08-.53-.1-.58.12-.1.48.13,1.22,0,1.71-.04.15-.35.12-.38.27-1.09,4.79-.19,10.29,1.35,14.29.13.35.51,1.18.56,1.36.09.31-.03.93.06,1.03.07.07.48-.05.55.02.1.11-.05.58.03.82.02.07.69.75.77.87,1.17,1.79,2.32,3.75,3.79,5.25,1.36,1.38,3.37,3.04,5.04,4.08,1.96,1.22,3.92,1.85,5.89,2.67.51.21,2.15.85,2.79.96.71.11,1.67-.13,2.3.02.16.04.05.35.41.4,1.02.13,4.48.13,5.5,0,.36-.05.26-.36.41-.4.8-.19,1.79.24,2.66-.2.33-.17,1.6-.73,1.83-.78.34-.08.77.08,1.12-.03.26-.09.25-.52.45-.56.8-.19.55.06,1.39-.37,2.17-1.11,4.57-2.35,6.43-3.8,2.04-1.59,5.58-5.84,6.71-8.2.06-.12.36-.11.39-.27.06-.29-.08-.92.02-1.03.07-.07.48.05.55-.02.09-.1-.03-.58.02-.83.03-.15.3-.15.37-.29.39-.9,1.42-3.43,1.58-4.09.11-.44.3-2.11.38-2.72.44-3.37.19-8.51-.79-11.5ZM97.15,59.97c-2.16,2.38-4.17,4.36-6.51,6.7-5.19,5.19-10.66,11.1-16.32,16.28-.09.09-.02.4-.11.47-.32.25-1.22.62-1.62.61-.68-.02-.62-.5-.82-.55-.25-.06-.52.06-.79-.06-.15-.07-1.93-2.49-1.98-2.65-.12-.35-.38-1.59-.18-1.78.06-.06.38.04.51-.07.16-.14.74-1.02,1.27-1.51,1.79-1.66,3.4-3.52,4.98-5.08,4.29-4.22,8.74-8.47,12.87-12.6,2.03-2.02,3.6-4.2,6.01-5.6.18-.1.13-.65.53-.38.02.01-.02.27.06.31,1.52.89,2.3,1.4,3.08,3.05.07.15.34.15.37.29.34,1.51-.53,1.65-1.35,2.56Z"/>
    </g>
  </g>
</svg>