<?xml version="1.0" encoding="UTF-8"?>
<svg id="Capa_2" data-name="Capa 2" xmlns="http://www.w3.org/2000/svg" viewBox="0 0 87.94 110.89">
  <defs>
    <style>
      .cls-1 {
        fill: #2b7ee7;
      }
    </style>
  </defs>
  <g id="Capa_1-2" data-name="Capa 1">
    <g>
      <path class="cls-1" d="M87.85,79.98c-.06-.06-.42.04-.48-.02-.09-.09.04-.66-.03-.92-.15-.61-.49-.76-.67-1.08-1.37-2.31-3.1-4.2-4.85-6.22-.73-.84-1.62-1.91-2.28-2.97-.53-.85-1.53-3.37-1.76-4.5-.24-1.2.07-2.56-.55-3.4.49-4.99-.6-11.1,0-15.96.04-.34.34-.16.37-.5.04-.56-.33-.33-.37-.68-.32-2.52.16-4.27-.46-7.08-.96-4.37-2.21-7.9-4.45-11.82-1.25-2.19-3.34-4.71-4.96-6.38-2.96-3.04-7.99-6.98-11.76-7.72-.14-.03-.11-.35-.44-.44-.37-.1-1.34-.02-1.39-.07-.09-.09.09-1.73,0-2.11-.03-.13-.31-.1-.34-.23-.11-.5.04-.99-.19-1.64-.88-2.51-2.37-4.06-4.67-5.27-.64-.34-.93-.33-1.55-.62-1.77-.81-5.74-.07-7.34.8-.95.51-3.85,3.25-4.07,4.22-.05.22.06.64-.02.73-.06.06-.42-.04-.48.02-.09.09.04.65-.02.9-.03.12-.29.1-.33.25-.15.59-.34,2.53-.57,2.92-.36.61-1.6.45-2.07.56-.12.03-.1.28-.24.33-4.45,1.44-8.43,4.6-11.42,7.82-.31.33-1.46,1.39-1.61,1.66-.2.38-.23.67-.62,1.08-.15.15-.73.58-.75.63-.14.26.04.69-.07.8-.05.05-.33-.04-.44.06-.32.27-.36,1.26-.41,1.31-.05.05-.33-.04-.44.06-.41.34-1.15,2.52-1.41,3.1-.04.1-.3.08-.34.24-.24,1.01-.96,2.85-1.38,3.86-.44,1.05-.8,2.47-1.18,3.51-.1.28-.51,2.14-.54,2.34-1.01,7.7.06,16.31-.5,24.18-.04.6.11,1.52,0,2.02-.03.13-.29.1-.33.24-.56,2.01-.69,3.28-1.78,5.05-.74,1.2-1.48,2.25-2.34,3.3-1.58,1.93-3.76,3.77-5.07,5.99-.15.25-.57.86-.59.91-.08.32.08.78,0,1.13-.03.13-.38.11-.47.58-.52,2.67.22,5.42,2.26,7.18.09.07.32.03.4.12.1.11-.02.36.16.47.76.44,1.78.35,2.25.84,25.89.35,51.91.22,77.81.07.33-.62.6-.3,1.11-.4.1-.02.59-.73.76-.86.15-.11.45-.09.67-.23.32-.21.39-.69.45-.74.1-.09.35-.02.42-.08.15-.14,1.37-2.73,1.41-2.97.07-.42.14-4.2-.01-4.35Z"/>
      <path class="cls-1" d="M59.99,95c-.1-.06-.04-.28-.06-.29h-31.36s.04.21-.05.3c-.13.12-.46.02-.46.05v2.66s.26.19.3.39c.52,2.74,1.65,5.24,3.42,7.22.91,1.03,1.73,1.6,2.74,2.29.12.08.56.74.61.76.28.11.72-.02.81.07.06.06-.04.42.02.48.09.09.65-.03.9.02.07.02,1.02.84,1.09.85.31.06.67-.07.98.03.23.07.21.45.4.49.4.1,1.04-.1,1.48,0,.13.03.1.29.24.33,1.04.29,4.14.29,5.27.18.45-.05,2.52-.41,2.88-.51.18-.05.17-.42.4-.49.3-.1.67.03.98-.03.07-.01,1.03-.84,1.1-.85.22-.05.64.07.73-.02.06-.06-.04-.42.02-.48.05-.05,1.03-.07,1.32-.4.11-.12-.04-.45.14-.48.21-.04.63.1.75-.01.05-.05-.04-.33.06-.44.06-.07.32-.03.46-.17,1.73-1.62,3.92-4.69,4.47-7.13.03-.13.31-.11.34-.23.09-.4-.04-.97.04-1.47.15-.88.8-1.84.49-2.94-.05-.17-.32-.05-.47-.15Z"/>
    </g>
  </g>
</svg>