<?xml version="1.0" encoding="UTF-8"?>
<svg id="Capa_2" data-name="Capa 2" xmlns="http://www.w3.org/2000/svg" viewBox="0 0 102.47 70.58">
  <defs>
    <style>
      .cls-1 {
        fill: #2378e5;
      }
    </style>
  </defs>
  <g id="Capa_1-2" data-name="Capa 1">
    <g>
      <path class="cls-1" d="M102.45,35.35c-.03-.14-.43-.03-.43-.06v-1.81c-.77.26-.27-.82-.43-.96-.04-.04-.39.04-.43,0-.04-.04.04-.81,0-.85-.04-.04-.39.04-.43,0-.04-.04.04-.39,0-.43-.04-.04-.39.04-.43,0-.05-.04.04-.73,0-.9-.02-.12-.27-.02-.32-.06-.06-.07.03-.38,0-.42-.03-.04-.39.04-.43,0-.04-.04.04-.5,0-.53-.04-.04-.39.04-.43,0-.04-.04.04-.39,0-.43-.04-.04-.39.04-.43,0-.04-.04.04-.81,0-.85-.04-.04-.39.04-.43,0-.04-.04.04-.5,0-.53-.04-.04-.39.04-.43,0-.04-.04.04-.39,0-.43-.04-.04-.39.04-.43,0-.04-.04.05-.92,0-.96-.04-.04-.39.04-.43,0-.04-.04.04-.39,0-.43-.04-.04-.39.04-.43,0s.04-.39,0-.43c-.04-.04-.39.04-.43,0-.04-.04.04-.5,0-.53-.04-.04-.39.04-.43,0-.04-.04.06-.35-.01-.42-.04-.04-.26.03-.3-.01-.07-.07.03-.38-.01-.42-.03-.04-.39.04-.43,0-.04-.04.05-.92,0-.96-.04-.04-.39.04-.43,0-.04-.04.04-.39,0-.43-.04-.04-.39.04-.43,0s.04-.39,0-.43c-.04-.04-.39.04-.43,0-.04-.04.04-.5,0-.53-.04-.04-.39.04-.43,0-.04-.04.04-.39,0-.43-.04-.04-.39.04-.43,0-.04-.04.04-.39,0-.43-.04-.04-.39.04-.43,0-.04-.04.04-.39,0-.43-.04-.04-.39.04-.43,0-.04-.04.04-.5,0-.53-.04-.04-.39.04-.43,0-.04-.04.06-.35-.01-.42-.04-.04-.26.03-.3-.01-.07-.07.03-.38-.01-.42-.03-.04-.39.04-.43,0-.04-.04.04-.5,0-.53-.04-.04-.39.04-.43,0-.04-.04.04-.39,0-.43-.04-.04-.39.04-.43,0-.04-.04.04-.39,0-.43-.04-.04-.39.04-.43,0-.04-.04.04-.5,0-.53-.04-.04-.39.04-.43,0-.04-.04.04-.39,0-.43s-.39.04-.43,0c-.04-.04.04-.39,0-.43-.04-.04-.81.04-.85,0-.04-.04.04-.39,0-.43-.04-.04-.39.04-.43,0-.04-.04.04-.5,0-.53-.04-.04-.39.04-.43,0-.04-.04.06-.35-.01-.42-.04-.04-.26.03-.3-.01-.07-.07.03-.38-.01-.42-.03-.04-.39.04-.43,0-.04-.04.04-.49,0-.53-.04-.04-.81.04-.85,0-.04-.04.04-.39,0-.43-.04-.04-.39.04-.43,0s.04-.39,0-.43c-.04-.04-.39.04-.43,0-.04-.04.04-.49,0-.53-.04-.04-.81.04-.85,0-.04-.04.04-.39,0-.43-.04-.04-.39.04-.43,0s.04-.39,0-.43c-.04-.04-.39.04-.43,0-.04-.04.04-.39,0-.43-.04-.04-.71.04-.75,0-.04-.04.04-.5,0-.53-.04-.04-.39.04-.43,0-.04-.04.04-.39,0-.43-.04-.04-.81.04-.85,0-.04-.04.04-.39,0-.43-.04-.04-.81.05-.85,0-.04-.04.04-.5,0-.53-.04-.04-.39.04-.43,0-.04-.04.04-.39,0-.43-.04-.04-.81.04-.85,0-.04-.04.04-.39,0-.43-.04-.04-.71.04-.75,0-.04-.04.04-.39,0-.43-.04-.04-.39.04-.43,0-.04-.04.04-.49,0-.53-.04-.04-.81.04-.85,0-.04-.04.04-.39,0-.43-.04-.04-.81.04-.85,0-.04-.04.04-.39,0-.43-.04-.04-.81.05-.85,0-.04-.04.04-.49,0-.53-.04-.04-.81.04-.85,0-.04-.04.04-.39,0-.43-.04-.05-1.13.05-1.17,0-.04-.04.04-.39,0-.43-.04-.04-.81.05-.85,0-.04-.04.04-.49,0-.53-.04-.04-.81.04-.85,0-.04-.04.04-.39,0-.43-.04-.05-1.24.05-1.28,0-.04-.04.04-.39,0-.43-.04-.04-.71.04-.75,0-.04-.04.04-.39,0-.43-.05-.05-1.23.05-1.28,0-.04-.04.04-.49,0-.53-.05-.05-1.23.05-1.28,0-.03-.03.02-.33,0-.43h-1.71s.02-.43,0-.43h-1.6s.03-.53,0-.53h-1.71s.02-.43,0-.43h-2.45s.02-.43,0-.43h-2.99s.03-.5,0-.53h-9.91s.03.53,0,.53h-3.3s.02.43,0,.43h-2.56s.02.43,0,.43h-1.71c-.02.12.03.5,0,.53-.05.05-1.13-.05-1.17,0-.03.03.02.33,0,.43h-1.71c-.02.1.03.4,0,.43-.05.05-1.23-.05-1.28,0-.04.04.04.49,0,.53-.05.05-1.13-.05-1.17,0-.04.04.04.39,0,.43-.04.05-1.24-.05-1.28,0-.04.04.04.39,0,.43-.04.05-1.24-.05-1.28,0-.04.04.04.39,0,.43-.04.04-.81-.05-.85,0-.04.04.04.49,0,.53-.04.04-.71-.04-.75,0-.04.04.04.39,0,.43-.04.04-.81-.04-.85,0-.04.04.04.39,0,.43-.05.05-1.23-.05-1.28,0-.04.04.04.49,0,.53-.04.04-.81-.04-.85,0-.04.04.04.39,0,.43-.04.04-.82-.04-.85,0-.04.04.05.35,0,.42-.04.05-.29-.06-.32.06-.02.12.04.44,0,.48-.04.04-.81-.04-.85,0-.04.04.04.39,0,.43-.04.04-.81-.04-.85,0-.04.04.04.39,0,.43-.04.04-.81-.04-.85,0-.04.04.04.39,0,.43-.04.04-.39-.04-.43,0-.04.04.04.49,0,.53-.04.04-.82-.04-.85,0-.04.04.06.35-.01.42-.04.04-.26-.03-.3.01-.07.07.03.38-.01.42-.04.04-.81-.04-.85,0-.04.04.04.5,0,.53-.04.04-.39-.04-.43,0-.04.04.04.39,0,.43-.04.04-.81-.04-.85,0-.04.04.04.39,0,.43-.04.04-.39-.04-.43,0-.04.04.04.39,0,.43-.04.04-.39-.04-.43,0-.04.04.04.49,0,.53-.04.04-.81-.04-.85,0-.04.04.04.39,0,.43-.04.04-.39-.04-.43,0-.04.04.06.36,0,.42-.04.04-.26-.03-.3.01-.07.07.03.48-.01.53-.04.04-.81-.04-.85,0-.04.04.04.39,0,.43-.04.04-.39-.04-.43,0-.04.04.04.39,0,.43-.04.04-.39-.04-.43,0-.04.04.04.5,0,.53-.04.04-.39-.04-.43,0-.04.04.04.39,0,.43-.04.04-.39-.04-.43,0-.04.04.04.39,0,.43-.04.04-.39-.04-.43,0-.04.04.04.39,0,.43-.04.04-.81-.04-.85,0-.04.04.03.36,0,.48-.02.12-.27.02-.32.06-.06.07.03.38,0,.42-.04.04-.39-.04-.43,0-.04.04.04.39,0,.43-.04.04-.39-.04-.43,0-.04.04.04.5,0,.53-.04.04-.39-.04-.43,0-.04.04.04.39,0,.43-.04.04-.39-.04-.43,0s.04.39,0,.43c-.04.04-.39-.04-.43,0-.04.04.04.5,0,.53-.04.04-.39-.04-.43,0-.04.04.04.39,0,.43s-.39-.04-.43,0c-.04.04.04.39,0,.43-.04.04-.39-.04-.43,0-.04.04.04.39,0,.43-.04.04-.39-.04-.43,0-.04.04.04.5,0,.53-.04.04-.39-.04-.43,0-.04.04.04.64,0,.8-.02.12-.27.02-.32.06-.07.07.03.49-.01.53-.04.04-.39-.04-.43,0-.04.04.04.39,0,.43s-.39-.04-.43,0,.04.39,0,.43-.39-.04-.43,0c-.04.04.04.39,0,.43-.04.04-.39-.04-.43,0-.04.04.04.5,0,.53-.04.04-.39-.04-.43,0-.04.04.04.39,0,.43-.04.04-.39-.04-.43,0-.04.04.05.92,0,.96-.04.04-.39-.04-.43,0-.04.04.04.39,0,.43-.04.04-.39-.04-.43,0-.04.04.04.39,0,.43-.04.04-.39-.04-.43,0-.04.04.06.46-.01.53-.04.04-.29-.06-.32.06-.03.16.05.75,0,.8-.04.04-.39-.04-.43,0-.04.04.04.39,0,.43-.04.04-.39-.04-.43,0-.04.04.04.5,0,.53-.04.04-.39-.04-.43,0-.04.04.04.81,0,.85-.04.04-.39-.04-.43,0-.04.04.04.5,0,.53-.04.04-.39-.04-.43,0-.04.04.04.39,0,.43-.04.04-.39-.04-.43,0-.04.04.04.81,0,.85-.04.04-.39-.04-.43,0-.15.14.35,1.22-.43.96v4.16c.76-.24.28.72.43.85.04.04.39-.04.43,0,.04.04-.05.92,0,.96.04.04.39-.04.43,0,.04.04-.04.39,0,.43.04.04.39-.04.43,0,.04.04-.05.92,0,.96.04.04.39-.04.43,0,.04.04-.04.39,0,.43.04.04.39-.04.43,0,.04.04-.04.39,0,.43.04.04.39-.04.43,0,.04.04-.05.92,0,.96.04.04.39-.04.43,0,.04.04-.06.36,0,.42.04.05.29-.06.32.06.02.12-.04.44,0,.48.04.04.39-.04.43,0,.04.04-.04.81,0,.85.04.04.39-.04.43,0,.04.04-.04.39,0,.43.04.04.39-.04.43,0,.04.04-.04.5,0,.53.04.04.39-.04.43,0,.04.04-.04.39,0,.43.04.04.39-.04.43,0,.04.04-.05.92,0,.96.04.04.39-.04.43,0,.04.04-.04.39,0,.43s.39-.04.43,0c.04.04-.04.39,0,.43.04.04.39-.04.43,0,.04.04-.04.5,0,.53.04.04.39-.04.43,0,.04.04-.06.35.01.42.04.04.26-.03.3.01.07.07-.03.38.01.42.04.04.39-.04.43,0,.04.04-.04.39,0,.43.04.04.39-.04.43,0,.04.04-.04.5,0,.53.04.04.39-.04.43,0,.04.04-.04.81,0,.85.04.04.39-.04.43,0,.04.04-.04.5,0,.53.04.04.39-.04.43,0,.04.04-.04.39,0,.43.04.04.39-.04.43,0s-.04.39,0,.43c.04.04.39-.04.43,0,.04.04-.04.49,0,.53.04.04.81-.04.85,0,.04.04-.04.39,0,.43.04.04.39-.04.43,0,.04.04-.06.35.01.42.04.04.26-.03.3.01.07.07-.03.38.01.42.03.04.39-.04.43,0,.04.04-.04.5,0,.53.04.04.39-.04.43,0,.04.04-.04.39,0,.43s.39-.04.43,0c.04.04-.04.39,0,.43.04.04.39-.04.43,0,.04.04-.04.5,0,.53.04.04.39-.04.43,0s-.04.39,0,.43c.04.04.81-.04.85,0,.04.04-.04.39,0,.43.04.04.39-.04.43,0,.04.04-.04.39,0,.43.04.04.39-.04.43,0,.03.03-.03.36,0,.48.02.12.27.02.32.06.06.07-.03.38,0,.42.04.04.81-.04.85,0,.04.04-.04.39,0,.43s.39-.04.43,0c.04.04-.04.49,0,.53.04.04.81-.04.85,0,.04.04-.04.39,0,.43s.39-.04.43,0c.04.04-.04.39,0,.43.04.04.81-.05.85,0,.04.04-.04.5,0,.53.04.04.39-.04.43,0,.04.04-.04.39,0,.43.04.04.71-.04.75,0,.04.04-.04.39,0,.43.04.04.39-.04.43,0,.04.04-.04.39,0,.43.04.04.81-.05.85,0,.04.04-.04.49,0,.53.04.04.81-.04.85,0,.04.04-.04.39,0,.43.04.04.39-.04.43,0s-.04.39,0,.43c.04.04.81-.05.85,0,.04.04-.04.49,0,.53.04.04.71-.04.75,0,.04.04-.04.39,0,.43.04.04.81-.04.85,0,.04.04-.04.39,0,.43.04.04.81-.04.85,0,.04.04-.04.39,0,.43.05.05,1.23-.05,1.28,0,.04.04-.04.49,0,.53.04.04.81-.04.85,0,.04.04-.04.39,0,.43.04.04.71-.04.75,0,.04.04-.04.39,0,.43.05.05,1.23-.05,1.28,0,.04.04-.04.49,0,.53.05.05,1.24-.05,1.28,0,.04.04-.04.39,0,.43.13.14,1.09-.33.85.43h1.6s-.03.53,0,.53h1.71s-.02.43,0,.43h1.71s-.02.43,0,.43h2.03s-.02.43,0,.43h2.13s-.03.53,0,.53h3.73s-.02.43,0,.43h9.59s-.02-.43,0-.43h3.3s-.03-.53,0-.53h2.45s-.02-.43,0-.43h2.13s-.02-.43,0-.43h1.6s-.02-.43,0-.43h1.71c.02-.12-.03-.5,0-.53.05-.05,1.24.05,1.28,0,.04-.04-.04-.39,0-.43.04-.04.81.04.85,0,.04-.04-.04-.39,0-.43.04-.05,1.13.05,1.17,0,.04-.04-.04-.49,0-.53.05-.05,1.24.05,1.28,0,.04-.04-.04-.39,0-.43.04-.04.81.04.85,0,.04-.04-.04-.39,0-.43.04-.05,1.13.05,1.17,0,.04-.04-.04-.49,0-.53.04-.04.81.04.85,0,.04-.04-.04-.39,0-.43.04-.04.81.04.85,0,.04-.04-.04-.39,0-.43.04-.04.81.04.85,0,.04-.04-.04-.39,0-.43.04-.04.81.05.85,0,.04-.04-.04-.49,0-.53.04-.04.81.04.85,0,.04-.04-.04-.39,0-.43.04-.04.71.04.75,0,.04-.04-.04-.39,0-.43s.39.04.43,0c.04-.04-.04-.49,0-.53.04-.04.81.04.85,0,.04-.04-.04-.39,0-.43.04-.04.81.04.85,0,.04-.04-.04-.39,0-.43.04-.04.39.04.43,0,.04-.04-.04-.39,0-.43.04-.04.81.05.85,0,.04-.04-.04-.5,0-.53.04-.04.39.04.43,0,.04-.04-.04-.39,0-.43.04-.04.71.04.75,0,.04-.04-.04-.39,0-.43.04-.04.39.04.43,0,.04-.04-.04-.5,0-.53.04-.04.39.04.43,0,.04-.04-.04-.39,0-.43.04-.04.81.04.85,0,.04-.04-.04-.39,0-.43s.39.04.43,0c.04-.04-.04-.49,0-.53.04-.04.81.04.85,0,.04-.04-.04-.39,0-.43.04-.04.39.04.43,0,.04-.04-.06-.35.01-.42.04-.04.26.03.3-.01.07-.07-.03-.38.01-.42.03-.04.39.04.43,0,.04-.04-.04-.5,0-.53.04-.04.39.04.43,0,.04-.04-.04-.39,0-.43.04-.04.39.04.43,0,.04-.04-.04-.39,0-.43.04-.04.81.05.85,0,.04-.04-.04-.5,0-.53.04-.04.39.04.43,0,.04-.04-.04-.39,0-.43.04-.04.39.04.43,0,.04-.04-.04-.39,0-.43.04-.04.39.04.43,0s-.04-.39,0-.43c.04-.04.39.04.43,0,.04-.04-.04-.5,0-.53.04-.04.39.04.43,0,.04-.04-.06-.35.01-.42.04-.04.26.03.3-.01.07-.07-.03-.38.01-.42.03-.04.39.04.43,0,.04-.04-.04-.5,0-.53.04-.04.39.04.43,0,.04-.04-.04-.39,0-.43.04-.04.39.04.43,0s-.04-.39,0-.43c.04-.04.39.04.43,0,.04-.04-.04-.5,0-.53.04-.04.39.04.43,0,.04-.04-.04-.39,0-.43s.39.04.43,0c.04-.04-.04-.39,0-.43.04-.04.39.04.43,0,.04-.04-.04-.39,0-.43.04-.04.39.04.43,0,.04-.04-.04-.5,0-.53.04-.04.39.04.43,0,.04-.04-.04-.64,0-.8.02-.12.27-.02.32-.06.07-.07-.03-.49.01-.53.04-.04.39.04.43,0,.04-.04-.04-.39,0-.43.04-.04.39.04.43,0,.04-.04-.04-.39,0-.43.04-.04.39.04.43,0,.04-.04-.04-.5,0-.53.04-.04.39.04.43,0,.04-.04-.04-.81,0-.85.04-.04.39.04.43,0,.04-.04-.04-.39,0-.43.04-.04.39.04.43,0,.04-.04-.04-.5,0-.53.04-.04.39.04.43,0,.04-.04-.04-.39,0-.43.04-.04.39.04.43,0,.04-.04-.05-.92,0-.96.04-.04.39.04.43,0,.04-.04-.04-.39,0-.43.04-.04.39.04.43,0,.04-.04-.06-.36,0-.42.04-.05.29.06.32-.06.03-.17-.06-.86,0-.9.04-.04.39.04.43,0,.04-.04-.04-.39,0-.43.04-.04.39.04.43,0,.04-.04-.05-.92,0-.96.04-.04.39.04.43,0,.09-.09-.26-.57.43-.43v-1.81c.1-.02.4.03.43,0,.03-.03.02-.79,0-.9ZM70.36,36.67s-.43-.02-.43,0v3.2s-.43-.02-.43,0v1.81s-.29-.06-.33.06c-.06.21.07,1.27,0,1.33-.04.04-.39-.04-.43,0-.04.04.05.92,0,.96-.04.04-.39-.04-.43,0-.04.04.04.81,0,.85-.04.04-.39-.04-.43,0-.04.04.05.92,0,.96-.04.04-.39-.04-.43,0-.04.04.04.39,0,.43-.04.04-.39-.04-.43,0-.04.04.05.92,0,.96-.04.04-.39-.04-.43,0-.04.04.04.39,0,.43-.04.04-.39-.04-.43,0-.04.04.05.92,0,.96-.04.04-.39-.04-.43,0-.04.04.04.39,0,.43-.04.04-.39-.04-.43,0s.04.39,0,.43c-.04.04-.39-.04-.43,0-.03.03.03.36,0,.48-.02.12-.27.02-.32.06-.06.07.03.38,0,.42-.03.04-.39-.04-.43,0-.04.04.04.39,0,.43-.04.04-.39-.04-.43,0-.04.04.04.5,0,.53-.04.04-.39-.04-.43,0-.04.04.04.39,0,.43-.04.04-.39-.04-.43,0-.04.04.04.39,0,.43-.04.04-.81-.05-.85,0-.04.04.04.5,0,.53-.04.04-.39-.04-.43,0-.04.04.04.39,0,.43-.04.04-.81-.04-.85,0-.04.04.04.39,0,.43-.04.04-.71-.04-.75,0-.04.04.04.39,0,.43-.04.04-.81-.05-.85,0-.04.04.04.49,0,.53-.04.04-.81-.04-.85,0-.04.04.04.39,0,.43-.04.04-.81-.04-.85,0-.04.04.04.39,0,.43-.05.05-1.23-.05-1.28,0-.03.03.02.42,0,.53h-2.03s.02.43,0,.43h-6.29s.02-.43,0-.43h-2.03c-.02-.12.03-.5,0-.53-.05-.05-1.24.05-1.28,0-.04-.04.04-.39,0-.43-.04-.05-1.24.05-1.28,0-.04-.04.04-.39,0-.43-.04-.04-.71.04-.75,0-.04-.04.04-.49,0-.53-.05-.05-1.24.05-1.28,0-.04-.04.04-.39,0-.43-.04-.04-.39.04-.43,0-.04-.04.04-.39,0-.43-.04-.04-.81.04-.85,0-.04-.04.04-.39,0-.43-.04-.04-.39.04-.43,0-.04-.04.04-.49,0-.53-.04-.04-.82.04-.85,0-.04-.04.06-.35-.01-.42-.04-.04-.26.03-.3-.01-.07-.07.03-.38-.01-.42-.03-.04-.39.04-.43,0-.04-.04.04-.5,0-.53-.04-.04-.39.04-.43,0-.04-.04.04-.39,0-.43-.04-.04-.39.04-.43,0s.04-.39,0-.43c-.04-.04-.39.04-.43,0-.04-.04.04-.5,0-.53-.04-.04-.39.04-.43,0-.04-.04.04-.39,0-.43s-.39.04-.43,0c-.04-.04.04-.81,0-.85-.04-.04-.39.04-.43,0-.04-.04.04-.5,0-.53-.04-.04-.39.04-.43,0-.04-.04.04-.39,0-.43-.04-.04-.39.04-.43,0-.04-.04.05-.92,0-.96-.04-.04-.39.04-.43,0-.04-.04.04-.64,0-.8-.03-.13-.31.01-.33-.12-.03-.17.05-.86,0-.9-.04-.04-.39.04-.43,0-.04-.04.04-.81,0-.85-.04-.04-.39.04-.43,0-.05-.05.05-1.34,0-1.39-.04-.04-.39.04-.43,0-.05-.05.05-1.34,0-1.39-.03-.03-.33.02-.43,0v-2.35s-.43.02-.43,0v-5.97s.43.02.43,0v-2.24s.43.02.43,0v-1.81c.77.26.27-.82.43-.96.04-.04.39.04.43,0,.05-.05-.05-1.34,0-1.39.04-.04.39.04.43,0,.04-.04-.04-.64,0-.8.02-.12.27-.02.32-.06.07-.07-.03-.49.01-.53.04-.04.39.04.43,0,.04-.04-.04-.81,0-.85.04-.04.39.04.43,0,.04-.04-.04-.39,0-.43.04-.04.39.04.43,0,.04-.04-.05-.92,0-.96.04-.04.39.04.43,0,.04-.04-.04-.39,0-.43.04-.04.39.04.43,0,.04-.04-.04-.5,0-.53.04-.04.39.04.43,0,.04-.04-.04-.39,0-.43.04-.04.39.04.43,0,.04-.04-.04-.39,0-.43.04-.04.39.04.43,0,.04-.04-.04-.39,0-.43.04-.04.39.04.43,0,.04-.04-.04-.5,0-.53.04-.04.39.04.43,0,.04-.04-.06-.35.01-.42.04-.04.26.03.3-.01.07-.07-.03-.38.01-.42.03-.04.39.04.43,0,.04-.04-.04-.49,0-.53.04-.04.81.04.85,0,.04-.04-.04-.39,0-.43.04-.04.39.04.43,0,.04-.04-.04-.39,0-.43.04-.04.81.05.85,0,.04-.04-.04-.49,0-.53.04-.04.81.04.85,0,.04-.04-.04-.39,0-.43.04-.04.39.04.43,0,.04-.04-.04-.39,0-.43.04-.05,1.13.05,1.17,0,.04-.04-.04-.39,0-.43.05-.05,1.23.05,1.28,0,.04-.04-.04-.49,0-.53.05-.05,1.23.05,1.28,0,.03-.03-.02-.33,0-.43h2.45s-.02-.43,0-.43h4.58c.01.07-.02.43,0,.43h2.13s-.02.43,0,.43h1.6c.02.12-.03.5,0,.53.05.05,1.24-.05,1.28,0,.04.04-.04.39,0,.43.04.04.81-.04.85,0,.04.04-.04.39,0,.43.04.04.81-.04.85,0,.04.04-.04.39,0,.43.04.04.71-.04.75,0,.04.04-.04.5,0,.53.04.04.39-.04.43,0s-.04.39,0,.43c.04.04.81-.04.85,0,.04.04-.04.39,0,.43s.39-.04.43,0c.04.04-.04.49,0,.53.04.04.81-.04.85,0,.04.04-.04.39,0,.43.04.04.39-.04.43,0,.04.04-.04.39,0,.43.04.04.39-.04.43,0,.04.04-.04.5,0,.53.04.04.39-.04.43,0,.04.04-.06.35.01.42.04.04.26-.03.3.01.07.07-.03.38.01.42.04.04.39-.04.43,0,.04.04-.04.39,0,.43.04.04.39-.04.43,0,.04.04-.04.5,0,.53.04.04.39-.04.43,0,.04.04-.04.81,0,.85.04.04.39-.04.43,0,.04.04-.04.5,0,.53.04.04.39-.04.43,0,.04.04-.04.81,0,.85.04.04.39-.04.43,0,.04.04-.04.39,0,.43s.39-.04.43,0c.04.04-.05.92,0,.96.04.04.39-.04.43,0,.04.04-.05.92,0,.96.04.04.39-.04.43,0,.05.05-.05,1.34,0,1.39.04.04.39-.04.43,0,.05.05-.05,1.01,0,1.22.03.13.31-.01.33.12.04.22-.06,1.27,0,1.33.03.03.33-.02.43,0v3.73s.43-.02.43,0v2.24Z"/>
      <path class="cls-1" d="M62.05,33.05v-1.81c-.77.26-.27-.82-.43-.96-.04-.04-.39.04-.43,0-.04-.04.05-.92,0-.96-.04-.04-.39.04-.43,0-.05-.05.06-.77-.01-.85-.04-.04-.26.03-.3-.01-.06-.07.03-.38,0-.42-.03-.04-.39.04-.43,0-.04-.04.05-.92,0-.96-.04-.04-.39.04-.43,0-.04-.04.04-.39,0-.43-.04-.04-.39.04-.43,0-.04-.04.04-.5,0-.53-.04-.04-.39.04-.43,0-.04-.04.04-.39,0-.43-.04-.04-.81.04-.85,0-.04-.04.04-.39,0-.43s-.39.04-.43,0c-.04-.04.04-.49,0-.53-.04-.04-.81.04-.85,0-.04-.04.04-.39,0-.43-.04-.04-.39.04-.43,0-.04-.04.04-.39,0-.43-.04-.04-.71.04-.75,0-.04-.04.04-.39,0-.43-.05-.05-1.23.05-1.28,0-.03-.03.02-.42,0-.53h-2.13s.03-.4,0-.43c-.08-.09-2.11,0-2.45,0-.02,0,.02.43,0,.43h-2.13c-.02.12.03.5,0,.53-.05.05-1.13-.05-1.17,0-.04.04.04.39,0,.43-.04.04-.81-.04-.85,0-.04.04.04.39,0,.43-.04.04-.81-.04-.85,0-.04.04.04.39,0,.43-.04.04-.39-.04-.43,0-.04.04.04.5,0,.53-.04.04-.39-.04-.43,0-.04.04.04.39,0,.43-.04.04-.39-.04-.43,0-.04.04.06.36,0,.42-.04.05-.29-.06-.32.06-.02.12.04.44,0,.48-.04.04-.39-.04-.43,0-.04.04.04.39,0,.43-.04.04-.39-.04-.43,0s.04.39,0,.43c-.04.04-.39-.04-.43,0-.04.04.04.5,0,.53-.04.04-.39-.04-.43,0-.04.04.04.81,0,.85-.04.04-.39-.04-.43,0-.04.04.05.92,0,.96-.04.04-.39-.04-.43,0-.14.13.33,1.09-.43.85v1.81s-.43-.02-.43,0v5.54s.43-.02.43,0v1.81c.77-.26.27.82.43.96.04.04.39-.04.43,0,.04.04-.04.81,0,.85.04.04.39-.04.43,0,.04.04-.05.92,0,.96.04.04.39-.04.43,0,.04.04-.04.39,0,.43.04.04.39-.04.43,0,.04.04-.05.92,0,.96.04.04.39-.04.43,0,.04.04-.04.39,0,.43.04.04.39-.04.43,0,.04.04-.06.36,0,.42.04.05.29-.06.32.06.02.12-.04.44,0,.48.04.04.39-.04.43,0s-.04.39,0,.43c.04.04.81-.04.85,0,.04.04-.04.39,0,.43.04.04.81-.05.85,0,.04.04-.04.49,0,.53.04.04.81-.04.85,0,.04.04-.04.39,0,.43.13.14,1.09-.33.85.43h1.6s-.03.53,0,.53h4.58c.02-.12-.03-.5,0-.53.05-.05,1.24.05,1.28,0,.04-.04-.04-.39,0-.43.04-.05,1.24.05,1.28,0,.04-.04-.04-.39,0-.43.04-.04.71.04.75,0,.04-.04-.04-.5,0-.53.04-.04.39.04.43,0,.04-.04-.04-.39,0-.43.04-.04.81.04.85,0,.04-.04-.04-.39,0-.43s.39.04.43,0c.04-.04-.04-.5,0-.53.04-.04.39.04.43,0,.04-.04-.04-.39,0-.43s.39.04.43,0c.04-.04-.04-.39,0-.43.04-.04.39.04.43,0,.04-.04-.04-.39,0-.43.04-.04.39.04.43,0,.04-.04-.04-.5,0-.53.04-.04.39.04.43,0,.05-.05-.06-.77.01-.85.04-.04.26.02.3-.01.07-.07-.03-.49.01-.53.04-.04.39.04.43,0,.05-.04-.05-1.24,0-1.28.04-.04.39.04.43,0,.15-.14-.35-1.22.43-.96v-1.81s.43.02.43,0v-4.58s-.43.02-.43,0Z"/>
    </g>
  </g>
</svg>