<?xml version="1.0" encoding="UTF-8"?>
<svg id="Capa_2" data-name="Capa 2" xmlns="http://www.w3.org/2000/svg" viewBox="0 0 114.55 114.94">
  <defs>
    <style>
      .cls-1 {
        fill: #277be4;
      }
    </style>
  </defs>
  <g id="Capa_1-2" data-name="Capa 1">
    <path class="cls-1" d="M114.01,27.21c-.5-6.63-1.74-11.61-6.95-16-6.67-5.61-14.88-2.83-17.95-5.01-1.08-.77-.55-3.33-1.76-4.67-1.51-1.66-9.22-1.99-11.06-.91-2.64,1.54.6,5.3-3.2,5.98-9.69,1.73-24.21-1.3-34.46,0,.52-4.52-.59-5.96-5.04-6.44-10.05-1.1-7.38,5.4-10.57,6.96-1.17.57-2.71-.55-4.03-.42C8.49,7.77,3.92,11.1.3,21.08l-.3,77.77c1.7,7.58,7.54,14.05,15.16,16.05l84.62.03c1.66-1.99,3.96-1.72,5.49-2.77,3.28-2.23,8.22-9.33,8.71-13.33-1.39-23.31,1.77-48.55.01-71.63ZM62.98,84.59c-1.36,0-4.62,8.38-5.06,10.09-1.92,1.45-3.85-10.09-5.96-10.09h-19.75c2.73-4.15,8.72-7.56,9.86-12.64,1.64-7.31-2.01-17.95,5.56-23.09,9.43-6.41,25.17-2.3,26.79,9.64.66,4.88-.92,11.54.47,16.05,1.12,3.63,7.35,6.07,8.78,10.04h-20.67Z"/>
  </g>
</svg>