<?xml version="1.0" encoding="UTF-8"?>
<svg id="Capa_2" data-name="Capa 2" xmlns="http://www.w3.org/2000/svg" viewBox="0 0 80.64 105.8">
  <defs>
    <style>
      .cls-1 {
        fill: #2b7ee7;
      }
    </style>
  </defs>
  <g id="Capa_1-2" data-name="Capa 1">
    <path class="cls-1" d="M80.6,39.61c-.04-1.35-.06-1.63-.33-2.78-.15-.65.12-1.67-.01-2.36-.12-.65-.72-2.21-.85-2.78-.79-3.52-2.22-7.04-4.12-10.21-1.35-2.26-3.24-4.78-4.92-6.62-2.74-3.01-5.2-5.3-8.48-7.4-.58-.37-.59-.72-.68-.81-.11-.12-.54.03-.75-.01-.18-.03-.03-.36-.14-.48-.05-.06-1.29-.82-1.37-.85-.27-.12-.72.02-.81-.06-.06-.06.04-.42-.02-.48-.1-.09-.52.04-.73-.01-.08-.02-1.09-.82-1.27-.86-.22-.05-.64.07-.73-.02-.06-.06.04-.42-.02-.48-.09-.08-.51.03-.73-.02-.13-.03-.14-.29-.25-.33-1.7-.58-3.46-1.23-5.22-1.61-.89-.19-1.62-.28-2.31-.63-.81-.4-1.63,0-2.67-.46-1.59-.7-6.4-.09-7.96.29-.6.14-1.54-.11-2.19.01-.66.12-2.2.7-2.78.85-2.94.71-5.4,1.6-7.99,2.92-2.71,1.38-5.83,3.59-8.25,5.76-.66.59-1.22,1.3-1.87,1.89-.16.14-1.05.57-1.09.61-.14.15-.07.53-.22.7-1.43,1.64-2.98,3.05-4.22,4.83-.35.5-2.56,3.92-2.63,4.16-.07.21.07.62-.02.72-.06.06-.42-.04-.48.02-.09.09.03.65-.02.9-.03.12-1.03,1.59-1.19,1.96-.76,1.8-2.11,5.69-2.4,7.5-.32,1.97-.72,4.71-.87,6.84-.23,3.14.32,6.12.82,9.13.28,1.67.63,3.29,1.08,4.89.94,3.41,2.61,6.86,4.26,9.85.75,1.36,1.51,2.81,2.36,4.1.13.2.72,1.16.78,1.2.12.1.39,0,.44.06.11.12-.07.55.07.8.04.07.6.44.75.63,2.02,2.66,3.6,5.25,5.65,7.71.86,1.03,1.64,2.48,2.53,3.64,1.67,2.18,3.74,4.43,5.46,6.41.47.54.86,1.26,1.43,1.95,1.89,2.27,3.66,4.51,5.66,6.85.98,1.14,1.95,2.6,2.93,3.68,1.23,1.36,2.49,2.48,3.76,3.66.08.08.02.34.1.41.47.39,1.81.54,2.43.53,1.54-.03,1.25-.33,2.19-.95,1.44-.96,1.81-1.05,2.57-2.57.06-.12,1.39-1.4,1.6-1.66,1.42-1.77,2.92-3.62,4.46-5.48.9-1.09,1.99-2.52,2.87-3.62,1.65-2.06,3.31-4.06,5.01-5.97.47-.53.81-1.18,1.38-1.89.91-1.14,1.88-2.67,2.88-3.97.68-.88,1.73-2.17,2.44-2.89.07-.08.03-.33.11-.4.11-.1.4,0,.45-.06.11-.12-.07-.55.07-.8.03-.06.6-.44.75-.63,1-1.28,2.02-3.14,3.1-4.08.39-.34,1.48-2.89,1.81-3.16.11-.09.38,0,.44-.07.09-.1-.03-.41.09-.61.25-.43,1.55-1.9,1.65-2.24.07-.21-.07-.62.02-.72.06-.06.42.04.48-.02.09-.09-.03-.51.02-.72.02-.06.63-.76.75-1,1.4-2.76,2.66-6.18,3.52-9.02.37-1.24.3-2.33.53-3.35.02-.08.41-.22.49-.91.36-3.08.45-6.2.36-9.4ZM56.27,45.9c-.02.09-.82,1.51-.85,1.61-.07.31.08,1.14-.02,1.24-.06.06-.42-.04-.48.02-.08.09.03.51-.02.73-.26,1.14-3.14,4.4-4.06,5.25-.45.42-2.69,2.15-3.09,2.24-.22.05-.64-.06-.73.02-.06.06.04.42-.02.48-.08.08-.63-.03-.9.05-.21.06-.33.34-.59.44-2.1.84-6.29.92-8.67.38-.13-.03-.1-.3-.23-.34-1.07-.25-2.67-.6-3.61-1.08-.12-.06-.55-.77-.68-.8-.21-.06-.61.07-.72-.03-.05-.05.04-.33-.06-.45-.07-.08-1.12-.53-1.27-.62-.32-.21-.39-.68-.45-.74-2.4-2.08-4.06-5.3-4.88-8.4-.53-2-.56-6.33-.04-8.32.05-.18.42-.17.49-.4.18-.55.18-1.23.48-1.92.09-.21.35-.17.39-.33.63-2.58,3.62-5.6,5.89-7,.22-.14.86-.57.92-.59.21-.05.63.08.73-.01.06-.06-.04-.42.02-.48.1-.1.79.04,1.07-.02.12-.03.1-.28.25-.33,1.14-.33,4.5-1.18,5.57-1,.56.09,3.34.46,3.51.53,1.3.55,2.74,1.05,4.02,1.84,3.14,1.95,4.51,3.77,6.32,7.05,1.48,2.69,1.35,3.79,1.69,6.91.04.39.34.62.35.85,0,.16-.31,3.06-.34,3.22Z"/>
  </g>
</svg>